STARTFONT 2.1
FONT -Vovanium-Salut Sans-Medium-R-Normal--32-320-72-72-P-160-ISO10646-1
SIZE 32 72 72
FONTBOUNDINGBOX 38 32 0 -6
STARTPROPERTIES 22
POINT_SIZE 320
PIXEL_SIZE 32
RESOLUTION_X 72
RESOLUTION_Y 72
FONT_ASCENT 26
FONT_DESCENT 6
AVERAGE_WIDTH 160
SPACING "P"
ADD_STYLE_NAME ""
CAP_HEIGHT 20
CHARSET_ENCODING "1"
CHARSET_REGISTRY "ISO10646"
DWIDTH "16"
FAMILY_NAME "Salut Sans"
FOUNDRY "Vovanium"
RELATIVE_SETWIDTH 50
RELATIVE_WEIGHT 50
SETWIDTH_NAME "Normal"
SLANT "R"
WEIGHT_NAME "Medium"
X_HEIGHT 14
_GBDFED_INFO "Edited with gbdfed 1.6."
ENDPROPERTIES
CHARS 594
STARTCHAR SPACE
ENCODING 32
SWIDTH 250 0
DWIDTH 8 0
BBX 0 0 0 0
BITMAP
ENDCHAR
STARTCHAR EXCLAMATION MARK
ENCODING 33
SWIDTH 250 0
DWIDTH 8 0
BBX 4 20 2 0
BITMAP
F0
F0
F0
F0
F0
F0
F0
E0
E0
60
60
60
60
00
00
00
F0
F0
F0
F0
ENDCHAR
STARTCHAR QUOTATION MARK
ENCODING 34
SWIDTH 437 0
DWIDTH 14 0
BBX 10 8 3 12
BITMAP
F3C0
F3C0
E380
E380
E380
C300
C300
C300
ENDCHAR
STARTCHAR NUMBER SIGN
ENCODING 35
SWIDTH 500 0
DWIDTH 16 0
BBX 16 20 0 0
BITMAP
038E
038E
038E
071C
071C
071C
3FFF
3FFF
0E38
0E38
1C70
1C70
FFFC
FFFC
38E0
38E0
38E0
71C0
71C0
71C0
ENDCHAR
STARTCHAR DOLLAR SIGN
ENCODING 36
SWIDTH 562 0
DWIDTH 18 0
BBX 15 26 2 -3
BITMAP
0380
0380
0380
1FF0
7FFC
701C
E000
E000
E000
E000
E000
F000
7FF0
1FFC
001C
000E
000E
000E
000E
000E
E01C
FFFC
3FF0
0380
0380
0380
ENDCHAR
STARTCHAR PERCENT SIGN
ENCODING 37
SWIDTH 625 0
DWIDTH 20 0
BBX 16 20 2 0
BITMAP
3C00
7E00
E702
C307
C30E
E71C
7E38
3C70
00E0
01C0
0380
0700
0E3C
1C7E
38E7
70C3
E0C3
40E7
007E
003C
ENDCHAR
STARTCHAR AMPERSAND
ENCODING 38
SWIDTH 562 0
DWIDTH 18 0
BBX 15 20 2 0
BITMAP
1F80
7FE0
70E0
E000
E000
E000
E000
E000
7000
3FFE
3FFE
7070
E070
E070
E070
E070
E070
70F8
7FFE
1F8E
ENDCHAR
STARTCHAR APOSTROPHE
ENCODING 39
SWIDTH 250 0
DWIDTH 8 0
BBX 4 8 3 12
BITMAP
F0
F0
E0
E0
E0
C0
C0
C0
ENDCHAR
STARTCHAR LEFT PARENTHESIS
ENCODING 40
SWIDTH 343 0
DWIDTH 11 0
BBX 7 24 3 -3
BITMAP
0C
1E
3C
38
78
70
70
F0
E0
E0
E0
E0
E0
E0
E0
E0
F0
70
70
78
38
3C
1E
0C
ENDCHAR
STARTCHAR RIGHT PARENTHESIS
ENCODING 41
SWIDTH 343 0
DWIDTH 11 0
BBX 7 24 1 -3
BITMAP
60
F0
78
38
3C
1C
1C
1E
0E
0E
0E
0E
0E
0E
0E
0E
1E
1C
1C
3C
38
78
F0
60
ENDCHAR
STARTCHAR ASTERISK
ENCODING 42
SWIDTH 406 0
DWIDTH 13 0
BBX 11 10 1 10
BITMAP
0E00
0E00
0E00
EEE0
FFE0
7FC0
1F00
3F80
7BC0
3180
ENDCHAR
STARTCHAR PLUS SIGN
ENCODING 43
SWIDTH 562 0
DWIDTH 18 0
BBX 14 14 2 3
BITMAP
0300
0300
0300
0300
0300
0300
FFFC
FFFC
0300
0300
0300
0300
0300
0300
ENDCHAR
STARTCHAR COMMA
ENCODING 44
SWIDTH 250 0
DWIDTH 8 0
BBX 6 9 0 -5
BITMAP
1C
1C
1C
1C
38
38
70
E0
40
ENDCHAR
STARTCHAR HYPHEN-MINUS
ENCODING 45
SWIDTH 312 0
DWIDTH 10 0
BBX 7 3 2 6
BITMAP
FE
FE
FE
ENDCHAR
STARTCHAR FULL STOP
ENCODING 46
SWIDTH 250 0
DWIDTH 8 0
BBX 4 4 2 0
BITMAP
F0
F0
F0
F0
ENDCHAR
STARTCHAR SOLIDUS
ENCODING 47
SWIDTH 500 0
DWIDTH 16 0
BBX 14 24 1 -4
BITMAP
001C
001C
0038
0038
0070
0070
00E0
00E0
01C0
01C0
0380
0380
0700
0700
0E00
0E00
1C00
1C00
3800
3800
7000
7000
E000
E000
ENDCHAR
STARTCHAR DIGIT ZERO
ENCODING 48
SWIDTH 500 0
DWIDTH 16 0
BBX 12 20 2 0
BITMAP
0F00
3FC0
39C0
70E0
70E0
F0F0
E070
E070
E070
E070
E070
E070
E070
E070
F0F0
70E0
70E0
39C0
3FC0
0F00
ENDCHAR
STARTCHAR DIGIT ONE
ENCODING 49
SWIDTH 500 0
DWIDTH 16 0
BBX 12 20 2 0
BITMAP
0700
0F00
3F00
FF00
E700
0700
0700
0700
0700
0700
0700
0700
0700
0700
0700
0700
0700
0700
FFF0
FFF0
ENDCHAR
STARTCHAR DIGIT TWO
ENCODING 50
SWIDTH 500 0
DWIDTH 16 0
BBX 12 20 2 0
BITMAP
1F00
7FC0
F1E0
C0E0
0070
0070
0070
0070
00E0
01E0
03C0
0780
0F00
1E00
3C00
7800
F000
E000
FFF0
FFF0
ENDCHAR
STARTCHAR DIGIT THREE
ENCODING 51
SWIDTH 500 0
DWIDTH 16 0
BBX 12 20 2 0
BITMAP
FFF0
FFF0
00E0
01C0
0380
0700
0F00
0FC0
01E0
00E0
0070
0070
0070
0070
0070
0070
C0E0
F1E0
7FC0
1F00
ENDCHAR
STARTCHAR DIGIT FOUR
ENCODING 52
SWIDTH 500 0
DWIDTH 16 0
BBX 14 20 1 0
BITMAP
01E0
01E0
03E0
03E0
07E0
07E0
0EE0
0EE0
1CE0
1CE0
38E0
38E0
70E0
70E0
FFFC
FFFC
00E0
00E0
00E0
00E0
ENDCHAR
STARTCHAR DIGIT FIVE
ENCODING 53
SWIDTH 500 0
DWIDTH 16 0
BBX 12 20 2 0
BITMAP
FFE0
FFE0
E000
E000
E000
E000
FF00
FFC0
E1E0
00E0
0070
0070
0070
0070
0070
0070
C0E0
F1E0
7FC0
1F00
ENDCHAR
STARTCHAR DIGIT SIX
ENCODING 54
SWIDTH 500 0
DWIDTH 16 0
BBX 12 20 2 0
BITMAP
03C0
0FC0
1E00
3800
7000
7000
E000
FF80
FFE0
E0E0
E070
E070
E070
E070
E070
E070
E070
70E0
7FE0
1F80
ENDCHAR
STARTCHAR DIGIT SEVEN
ENCODING 55
SWIDTH 500 0
DWIDTH 16 0
BBX 13 20 1 0
BITMAP
FFF8
FFF8
0078
0070
0070
00F0
00E0
00E0
01E0
01C0
01C0
03C0
0380
0380
0780
0700
0700
0F00
0E00
0E00
ENDCHAR
STARTCHAR DIGIT EIGHT
ENCODING 56
SWIDTH 500 0
DWIDTH 16 0
BBX 12 20 2 0
BITMAP
1F80
7FE0
70E0
E070
E070
E070
E070
70E0
3FC0
3FC0
70E0
E070
E070
E070
E070
E070
E070
70E0
7FE0
1F80
ENDCHAR
STARTCHAR DIGIT NINE
ENCODING 57
SWIDTH 500 0
DWIDTH 16 0
BBX 12 20 2 0
BITMAP
1F80
7FE0
70E0
E070
E070
E070
E070
E070
E070
E070
7070
7FF0
1FF0
0070
00E0
00E0
01C0
0780
3F00
3C00
ENDCHAR
STARTCHAR COLON
ENCODING 58
SWIDTH 250 0
DWIDTH 8 0
BBX 4 13 2 0
BITMAP
F0
F0
F0
F0
00
00
00
00
00
F0
F0
F0
F0
ENDCHAR
STARTCHAR SEMICOLON
ENCODING 59
SWIDTH 250 0
DWIDTH 8 0
BBX 6 18 0 -5
BITMAP
3C
3C
3C
3C
00
00
00
00
00
1C
1C
1C
1C
38
38
70
E0
40
ENDCHAR
STARTCHAR LESS-THAN SIGN
ENCODING 60
SWIDTH 656 0
DWIDTH 21 0
BBX 14 14 3 3
BITMAP
000C
003C
00F0
03C0
0F00
3C00
F000
F000
3C00
0F00
03C0
00F0
003C
000C
ENDCHAR
STARTCHAR EQUALS SIGN
ENCODING 61
SWIDTH 656 0
DWIDTH 21 0
BBX 14 7 4 6
BITMAP
FFFC
FFFC
0000
0000
0000
FFFC
FFFC
ENDCHAR
STARTCHAR GREATER-THAN SIGN
ENCODING 62
SWIDTH 656 0
DWIDTH 21 0
BBX 14 14 4 3
BITMAP
C000
F000
3C00
0F00
03C0
00F0
003C
003C
00F0
03C0
0F00
3C00
F000
C000
ENDCHAR
STARTCHAR QUESTION MARK
ENCODING 63
SWIDTH 437 0
DWIDTH 14 0
BBX 11 20 2 0
BITMAP
1F00
7FC0
F1C0
E0E0
00E0
00E0
00E0
01E0
0FC0
1F00
1C00
1C00
1C00
0000
0000
0000
1E00
1E00
1E00
1E00
ENDCHAR
STARTCHAR COMMERCIAL AT
ENCODING 64
SWIDTH 625 0
DWIDTH 20 0
BBX 18 20 1 0
BITMAP
07F800
1FFE00
3E0F00
780380
700380
70F9C0
E3F9C0
E3B9C0
E739C0
E739C0
E739C0
E739C0
E3B9C0
E3FF80
60F700
700000
700000
3C0000
1FFC00
07FC00
ENDCHAR
STARTCHAR LATIN CAPITAL LETTER A
ENCODING 65
SWIDTH 593 0
DWIDTH 19 0
BBX 17 20 1 0
BITMAP
03E000
03E000
03E000
077000
077000
077000
0E3800
0E3800
0E3800
1C1C00
1C1C00
1C1C00
380E00
3FFE00
3FFE00
700700
700700
700700
E00380
E00380
ENDCHAR
STARTCHAR LATIN CAPITAL LETTER B
ENCODING 66
SWIDTH 562 0
DWIDTH 18 0
BBX 14 20 2 0
BITMAP
FFC0
FFF0
E070
E038
E038
E038
E038
E070
FFE0
FFF0
E038
E01C
E01C
E01C
E01C
E01C
E01C
E038
FFF8
FFE0
ENDCHAR
STARTCHAR LATIN CAPITAL LETTER C
ENCODING 67
SWIDTH 531 0
DWIDTH 17 0
BBX 15 20 1 0
BITMAP
03F8
0FFE
1F0E
3C00
7800
7000
F000
E000
E000
E000
E000
E000
E000
F000
7000
7800
3C00
1F0E
0FFE
03F8
ENDCHAR
STARTCHAR LATIN CAPITAL LETTER D
ENCODING 68
SWIDTH 593 0
DWIDTH 19 0
BBX 16 20 2 0
BITMAP
FFC0
FFF0
E0F8
E03C
E01E
E00E
E00F
E007
E007
E007
E007
E007
E007
E00F
E00E
E01E
E03C
E0F8
FFF0
FFC0
ENDCHAR
STARTCHAR LATIN CAPITAL LETTER E
ENCODING 69
SWIDTH 531 0
DWIDTH 17 0
BBX 14 20 2 0
BITMAP
FFFC
FFFC
E000
E000
E000
E000
E000
E000
FFC0
FFC0
E000
E000
E000
E000
E000
E000
E000
E000
FFFC
FFFC
ENDCHAR
STARTCHAR LATIN CAPITAL LETTER F
ENCODING 70
SWIDTH 500 0
DWIDTH 16 0
BBX 14 20 2 0
BITMAP
FFFC
FFFC
E000
E000
E000
E000
E000
E000
FFC0
FFC0
E000
E000
E000
E000
E000
E000
E000
E000
E000
E000
ENDCHAR
STARTCHAR LATIN CAPITAL LETTER G
ENCODING 71
SWIDTH 593 0
DWIDTH 19 0
BBX 16 20 1 0
BITMAP
03F8
0FFE
1F0E
3C00
7800
7000
F000
E000
E000
E000
E000
E03F
E03F
F007
7007
7807
3C07
1F0F
0FFE
03F8
ENDCHAR
STARTCHAR LATIN CAPITAL LETTER H
ENCODING 72
SWIDTH 593 0
DWIDTH 19 0
BBX 15 20 2 0
BITMAP
E00E
E00E
E00E
E00E
E00E
E00E
E00E
E00E
FFFE
FFFE
E00E
E00E
E00E
E00E
E00E
E00E
E00E
E00E
E00E
E00E
ENDCHAR
STARTCHAR LATIN CAPITAL LETTER I
ENCODING 73
SWIDTH 343 0
DWIDTH 11 0
BBX 9 20 1 0
BITMAP
FF80
FF80
1C00
1C00
1C00
1C00
1C00
1C00
1C00
1C00
1C00
1C00
1C00
1C00
1C00
1C00
1C00
1C00
FF80
FF80
ENDCHAR
STARTCHAR LATIN CAPITAL LETTER J
ENCODING 74
SWIDTH 406 0
DWIDTH 13 0
BBX 10 20 1 0
BITMAP
0FC0
0FC0
01C0
01C0
01C0
01C0
01C0
01C0
01C0
01C0
01C0
01C0
01C0
01C0
01C0
01C0
01C0
E380
FF80
3E00
ENDCHAR
STARTCHAR LATIN CAPITAL LETTER K
ENCODING 75
SWIDTH 625 0
DWIDTH 20 0
BBX 17 20 2 0
BITMAP
E00780
E00F80
E01E00
E03C00
E07800
E0F000
E1E000
E3C000
E78000
FF0000
FF0000
E78000
E3C000
E1E000
E0F000
E07800
E03C00
E01E00
E00F00
E00780
ENDCHAR
STARTCHAR LATIN CAPITAL LETTER L
ENCODING 76
SWIDTH 500 0
DWIDTH 16 0
BBX 14 20 2 0
BITMAP
E000
E000
E000
E000
E000
E000
E000
E000
E000
E000
E000
E000
E000
E000
E000
E000
E000
E000
FFFC
FFFC
ENDCHAR
STARTCHAR LATIN CAPITAL LETTER M
ENCODING 77
SWIDTH 781 0
DWIDTH 25 0
BBX 21 20 2 0
BITMAP
F00078
F00078
F800F8
F800F8
FC01F8
FC01F8
FE03F8
EE03B8
EF07B8
E70738
E78F38
E38E38
E3DE38
E1DC38
E1FC38
E0F838
E0F838
E07038
E07038
E00038
ENDCHAR
STARTCHAR LATIN CAPITAL LETTER N
ENCODING 78
SWIDTH 625 0
DWIDTH 20 0
BBX 16 20 2 0
BITMAP
E007
E007
E007
F007
F807
FC07
FE07
EF07
E787
E3C7
E1E7
E0F7
E07F
E03F
E01F
E00F
E007
E007
E007
E007
ENDCHAR
STARTCHAR LATIN CAPITAL LETTER O
ENCODING 79
SWIDTH 625 0
DWIDTH 20 0
BBX 16 20 2 0
BITMAP
07E0
1FF8
3C3C
700E
700E
E007
E007
E007
E007
E007
E007
E007
E007
E007
E007
700E
700E
3C3C
1FF8
07E0
ENDCHAR
STARTCHAR LATIN CAPITAL LETTER P
ENCODING 80
SWIDTH 562 0
DWIDTH 18 0
BBX 15 20 2 0
BITMAP
FFF0
FFFC
E01C
E00E
E00E
E00E
E00E
E00E
E00E
E01C
FFFC
FFF0
E000
E000
E000
E000
E000
E000
E000
E000
ENDCHAR
STARTCHAR LATIN CAPITAL LETTER Q
ENCODING 81
SWIDTH 625 0
DWIDTH 20 0
BBX 16 24 2 -4
BITMAP
07E0
1FF8
3C3C
700E
700E
E007
E007
E007
E007
E007
E007
E007
E007
E007
E007
700E
700E
3C3C
1FF8
07F0
00F0
0078
003F
000F
ENDCHAR
STARTCHAR LATIN CAPITAL LETTER R
ENCODING 82
SWIDTH 593 0
DWIDTH 19 0
BBX 16 20 2 0
BITMAP
FFF0
FFFC
E01C
E00E
E00E
E00E
E00E
E00E
E00E
E01C
FFFC
FFF0
E780
E3C0
E1E0
E0F0
E078
E03C
E01E
E00F
ENDCHAR
STARTCHAR LATIN CAPITAL LETTER S
ENCODING 83
SWIDTH 562 0
DWIDTH 18 0
BBX 15 20 2 0
BITMAP
1FF0
7FFC
701C
E000
E000
E000
E000
E000
7000
7FF0
1FFC
001C
000E
000E
000E
000E
000E
E01C
FFFC
3FF0
ENDCHAR
STARTCHAR LATIN CAPITAL LETTER T
ENCODING 84
SWIDTH 625 0
DWIDTH 20 0
BBX 19 20 1 0
BITMAP
FFFFE0
FFFFE0
00E000
00E000
00E000
00E000
00E000
00E000
00E000
00E000
00E000
00E000
00E000
00E000
00E000
00E000
00E000
00E000
00E000
00E000
ENDCHAR
STARTCHAR LATIN CAPITAL LETTER U
ENCODING 85
SWIDTH 625 0
DWIDTH 20 0
BBX 16 20 2 0
BITMAP
E007
E007
E007
E007
E007
E007
E007
E007
E007
E007
E007
E007
E007
E007
E007
F00F
700E
781E
3FFC
0FF0
ENDCHAR
STARTCHAR LATIN CAPITAL LETTER V
ENCODING 86
SWIDTH 593 0
DWIDTH 19 0
BBX 17 20 1 0
BITMAP
E00380
E00380
700700
700700
700700
380E00
380E00
380E00
1C1C00
1C1C00
1C1C00
0E3800
0E3800
0E3800
077000
077000
077000
03E000
03E000
03E000
ENDCHAR
STARTCHAR LATIN CAPITAL LETTER W
ENCODING 87
SWIDTH 843 0
DWIDTH 27 0
BBX 25 20 1 0
BITMAP
E0000380
E0000380
F01C0780
701C0700
701C0700
783E0F00
383E0E00
383E0E00
3C7F1E00
1C771C00
1C771C00
1EF7BC00
0EE3B800
0EE3B800
0FE3F800
07C1F000
07C1F000
07C1F000
0380E000
0380E000
ENDCHAR
STARTCHAR LATIN CAPITAL LETTER X
ENCODING 88
SWIDTH 593 0
DWIDTH 19 0
BBX 17 20 1 0
BITMAP
F00780
700700
780F00
3C1E00
1C1C00
1E3C00
0F7800
077000
07F000
03E000
03E000
07F000
077000
0F7800
1E3C00
1C1C00
3C1E00
780F00
700700
F00780
ENDCHAR
STARTCHAR LATIN CAPITAL LETTER Y
ENCODING 89
SWIDTH 593 0
DWIDTH 19 0
BBX 17 20 1 0
BITMAP
F00780
700700
780F00
380E00
3C1E00
1C1C00
1E3C00
0E3800
0F7800
077000
07F000
03E000
03E000
01C000
01C000
01C000
01C000
01C000
01C000
01C000
ENDCHAR
STARTCHAR LATIN CAPITAL LETTER Z
ENCODING 90
SWIDTH 625 0
DWIDTH 20 0
BBX 16 20 2 0
BITMAP
FFFF
FFFF
0007
000F
001E
003C
0078
00F0
01E0
03C0
0780
0F00
1E00
3C00
7800
F000
E000
E000
FFFF
FFFF
ENDCHAR
STARTCHAR LEFT SQUARE BRACKET
ENCODING 91
SWIDTH 343 0
DWIDTH 11 0
BBX 7 26 2 -4
BITMAP
FE
FE
E0
E0
E0
E0
E0
E0
E0
E0
E0
E0
E0
E0
E0
E0
E0
E0
E0
E0
E0
E0
E0
E0
FE
FE
ENDCHAR
STARTCHAR REVERSE SOLIDUS
ENCODING 92
SWIDTH 500 0
DWIDTH 16 0
BBX 14 24 1 -4
BITMAP
E000
E000
7000
7000
3800
3800
1C00
1C00
0E00
0E00
0700
0700
0380
0380
01C0
01C0
00E0
00E0
0070
0070
0038
0038
001C
001C
ENDCHAR
STARTCHAR RIGHT SQUARE BRACKET
ENCODING 93
SWIDTH 343 0
DWIDTH 11 0
BBX 7 26 1 -4
BITMAP
FE
FE
0E
0E
0E
0E
0E
0E
0E
0E
0E
0E
0E
0E
0E
0E
0E
0E
0E
0E
0E
0E
0E
0E
FE
FE
ENDCHAR
STARTCHAR CIRCUMFLEX ACCENT
ENCODING 94
SWIDTH 343 0
DWIDTH 11 0
BBX 9 4 1 16
BITMAP
1C00
3E00
7700
E380
ENDCHAR
STARTCHAR LOW LINE
ENCODING 95
SWIDTH 500 0
DWIDTH 16 0
BBX 16 2 0 -4
BITMAP
FFFF
FFFF
ENDCHAR
STARTCHAR GRAVE ACCENT
ENCODING 96
SWIDTH 250 0
DWIDTH 8 0
BBX 5 4 1 16
BITMAP
E0
70
38
18
ENDCHAR
STARTCHAR LATIN SMALL LETTER A
ENCODING 97
SWIDTH 468 0
DWIDTH 15 0
BBX 12 14 1 0
BITMAP
1F80
7FE0
60E0
0070
0070
1FF0
7FF0
7070
E070
E070
E070
F0F0
7FF0
3F70
ENDCHAR
STARTCHAR LATIN SMALL LETTER B
ENCODING 98
SWIDTH 500 0
DWIDTH 16 0
BBX 12 20 2 0
BITMAP
E000
E000
E000
E000
E000
E000
EF80
FFE0
F0E0
E070
E070
E070
E070
E070
E070
E070
E070
F0E0
FFE0
EF80
ENDCHAR
STARTCHAR LATIN SMALL LETTER C
ENCODING 99
SWIDTH 437 0
DWIDTH 14 0
BBX 11 14 2 0
BITMAP
1F80
7FE0
70E0
E000
E000
E000
E000
E000
E000
E000
E000
70E0
7FE0
1F80
ENDCHAR
STARTCHAR LATIN SMALL LETTER D
ENCODING 100
SWIDTH 500 0
DWIDTH 16 0
BBX 12 20 2 0
BITMAP
0070
0070
0070
0070
0070
0070
1F70
7FF0
70F0
E070
E070
E070
E070
E070
E070
E070
E070
70F0
7FF0
1F70
ENDCHAR
STARTCHAR LATIN SMALL LETTER E
ENCODING 101
SWIDTH 500 0
DWIDTH 16 0
BBX 12 14 2 0
BITMAP
1F80
7FE0
70E0
E070
E070
FFF0
FFF0
E000
E000
E000
E000
7070
7FF0
1FC0
ENDCHAR
STARTCHAR LATIN SMALL LETTER F
ENCODING 102
SWIDTH 375 0
DWIDTH 12 0
BBX 11 20 1 0
BITMAP
07E0
1FE0
1C00
3800
3800
3800
FFC0
FFC0
3800
3800
3800
3800
3800
3800
3800
3800
3800
3800
3800
3800
ENDCHAR
STARTCHAR LATIN SMALL LETTER G
ENCODING 103
SWIDTH 500 0
DWIDTH 16 0
BBX 13 20 2 -6
BITMAP
1F38
7FF8
71E0
E0E0
E0E0
E0E0
E0E0
71C0
3FC0
7F00
E000
E000
FFC0
7FE0
00F0
0070
0070
E0E0
FFE0
3F80
ENDCHAR
STARTCHAR LATIN SMALL LETTER H
ENCODING 104
SWIDTH 500 0
DWIDTH 16 0
BBX 12 20 2 0
BITMAP
E000
E000
E000
E000
E000
E000
EF80
FFE0
F0E0
E070
E070
E070
E070
E070
E070
E070
E070
E070
E070
E070
ENDCHAR
STARTCHAR LATIN SMALL LETTER I
ENCODING 105
SWIDTH 250 0
DWIDTH 8 0
BBX 6 19 0 0
BITMAP
1C
1C
1C
00
00
FC
FC
1C
1C
1C
1C
1C
1C
1C
1C
1C
1C
1C
1C
ENDCHAR
STARTCHAR LATIN SMALL LETTER J
ENCODING 106
SWIDTH 312 0
DWIDTH 10 0
BBX 8 25 0 -6
BITMAP
07
07
07
00
00
3F
3F
07
07
07
07
07
07
07
07
07
07
07
07
07
07
07
0E
FE
F8
ENDCHAR
STARTCHAR LATIN SMALL LETTER K
ENCODING 107
SWIDTH 500 0
DWIDTH 16 0
BBX 13 20 2 0
BITMAP
E000
E000
E000
E000
E000
E000
E070
E0F0
E1E0
E3C0
E780
EF00
FE00
FF00
E780
E3C0
E1E0
E0F0
E078
E038
ENDCHAR
STARTCHAR LATIN SMALL LETTER L
ENCODING 108
SWIDTH 281 0
DWIDTH 9 0
BBX 7 20 2 0
BITMAP
E0
E0
E0
E0
E0
E0
E0
E0
E0
E0
E0
E0
E0
E0
E0
E0
E0
70
7E
1E
ENDCHAR
STARTCHAR LATIN SMALL LETTER M
ENCODING 109
SWIDTH 781 0
DWIDTH 25 0
BBX 21 14 2 0
BITMAP
EF8FC0
FFFFF0
F0F870
E07038
E07038
E07038
E07038
E07038
E07038
E07038
E07038
E07038
E07038
E07038
ENDCHAR
STARTCHAR LATIN SMALL LETTER N
ENCODING 110
SWIDTH 500 0
DWIDTH 16 0
BBX 12 14 2 0
BITMAP
EF80
FFE0
F0E0
E070
E070
E070
E070
E070
E070
E070
E070
E070
E070
E070
ENDCHAR
STARTCHAR LATIN SMALL LETTER O
ENCODING 111
SWIDTH 500 0
DWIDTH 16 0
BBX 12 14 2 0
BITMAP
1F80
7FE0
70E0
E070
E070
E070
E070
E070
E070
E070
E070
70E0
7FE0
1F80
ENDCHAR
STARTCHAR LATIN SMALL LETTER P
ENCODING 112
SWIDTH 500 0
DWIDTH 16 0
BBX 12 20 2 -6
BITMAP
EF80
FFE0
F0E0
E070
E070
E070
E070
E070
E070
E070
E070
F0E0
FFE0
EF80
E000
E000
E000
E000
E000
E000
ENDCHAR
STARTCHAR LATIN SMALL LETTER Q
ENCODING 113
SWIDTH 500 0
DWIDTH 16 0
BBX 12 20 2 -6
BITMAP
1F70
7FF0
70F0
E070
E070
E070
E070
E070
E070
E070
E070
70F0
7FF0
1F70
0070
0070
0070
0070
0070
0070
ENDCHAR
STARTCHAR LATIN SMALL LETTER R
ENCODING 114
SWIDTH 375 0
DWIDTH 12 0
BBX 9 14 2 0
BITMAP
E780
FF80
FC00
F000
F000
E000
E000
E000
E000
E000
E000
E000
E000
E000
ENDCHAR
STARTCHAR LATIN SMALL LETTER S
ENCODING 115
SWIDTH 468 0
DWIDTH 15 0
BBX 12 14 2 0
BITMAP
1F80
7FE0
70E0
E000
E000
7000
7F80
1FE0
00E0
0070
0070
E0E0
FFE0
3F80
ENDCHAR
STARTCHAR LATIN SMALL LETTER T
ENCODING 116
SWIDTH 375 0
DWIDTH 12 0
BBX 11 20 1 0
BITMAP
3800
3800
3800
3800
3800
3800
FFC0
FFC0
3800
3800
3800
3800
3800
3800
3800
3800
3800
1C00
1FE0
07E0
ENDCHAR
STARTCHAR LATIN SMALL LETTER U
ENCODING 117
SWIDTH 500 0
DWIDTH 16 0
BBX 12 14 2 0
BITMAP
E070
E070
E070
E070
E070
E070
E070
E070
E070
E070
E070
70F0
7FF0
1F70
ENDCHAR
STARTCHAR LATIN SMALL LETTER V
ENCODING 118
SWIDTH 531 0
DWIDTH 17 0
BBX 15 14 1 0
BITMAP
E00E
F01E
701C
783C
3838
3C78
1C70
1EF0
0EE0
0FE0
07C0
07C0
0380
0380
ENDCHAR
STARTCHAR LATIN SMALL LETTER W
ENCODING 119
SWIDTH 781 0
DWIDTH 25 0
BBX 23 14 1 0
BITMAP
E0380E
E0380E
707C1C
707C1C
707C1C
38EE38
38EE38
38EE38
1DC770
1DC770
1DC770
0F83E0
0F83E0
0F83E0
ENDCHAR
STARTCHAR LATIN SMALL LETTER X
ENCODING 120
SWIDTH 500 0
DWIDTH 16 0
BBX 13 14 1 0
BITMAP
E038
E038
F078
78F0
3DE0
1FC0
0F80
0F80
1FC0
3DE0
78F0
F078
E038
E038
ENDCHAR
STARTCHAR LATIN SMALL LETTER Y
ENCODING 121
SWIDTH 531 0
DWIDTH 17 0
BBX 15 20 1 -6
BITMAP
E00E
E00E
F01E
701C
783C
3838
3C78
1C70
1EF0
0EE0
0FE0
07C0
07C0
0380
0780
0700
0F00
1E00
7C00
7800
ENDCHAR
STARTCHAR LATIN SMALL LETTER Z
ENCODING 122
SWIDTH 500 0
DWIDTH 16 0
BBX 12 14 2 0
BITMAP
FFF0
FFF0
00F0
01E0
03C0
0780
0F00
1E00
3C00
7800
F000
E000
FFF0
FFF0
ENDCHAR
STARTCHAR LEFT CURLY BRACKET
ENCODING 123
SWIDTH 437 0
DWIDTH 14 0
BBX 11 26 1 -4
BITMAP
03E0
07E0
0F00
0E00
0E00
0E00
0E00
0E00
0E00
0E00
0E00
1C00
F800
F800
1C00
0E00
0E00
0E00
0E00
0E00
0E00
0E00
0E00
0F00
07E0
03E0
ENDCHAR
STARTCHAR VERTICAL LINE
ENCODING 124
SWIDTH 250 0
DWIDTH 8 0
BBX 3 26 2 -6
BITMAP
E0
E0
E0
E0
E0
E0
E0
E0
E0
E0
E0
E0
E0
E0
E0
E0
E0
E0
E0
E0
E0
E0
E0
E0
E0
E0
ENDCHAR
STARTCHAR RIGHT CURLY BRACKET
ENCODING 125
SWIDTH 437 0
DWIDTH 14 0
BBX 11 26 1 -4
BITMAP
F800
FC00
1E00
0E00
0E00
0E00
0E00
0E00
0E00
0E00
0E00
0700
03E0
03E0
0700
0E00
0E00
0E00
0E00
0E00
0E00
0E00
0E00
1E00
FC00
F800
ENDCHAR
STARTCHAR TILDE
ENCODING 126
SWIDTH 406 0
DWIDTH 13 0
BBX 11 4 1 16
BITMAP
7C00
FE60
CFE0
07C0
ENDCHAR
STARTCHAR NO-BREAK SPACE
ENCODING 160
SWIDTH 250 0
DWIDTH 8 0
BBX 0 0 0 0
BITMAP
ENDCHAR
STARTCHAR INVERTED EXCLAMATION MARK
ENCODING 161
SWIDTH 250 0
DWIDTH 8 0
BBX 4 20 2 -6
BITMAP
70
70
70
00
00
60
60
60
60
60
70
70
F0
F0
F0
F0
F0
F0
F0
F0
ENDCHAR
STARTCHAR CENT SIGN
ENCODING 162
SWIDTH 437 0
DWIDTH 14 0
BBX 12 20 1 -3
BITMAP
0300
0300
0300
0FC0
3FF0
7870
7000
E000
E000
E000
E000
E000
E000
7000
7870
3FF0
0FC0
0300
0300
0300
ENDCHAR
STARTCHAR POUND SIGN
ENCODING 163
SWIDTH 500 0
DWIDTH 16 0
BBX 15 20 0 0
BITMAP
03F8
0FFE
0E0E
1C00
1C00
1C00
1C00
7FF0
7FF0
1C00
1C00
1C00
1C00
1C00
1C00
1C00
1C00
1C00
FFFE
FFFE
ENDCHAR
STARTCHAR CURRENCY SIGN
ENCODING 164
SWIDTH 500 0
DWIDTH 16 0
BBX 13 13 2 2
BITMAP
4010
EFB8
7FF0
3060
6030
6030
6030
6030
6030
3060
7FF0
EFB8
4010
ENDCHAR
STARTCHAR YEN SIGN
ENCODING 165
SWIDTH 500 0
DWIDTH 16 0
BBX 15 20 1 0
BITMAP
E00E
F01E
701C
783C
3838
3C78
FC7E
FEFE
0EE0
0FE0
07C0
FFFE
FFFE
0380
0380
0380
0380
0380
0380
0380
ENDCHAR
STARTCHAR BROKEN BAR
ENCODING 166
SWIDTH 250 0
DWIDTH 8 0
BBX 3 26 3 -6
BITMAP
E0
E0
E0
E0
E0
E0
E0
E0
E0
E0
00
00
00
00
00
00
E0
E0
E0
E0
E0
E0
E0
E0
E0
E0
ENDCHAR
STARTCHAR SECTION SIGN
ENCODING 167
SWIDTH 500 0
DWIDTH 16 0
BBX 11 24 3 -4
BITMAP
1F00
3FC0
79C0
7000
7000
3800
1C00
3F00
7780
E3C0
E1C0
E0E0
E0E0
70E0
78E0
3DC0
1F80
0700
0380
01C0
01C0
73C0
7F80
1F00
ENDCHAR
STARTCHAR DIAERESIS
ENCODING 168
SWIDTH 343 0
DWIDTH 11 0
BBX 9 3 1 16
BITMAP
E380
E380
E380
ENDCHAR
STARTCHAR COPYRIGHT SIGN
ENCODING 169
SWIDTH 1000 0
DWIDTH 32 0
BBX 26 26 3 -3
BITMAP
007F8000
01FFE000
07C0F800
0F003C00
1C000E00
38000700
301E0300
707F8380
60F3C180
E1C0C1C0
C1C000C0
C38000C0
C38000C0
C38000C0
C38000C0
C1C000C0
E1C0C1C0
60F3C180
707F8380
301E0300
38000700
1C000E00
0F003C00
07C0F800
01FFE000
007F8000
ENDCHAR
STARTCHAR FEMININE ORDINAL INDICATOR
ENCODING 170
SWIDTH 343 0
DWIDTH 11 0
BBX 7 10 2 12
BITMAP
7C
7E
06
06
7E
F6
C6
C6
FE
7E
ENDCHAR
STARTCHAR LEFT-POINTING DOUBLE ANGLE QUOTATION MARK
ENCODING 171
SWIDTH 437 0
DWIDTH 14 0
BBX 11 11 1 2
BITMAP
0400
0E40
1CE0
39C0
7380
E700
7380
39C0
1CE0
0E40
0400
ENDCHAR
STARTCHAR NOT SIGN
ENCODING 172
SWIDTH 562 0
DWIDTH 18 0
BBX 14 6 2 5
BITMAP
FFFC
FFFC
000C
000C
000C
000C
ENDCHAR
STARTCHAR SOFT HYPHEN
ENCODING 173
SWIDTH 0 0
DWIDTH 0 0
BBX 0 0 0 0
BITMAP
ENDCHAR
STARTCHAR REGISTERED SIGN
ENCODING 174
SWIDTH 1000 0
DWIDTH 32 0
BBX 26 26 3 -3
BITMAP
007F8000
01FFE000
07C0F800
0F003C00
1C000E00
38000700
30FF8300
70FFC380
60E1E180
E0E0E1C0
C0E0E0C0
C0E0E0C0
C0E1E0C0
C0FFC0C0
C0FF80C0
C0EF00C0
E0E781C0
60E3C180
70E1E380
30E0F300
38000700
1C000E00
0F003C00
07C0F800
01FFE000
007F8000
ENDCHAR
STARTCHAR MACRON
ENCODING 175
SWIDTH 312 0
DWIDTH 10 0
BBX 8 2 1 16
BITMAP
FF
FF
ENDCHAR
STARTCHAR DEGREE SIGN
ENCODING 176
SWIDTH 312 0
DWIDTH 10 0
BBX 8 8 1 12
BITMAP
3C
7E
E7
C3
C3
E7
7E
3C
ENDCHAR
STARTCHAR PLUS-MINUS SIGN
ENCODING 177
SWIDTH 562 0
DWIDTH 18 0
BBX 14 18 2 2
BITMAP
0300
0300
0300
0300
0300
0300
FFFC
FFFC
0300
0300
0300
0300
0300
0300
0000
0000
FFFC
FFFC
ENDCHAR
STARTCHAR SUPERSCRIPT TWO
ENCODING 178
SWIDTH 343 0
DWIDTH 11 0
BBX 8 14 2 12
BITMAP
7C
FE
C7
03
03
03
07
0E
1C
38
70
E0
FF
FF
ENDCHAR
STARTCHAR SUPERSCRIPT THREE
ENCODING 179
SWIDTH 343 0
DWIDTH 11 0
BBX 8 14 2 12
BITMAP
FF
FF
07
0E
1C
3C
3E
07
03
03
03
C7
FE
7C
ENDCHAR
STARTCHAR ACUTE ACCENT
ENCODING 180
SWIDTH 250 0
DWIDTH 8 0
BBX 5 4 2 16
BITMAP
38
70
E0
C0
ENDCHAR
STARTCHAR MICRO SIGN
ENCODING 181
SWIDTH 468 0
DWIDTH 15 0
BBX 12 20 2 -6
BITMAP
E0E0
E0E0
E0E0
E0E0
E0E0
E0E0
E0E0
E0E0
E0E0
E0E0
E0E0
F1E0
FFF0
FF70
E000
E000
E000
E000
E000
E000
ENDCHAR
STARTCHAR PILCROW SIGN
ENCODING 182
SWIDTH 500 0
DWIDTH 16 0
BBX 14 23 1 -3
BITMAP
1FFC
7FFC
7E30
FE30
FE30
FE30
FE30
7E30
7E30
1E30
0630
0630
0630
0630
0630
0630
0630
0630
0630
0630
0630
0630
0630
ENDCHAR
STARTCHAR MIDDLE DOT
ENCODING 183
SWIDTH 250 0
DWIDTH 8 0
BBX 4 4 2 6
BITMAP
F0
F0
F0
F0
ENDCHAR
STARTCHAR CEDILLA
ENCODING 184
SWIDTH 250 0
DWIDTH 8 0
BBX 6 5 1 -5
BITMAP
30
38
1C
FC
F8
ENDCHAR
STARTCHAR SUPERSCRIPT ONE
ENCODING 185
SWIDTH 343 0
DWIDTH 11 0
BBX 6 14 2 12
BITMAP
0C
1C
3C
7C
EC
4C
0C
0C
0C
0C
0C
0C
0C
0C
ENDCHAR
STARTCHAR MASCULINE ORDINAL INDICATOR
ENCODING 186
SWIDTH 343 0
DWIDTH 11 0
BBX 9 10 1 12
BITMAP
3E00
7F00
E380
C180
C180
C180
C180
E380
7F00
3E00
ENDCHAR
STARTCHAR RIGHT-POINTING DOUBLE ANGLE QUOTATION MARK
ENCODING 187
SWIDTH 437 0
DWIDTH 14 0
BBX 11 11 2 2
BITMAP
0400
4E00
E700
7380
39C0
1CE0
39C0
7380
E700
4E00
0400
ENDCHAR
STARTCHAR VULGAR FRACTION ONE QUARTER
ENCODING 188
SWIDTH 718 0
DWIDTH 23 0
BBX 20 32 3 -6
BITMAP
180000
380000
F80000
F80000
180000
180000
180040
1800E0
1801C0
180380
180700
180E00
FF1C00
FF3800
007000
00E000
01C000
038000
0701C0
0E01C0
1C03C0
3803C0
7006C0
E006C0
400CC0
000CC0
001FF0
001FF0
0000C0
0000C0
0000C0
0000C0
ENDCHAR
STARTCHAR VULGAR FRACTION ONE HALF
ENCODING 189
SWIDTH 687 0
DWIDTH 22 0
BBX 19 32 3 -6
BITMAP
180000
380000
F80000
F80000
180000
180000
180040
1800E0
1801C0
180380
180700
180E00
FF1C00
FF3800
007000
00E000
01C000
038000
070F80
0E1FC0
1C18E0
380060
700060
E00060
4000E0
0001C0
000380
000700
000E00
001C00
001FE0
001FE0
ENDCHAR
STARTCHAR VULGAR FRACTION THREE QUARTERS
ENCODING 190
SWIDTH 718 0
DWIDTH 23 0
BBX 20 32 2 -6
BITMAP
FF0000
FF0000
070000
0E0000
1C0000
3C0000
3E0040
0700E0
0301C0
030380
030700
C70E00
FE1C00
7C3800
007000
00E000
01C000
038000
0701C0
0E01C0
1C03C0
3803C0
7006C0
E006C0
400CC0
000CC0
001FF0
001FF0
0000C0
0000C0
0000C0
0000C0
ENDCHAR
STARTCHAR INVERTED QUESTION MARK
ENCODING 191
SWIDTH 437 0
DWIDTH 14 0
BBX 11 20 2 -6
BITMAP
0700
0700
0700
0000
0000
0000
0000
0700
0700
1F00
7E00
7800
E000
E000
E000
E000
E000
70E0
7FE0
1F80
ENDCHAR
STARTCHAR LATIN CAPITAL LETTER A WITH GRAVE
ENCODING 192
SWIDTH 593 0
DWIDTH 19 0
BBX 17 26 1 0
BITMAP
070000
038000
01C000
00C000
000000
000000
03E000
03E000
03E000
077000
077000
077000
0E3800
0E3800
0E3800
1C1C00
1C1C00
1C1C00
380E00
3FFE00
3FFE00
700700
700700
700700
E00380
E00380
ENDCHAR
STARTCHAR LATIN CAPITAL LETTER A WITH ACUTE
ENCODING 193
SWIDTH 593 0
DWIDTH 19 0
BBX 17 26 1 0
BITMAP
007000
00E000
01C000
018000
000000
000000
03E000
03E000
03E000
077000
077000
077000
0E3800
0E3800
0E3800
1C1C00
1C1C00
1C1C00
380E00
3FFE00
3FFE00
700700
700700
700700
E00380
E00380
ENDCHAR
STARTCHAR LATIN CAPITAL LETTER A WITH CIRCUMFLEX
ENCODING 194
SWIDTH 593 0
DWIDTH 19 0
BBX 17 26 1 0
BITMAP
01C000
03E000
077000
0E3800
000000
000000
03E000
03E000
03E000
077000
077000
077000
0E3800
0E3800
0E3800
1C1C00
1C1C00
1C1C00
380E00
3FFE00
3FFE00
700700
700700
700700
E00380
E00380
ENDCHAR
STARTCHAR LATIN CAPITAL LETTER A WITH TILDE
ENCODING 195
SWIDTH 593 0
DWIDTH 19 0
BBX 17 26 1 0
BITMAP
038800
07DC00
0EF800
047000
000000
000000
03E000
03E000
03E000
077000
077000
077000
0E3800
0E3800
0E3800
1C1C00
1C1C00
1C1C00
380E00
3FFE00
3FFE00
700700
700700
700700
E00380
E00380
ENDCHAR
STARTCHAR LATIN CAPITAL LETTER A WITH DIAERESIS
ENCODING 196
SWIDTH 593 0
DWIDTH 19 0
BBX 17 25 1 0
BITMAP
0E3800
0E3800
0E3800
000000
000000
03E000
03E000
03E000
077000
077000
077000
0E3800
0E3800
0E3800
1C1C00
1C1C00
1C1C00
380E00
3FFE00
3FFE00
700700
700700
700700
E00380
E00380
ENDCHAR
STARTCHAR LATIN CAPITAL LETTER A WITH RING ABOVE
ENCODING 197
SWIDTH 593 0
DWIDTH 19 0
BBX 17 26 1 0
BITMAP
01C000
03E000
063000
063000
063000
03E000
03E000
03E000
03E000
077000
077000
077000
0E3800
0E3800
0E3800
1C1C00
1C1C00
1C1C00
380E00
3FFE00
3FFE00
700700
700700
700700
E00380
E00380
ENDCHAR
STARTCHAR LATIN CAPITAL LETTER AE
ENCODING 198
SWIDTH 875 0
DWIDTH 28 0
BBX 25 20 2 0
BITMAP
03FFFF80
03FFFF80
039C0000
071C0000
071C0000
071C0000
0E1C0000
0E1C0000
0E1FF800
1C1FF800
1C1C0000
1C1C0000
381C0000
3FFC0000
3FFC0000
701C0000
701C0000
701C0000
E01FFF80
E01FFF80
ENDCHAR
STARTCHAR LATIN CAPITAL LETTER C WITH CEDILLA
ENCODING 199
SWIDTH 562 0
DWIDTH 18 0
BBX 15 25 2 -5
BITMAP
03F8
0FFE
1F0E
3C00
7800
7000
F000
E000
E000
E000
E000
E000
E000
F000
7000
7800
3C00
1F0E
0FFE
03F8
00C0
00E0
0070
03F0
03E0
ENDCHAR
STARTCHAR LATIN CAPITAL LETTER E WITH GRAVE
ENCODING 200
SWIDTH 531 0
DWIDTH 17 0
BBX 14 26 2 0
BITMAP
0E00
0700
0380
0180
0000
0000
FFFC
FFFC
E000
E000
E000
E000
E000
E000
FFC0
FFC0
E000
E000
E000
E000
E000
E000
E000
E000
FFFC
FFFC
ENDCHAR
STARTCHAR LATIN CAPITAL LETTER E WITH ACUTE
ENCODING 201
SWIDTH 531 0
DWIDTH 17 0
BBX 14 26 2 0
BITMAP
01C0
0380
0700
0600
0000
0000
FFFC
FFFC
E000
E000
E000
E000
E000
E000
FFC0
FFC0
E000
E000
E000
E000
E000
E000
E000
E000
FFFC
FFFC
ENDCHAR
STARTCHAR LATIN CAPITAL LETTER E WITH CIRCUMFLEX
ENCODING 202
SWIDTH 531 0
DWIDTH 17 0
BBX 14 26 2 0
BITMAP
0700
0F80
1DC0
38E0
0000
0000
FFFC
FFFC
E000
E000
E000
E000
E000
E000
FFC0
FFC0
E000
E000
E000
E000
E000
E000
E000
E000
FFFC
FFFC
ENDCHAR
STARTCHAR LATIN CAPITAL LETTER E WITH DIAERESIS
ENCODING 203
SWIDTH 531 0
DWIDTH 17 0
BBX 14 25 2 0
BITMAP
38E0
38E0
38E0
0000
0000
FFFC
FFFC
E000
E000
E000
E000
E000
E000
FFC0
FFC0
E000
E000
E000
E000
E000
E000
E000
E000
FFFC
FFFC
ENDCHAR
STARTCHAR LATIN CAPITAL LETTER I WITH GRAVE
ENCODING 204
SWIDTH 343 0
DWIDTH 11 0
BBX 9 26 1 0
BITMAP
7000
3800
1C00
0C00
0000
0000
FF80
FF80
1C00
1C00
1C00
1C00
1C00
1C00
1C00
1C00
1C00
1C00
1C00
1C00
1C00
1C00
1C00
1C00
FF80
FF80
ENDCHAR
STARTCHAR LATIN CAPITAL LETTER I WITH ACUTE
ENCODING 205
SWIDTH 343 0
DWIDTH 11 0
BBX 9 26 1 0
BITMAP
0700
0E00
1C00
1800
0000
0000
FF80
FF80
1C00
1C00
1C00
1C00
1C00
1C00
1C00
1C00
1C00
1C00
1C00
1C00
1C00
1C00
1C00
1C00
FF80
FF80
ENDCHAR
STARTCHAR LATIN CAPITAL LETTER I WITH CIRCUMFLEX
ENCODING 206
SWIDTH 343 0
DWIDTH 11 0
BBX 9 26 1 0
BITMAP
1C00
3E00
7700
E380
0000
0000
FF80
FF80
1C00
1C00
1C00
1C00
1C00
1C00
1C00
1C00
1C00
1C00
1C00
1C00
1C00
1C00
1C00
1C00
FF80
FF80
ENDCHAR
STARTCHAR LATIN CAPITAL LETTER I WITH DIAERESIS
ENCODING 207
SWIDTH 343 0
DWIDTH 11 0
BBX 9 25 1 0
BITMAP
E380
E380
E380
0000
0000
FF80
FF80
1C00
1C00
1C00
1C00
1C00
1C00
1C00
1C00
1C00
1C00
1C00
1C00
1C00
1C00
1C00
1C00
FF80
FF80
ENDCHAR
STARTCHAR LATIN CAPITAL LETTER ETH
ENCODING 208
SWIDTH 687 0
DWIDTH 22 0
BBX 19 20 1 0
BITMAP
1FF800
1FFE00
1C1F00
1C0780
1C03C0
1C01C0
1C01E0
1C00E0
1C00E0
FFC0E0
FFC0E0
1C00E0
1C00E0
1C01E0
1C01C0
1C03C0
1C0780
1C1F00
1FFE00
1FF800
ENDCHAR
STARTCHAR LATIN CAPITAL LETTER N WITH TILDE
ENCODING 209
SWIDTH 625 0
DWIDTH 20 0
BBX 16 26 2 0
BITMAP
0710
0FB8
1DF0
08E0
0000
0000
E007
E007
E007
F007
F807
FC07
FE07
EF07
E787
E3C7
E1E7
E0F7
E07F
E03F
E01F
E00F
E007
E007
E007
E007
ENDCHAR
STARTCHAR LATIN CAPITAL LETTER O WITH GRAVE
ENCODING 210
SWIDTH 625 0
DWIDTH 20 0
BBX 16 26 2 0
BITMAP
0700
0380
01C0
00C0
0000
0000
07E0
1FF8
3C3C
700E
700E
E007
E007
E007
E007
E007
E007
E007
E007
E007
E007
700E
700E
3C3C
1FF8
07E0
ENDCHAR
STARTCHAR LATIN CAPITAL LETTER O WITH ACUTE
ENCODING 211
SWIDTH 625 0
DWIDTH 20 0
BBX 16 26 2 0
BITMAP
00E0
01C0
0380
0300
0000
0000
07E0
1FF8
3C3C
700E
700E
E007
E007
E007
E007
E007
E007
E007
E007
E007
E007
700E
700E
3C3C
1FF8
07E0
ENDCHAR
STARTCHAR LATIN CAPITAL LETTER O WITH CIRCUMFLEX
ENCODING 212
SWIDTH 625 0
DWIDTH 20 0
BBX 16 26 2 0
BITMAP
01C0
03E0
0770
0E38
0000
0000
07E0
1FF8
3C3C
700E
700E
E007
E007
E007
E007
E007
E007
E007
E007
E007
E007
700E
700E
3C3C
1FF8
07E0
ENDCHAR
STARTCHAR LATIN CAPITAL LETTER O WITH TILDE
ENCODING 213
SWIDTH 625 0
DWIDTH 20 0
BBX 16 26 2 0
BITMAP
0710
0FB8
1DF0
08E0
0000
0000
07E0
1FF8
3C3C
700E
700E
E007
E007
E007
E007
E007
E007
E007
E007
E007
E007
700E
700E
3C3C
1FF8
07E0
ENDCHAR
STARTCHAR LATIN CAPITAL LETTER O WITH DIAERESIS
ENCODING 214
SWIDTH 625 0
DWIDTH 20 0
BBX 16 25 2 0
BITMAP
0E38
0E38
0E38
0000
0000
07E0
1FF8
3C3C
700E
700E
E007
E007
E007
E007
E007
E007
E007
E007
E007
E007
700E
700E
3C3C
1FF8
07E0
ENDCHAR
STARTCHAR MULTIPLICATION SIGN
ENCODING 215
SWIDTH 562 0
DWIDTH 18 0
BBX 13 13 3 3
BITMAP
4010
E038
7070
38E0
1DC0
0F80
0700
0F80
1DC0
38E0
7070
E038
4010
ENDCHAR
STARTCHAR LATIN CAPITAL LETTER O WITH STROKE
ENCODING 216
SWIDTH 625 0
DWIDTH 20 0
BBX 20 20 0 0
BITMAP
01F820
07FE70
0F0FE0
1C03C0
1C0380
3807C0
380FC0
381DC0
3839C0
3871C0
38E1C0
39C1C0
3B81C0
3F01C0
3E01C0
1C0380
3C0380
7F0F00
E7FE00
41F800
ENDCHAR
STARTCHAR LATIN CAPITAL LETTER U WITH GRAVE
ENCODING 217
SWIDTH 625 0
DWIDTH 20 0
BBX 16 26 2 0
BITMAP
0700
0380
01C0
00C0
0000
0000
E007
E007
E007
E007
E007
E007
E007
E007
E007
E007
E007
E007
E007
E007
E007
F00F
700E
781E
3FFC
0FF0
ENDCHAR
STARTCHAR LATIN CAPITAL LETTER U WITH ACUTE
ENCODING 218
SWIDTH 625 0
DWIDTH 20 0
BBX 16 26 2 0
BITMAP
00E0
01C0
0380
0300
0000
0000
E007
E007
E007
E007
E007
E007
E007
E007
E007
E007
E007
E007
E007
E007
E007
F00F
700E
781E
3FFC
0FF0
ENDCHAR
STARTCHAR LATIN CAPITAL LETTER U WITH CIRCUMFLEX
ENCODING 219
SWIDTH 625 0
DWIDTH 20 0
BBX 16 26 2 0
BITMAP
01C0
03E0
0770
0E38
0000
0000
E007
E007
E007
E007
E007
E007
E007
E007
E007
E007
E007
E007
E007
E007
E007
F00F
700E
781E
3FFC
0FF0
ENDCHAR
STARTCHAR LATIN CAPITAL LETTER U WITH DIAERESIS
ENCODING 220
SWIDTH 625 0
DWIDTH 20 0
BBX 16 25 2 0
BITMAP
0E38
0E38
0E38
0000
0000
E007
E007
E007
E007
E007
E007
E007
E007
E007
E007
E007
E007
E007
E007
E007
F00F
700E
781E
3FFC
0FF0
ENDCHAR
STARTCHAR LATIN CAPITAL LETTER Y WITH ACUTE
ENCODING 221
SWIDTH 593 0
DWIDTH 19 0
BBX 17 26 1 0
BITMAP
007000
00E000
01C000
018000
000000
000000
F00780
700700
780F00
380E00
3C1E00
1C1C00
1E3C00
0E3800
0F7800
077000
07F000
03E000
03E000
01C000
01C000
01C000
01C000
01C000
01C000
01C000
ENDCHAR
STARTCHAR LATIN CAPITAL LETTER THORN
ENCODING 222
SWIDTH 531 0
DWIDTH 17 0
BBX 14 20 2 0
BITMAP
E000
E000
E000
E000
FFE0
FFF8
E038
E01C
E01C
E01C
E01C
E01C
E038
FFF8
FFE0
E000
E000
E000
E000
E000
ENDCHAR
STARTCHAR LATIN SMALL LETTER SHARP S
ENCODING 223
SWIDTH 531 0
DWIDTH 17 0
BBX 14 20 2 0
BITMAP
1F80
7FE0
70E0
E070
E070
E070
E0E0
E1E0
E3C0
E3C0
E1E0
E0F0
E078
E038
E01C
E01C
E01C
E038
E7F8
E7E0
ENDCHAR
STARTCHAR LATIN SMALL LETTER A WITH GRAVE
ENCODING 224
SWIDTH 468 0
DWIDTH 15 0
BBX 12 20 1 0
BITMAP
1C00
0E00
0700
0300
0000
0000
1F80
7FE0
60E0
0070
0070
1FF0
7FF0
7070
E070
E070
E070
F0F0
7FF0
3F70
ENDCHAR
STARTCHAR LATIN SMALL LETTER A WITH ACUTE
ENCODING 225
SWIDTH 468 0
DWIDTH 15 0
BBX 12 20 1 0
BITMAP
01C0
0380
0700
0600
0000
0000
1F80
7FE0
60E0
0070
0070
1FF0
7FF0
7070
E070
E070
E070
F0F0
7FF0
3F70
ENDCHAR
STARTCHAR LATIN SMALL LETTER A WITH CIRCUMFLEX
ENCODING 226
SWIDTH 468 0
DWIDTH 15 0
BBX 12 20 1 0
BITMAP
0700
0F80
1DC0
38E0
0000
0000
1F80
7FE0
60E0
0070
0070
1FF0
7FF0
7070
E070
E070
E070
F0F0
7FF0
3F70
ENDCHAR
STARTCHAR LATIN SMALL LETTER A WITH TILDE
ENCODING 227
SWIDTH 468 0
DWIDTH 15 0
BBX 12 20 1 0
BITMAP
0E20
1F70
3BE0
11C0
0000
0000
1F80
7FE0
60E0
0070
0070
1FF0
7FF0
7070
E070
E070
E070
F0F0
7FF0
3F70
ENDCHAR
STARTCHAR LATIN SMALL LETTER A WITH DIAERESIS
ENCODING 228
SWIDTH 468 0
DWIDTH 15 0
BBX 12 20 1 0
BITMAP
38E0
38E0
38E0
0000
0000
0000
1F80
7FE0
60E0
0070
0070
1FF0
7FF0
7070
E070
E070
E070
F0F0
7FF0
3F70
ENDCHAR
STARTCHAR LATIN SMALL LETTER A WITH RING ABOVE
ENCODING 229
SWIDTH 468 0
DWIDTH 15 0
BBX 12 22 1 0
BITMAP
0700
0F80
18C0
18C0
18C0
0F80
0700
0000
1F80
7FE0
60E0
0070
0070
1FF0
7FF0
7070
E070
E070
E070
F0F0
7FF0
3F70
ENDCHAR
STARTCHAR LATIN SMALL LETTER AE
ENCODING 230
SWIDTH 687 0
DWIDTH 22 0
BBX 19 14 1 0
BITMAP
1F1F00
7FFFC0
61F1C0
00E0E0
00E0E0
1FFFE0
7FFFE0
70E000
E0E000
E0E000
E0E000
F1F0E0
7FFFE0
3F1F80
ENDCHAR
STARTCHAR LATIN SMALL LETTER C WITH CEDILLA
ENCODING 231
SWIDTH 437 0
DWIDTH 14 0
BBX 11 19 2 -5
BITMAP
1F80
7FE0
70E0
E000
E000
E000
E000
E000
E000
E000
E000
70E0
7FE0
1F80
0600
0700
0380
1F80
1F00
ENDCHAR
STARTCHAR LATIN SMALL LETTER E WITH GRAVE
ENCODING 232
SWIDTH 500 0
DWIDTH 16 0
BBX 12 20 2 0
BITMAP
1C00
0E00
0700
0300
0000
0000
1F80
7FE0
70E0
E070
E070
FFF0
FFF0
E000
E000
E000
E000
7070
7FF0
1FC0
ENDCHAR
STARTCHAR LATIN SMALL LETTER E WITH ACUTE
ENCODING 233
SWIDTH 500 0
DWIDTH 16 0
BBX 12 20 2 0
BITMAP
0380
0700
0E00
0C00
0000
0000
1F80
7FE0
70E0
E070
E070
FFF0
FFF0
E000
E000
E000
E000
7070
7FF0
1FC0
ENDCHAR
STARTCHAR LATIN SMALL LETTER E WITH CIRCUMFLEX
ENCODING 234
SWIDTH 500 0
DWIDTH 16 0
BBX 12 20 2 0
BITMAP
0700
0F80
1DC0
38E0
0000
0000
1F80
7FE0
70E0
E070
E070
FFF0
FFF0
E000
E000
E000
E000
7070
7FF0
1FC0
ENDCHAR
STARTCHAR LATIN SMALL LETTER E WITH DIAERESIS
ENCODING 235
SWIDTH 500 0
DWIDTH 16 0
BBX 12 20 2 0
BITMAP
38E0
38E0
38E0
0000
0000
0000
1F80
7FE0
70E0
E070
E070
FFF0
FFF0
E000
E000
E000
E000
7070
7FF0
1FC0
ENDCHAR
STARTCHAR LATIN SMALL LETTER I WITH GRAVE
ENCODING 236
SWIDTH 250 0
DWIDTH 8 0
BBX 6 20 0 0
BITMAP
70
38
1C
0C
00
00
FC
FC
1C
1C
1C
1C
1C
1C
1C
1C
1C
1C
1C
1C
ENDCHAR
STARTCHAR LATIN SMALL LETTER I WITH ACUTE
ENCODING 237
SWIDTH 250 0
DWIDTH 8 0
BBX 8 20 0 0
BITMAP
07
0E
1C
18
00
00
FC
FC
1C
1C
1C
1C
1C
1C
1C
1C
1C
1C
1C
1C
ENDCHAR
STARTCHAR LATIN SMALL LETTER I WITH CIRCUMFLEX
ENCODING 238
SWIDTH 312 0
DWIDTH 10 0
BBX 9 20 1 0
BITMAP
1C00
3E00
7700
E380
0000
0000
FC00
FC00
1C00
1C00
1C00
1C00
1C00
1C00
1C00
1C00
1C00
1C00
1C00
1C00
ENDCHAR
STARTCHAR LATIN SMALL LETTER I WITH DIAERESIS
ENCODING 239
SWIDTH 312 0
DWIDTH 10 0
BBX 9 19 1 0
BITMAP
E380
E380
E380
0000
0000
FC00
FC00
1C00
1C00
1C00
1C00
1C00
1C00
1C00
1C00
1C00
1C00
1C00
1C00
ENDCHAR
STARTCHAR LATIN SMALL LETTER ETH
ENCODING 240
SWIDTH 500 0
DWIDTH 16 0
BBX 12 20 2 0
BITMAP
0E00
0F00
0780
7FF0
7FF0
01C0
1FE0
7FE0
70F0
E070
E070
E070
E070
E070
E070
E070
E070
70E0
7FE0
1F80
ENDCHAR
STARTCHAR LATIN SMALL LETTER N WITH TILDE
ENCODING 241
SWIDTH 500 0
DWIDTH 16 0
BBX 12 20 2 0
BITMAP
1C40
3EE0
77C0
2380
0000
0000
EF80
FFE0
F0E0
E070
E070
E070
E070
E070
E070
E070
E070
E070
E070
E070
ENDCHAR
STARTCHAR LATIN SMALL LETTER O WITH GRAVE
ENCODING 242
SWIDTH 500 0
DWIDTH 16 0
BBX 12 20 2 0
BITMAP
1C00
0E00
0700
0300
0000
0000
1F80
7FE0
70E0
E070
E070
E070
E070
E070
E070
E070
E070
70E0
7FE0
1F80
ENDCHAR
STARTCHAR LATIN SMALL LETTER O WITH ACUTE
ENCODING 243
SWIDTH 500 0
DWIDTH 16 0
BBX 12 20 2 0
BITMAP
01C0
0380
0700
0600
0000
0000
1F80
7FE0
70E0
E070
E070
E070
E070
E070
E070
E070
E070
70E0
7FE0
1F80
ENDCHAR
STARTCHAR LATIN SMALL LETTER O WITH CIRCUMFLEX
ENCODING 244
SWIDTH 500 0
DWIDTH 16 0
BBX 12 20 2 0
BITMAP
0700
0F80
1DC0
38E0
0000
0000
1F80
7FE0
70E0
E070
E070
E070
E070
E070
E070
E070
E070
70E0
7FE0
1F80
ENDCHAR
STARTCHAR LATIN SMALL LETTER O WITH TILDE
ENCODING 245
SWIDTH 500 0
DWIDTH 16 0
BBX 12 20 2 0
BITMAP
1C40
3EE0
77C0
2380
0000
0000
1F80
7FE0
70E0
E070
E070
E070
E070
E070
E070
E070
E070
70E0
7FE0
1F80
ENDCHAR
STARTCHAR LATIN SMALL LETTER O WITH DIAERESIS
ENCODING 246
SWIDTH 500 0
DWIDTH 16 0
BBX 12 19 2 0
BITMAP
38E0
38E0
38E0
0000
0000
1F80
7FE0
70E0
E070
E070
E070
E070
E070
E070
E070
E070
70E0
7FE0
1F80
ENDCHAR
STARTCHAR DIVISION SIGN
ENCODING 247
SWIDTH 562 0
DWIDTH 18 0
BBX 16 16 1 2
BITMAP
03C0
03C0
03C0
03C0
0000
0000
0000
FFFF
FFFF
0000
0000
0000
03C0
03C0
03C0
03C0
ENDCHAR
STARTCHAR LATIN SMALL LETTER O WITH STROKE
ENCODING 248
SWIDTH 500 0
DWIDTH 16 0
BBX 14 14 1 0
BITMAP
0FC8
3FFC
3878
7070
70F8
71F8
73B8
7738
7E38
7C38
3838
7870
FFF0
4FC0
ENDCHAR
STARTCHAR LATIN SMALL LETTER U WITH GRAVE
ENCODING 249
SWIDTH 500 0
DWIDTH 16 0
BBX 12 20 2 0
BITMAP
1C00
0E00
0700
0300
0000
0000
E070
E070
E070
E070
E070
E070
E070
E070
E070
E070
E070
70F0
7FF0
1F70
ENDCHAR
STARTCHAR LATIN SMALL LETTER U WITH ACUTE
ENCODING 250
SWIDTH 500 0
DWIDTH 16 0
BBX 12 20 2 0
BITMAP
01C0
0380
0700
0600
0000
0000
E070
E070
E070
E070
E070
E070
E070
E070
E070
E070
E070
70F0
7FF0
1F70
ENDCHAR
STARTCHAR LATIN SMALL LETTER U WITH CIRCUMFLEX
ENCODING 251
SWIDTH 500 0
DWIDTH 16 0
BBX 12 20 2 0
BITMAP
0700
0F80
1DC0
38E0
0000
0000
E070
E070
E070
E070
E070
E070
E070
E070
E070
E070
E070
70F0
7FF0
1F70
ENDCHAR
STARTCHAR LATIN SMALL LETTER U WITH DIAERESIS
ENCODING 252
SWIDTH 500 0
DWIDTH 16 0
BBX 12 19 2 0
BITMAP
38E0
38E0
38E0
0000
0000
E070
E070
E070
E070
E070
E070
E070
E070
E070
E070
E070
70F0
7FF0
1F70
ENDCHAR
STARTCHAR LATIN SMALL LETTER Y WITH ACUTE
ENCODING 253
SWIDTH 531 0
DWIDTH 17 0
BBX 15 26 1 -6
BITMAP
00E0
01C0
0380
0300
0000
0000
E00E
E00E
F01E
701C
783C
3838
3C78
1C70
1EF0
0EE0
0FE0
07C0
07C0
0380
0780
0700
0F00
1E00
7C00
7800
ENDCHAR
STARTCHAR LATIN SMALL LETTER THORN
ENCODING 254
SWIDTH 468 0
DWIDTH 15 0
BBX 12 26 1 -6
BITMAP
E000
E000
E000
E000
E000
E000
EF80
FFE0
F0E0
E070
E070
E070
E070
E070
E070
E070
E070
F0E0
FFE0
EF80
E000
E000
E000
E000
E000
E000
ENDCHAR
STARTCHAR LATIN SMALL LETTER Y WITH DIAERESIS
ENCODING 255
SWIDTH 531 0
DWIDTH 17 0
BBX 15 26 1 -6
BITMAP
1C70
1C70
1C70
0000
0000
0000
E00E
E00E
F01E
701C
783C
3838
3C78
1C70
1EF0
0EE0
0FE0
07C0
07C0
0380
0780
0700
0F00
1E00
7C00
7800
ENDCHAR
STARTCHAR LATIN CAPITAL LETTER C WITH HOOK
ENCODING 391
SWIDTH 593 0
DWIDTH 19 0
BBX 17 20 2 0
BITMAP
07E780
1FFF80
3E1C00
780000
700000
F00000
E00000
E00000
E00000
E00000
E00000
E00000
E00000
E00000
F00000
700000
780000
3E1C00
1FFC00
07F000
ENDCHAR
STARTCHAR LATIN SMALL LETTER C WITH HOOK
ENCODING 392
SWIDTH 500 0
DWIDTH 16 0
BBX 14 20 2 0
BITMAP
001C
007C
0070
00E0
00E0
00E0
1FE0
7FE0
70E0
E000
E000
E000
E000
E000
E000
E000
E000
70E0
7FE0
1F80
ENDCHAR
STARTCHAR LATIN CAPITAL LETTER F WITH HOOK
ENCODING 401
SWIDTH 531 0
DWIDTH 17 0
BBX 17 26 0 -6
BITMAP
1FFF80
1FFF80
1C0000
1C0000
1C0000
1C0000
1C0000
1C0000
1FF800
1FF800
1C0000
1C0000
1C0000
1C0000
1C0000
1C0000
1C0000
1C0000
1C0000
1C0000
1C0000
1C0000
1C0000
380000
F80000
E00000
ENDCHAR
STARTCHAR LATIN SMALL LETTER F WITH HOOK
ENCODING 402
SWIDTH 375 0
DWIDTH 12 0
BBX 12 26 0 -6
BITMAP
03F0
0FF0
0E00
1C00
1C00
1C00
7FE0
7FE0
1C00
1C00
1C00
1C00
1C00
1C00
1C00
1C00
1C00
1C00
1C00
1C00
1C00
1C00
1C00
3800
F800
E000
ENDCHAR
STARTCHAR LATIN CAPITAL LETTER G WITH HOOK
ENCODING 403
SWIDTH 625 0
DWIDTH 20 0
BBX 18 20 2 0
BITMAP
07F3C0
1FFFC0
3E0E00
780000
700000
F00000
E00000
E00000
E00000
E00000
E00000
E03F00
E03F00
E00700
F00700
700700
780700
3E0F00
1FFE00
07F800
ENDCHAR
STARTCHAR LATIN CAPITAL LETTER GAMMA
ENCODING 404
SWIDTH 562 0
DWIDTH 18 0
BBX 17 20 1 0
BITMAP
F00780
700700
780F00
380E00
3C1E00
1C1C00
1E3C00
0E3800
0F7800
077000
07F000
03E000
03E000
01C000
03E000
03E000
077000
077000
07F000
03E000
ENDCHAR
STARTCHAR LATIN SMALL LETTER HV
ENCODING 405
SWIDTH 781 0
DWIDTH 25 0
BBX 21 20 2 0
BITMAP
E00000
E00000
E00000
E00000
E00000
E00000
EF80C0
FFE0F0
F0E070
E07038
E07038
E07038
E07038
E07038
E07038
E07038
E07038
E03870
E03FF0
E00FC0
ENDCHAR
STARTCHAR LATIN CAPITAL LETTER K WITH HOOK
ENCODING 408
SWIDTH 625 0
DWIDTH 20 0
BBX 17 20 2 0
BITMAP
E03F00
E07F80
E07380
E0E380
E0E000
E1C000
E1C000
E38000
E78000
FF0000
FF0000
E78000
E3C000
E1E000
E0F000
E07800
E03C00
E01E00
E00F00
E00780
ENDCHAR
STARTCHAR LATIN SMALL LETTER K WITH HOOK
ENCODING 409
SWIDTH 500 0
DWIDTH 16 0
BBX 13 20 2 0
BITMAP
1C00
7C00
7000
E000
E000
E000
E0E0
E1E0
E3C0
E780
EF00
FE00
FE00
FF00
E780
E3C0
E1E0
E0F0
E078
E038
ENDCHAR
STARTCHAR GREEK CAPITAL LETTER HETA
ENCODING 880
SWIDTH 500 0
DWIDTH 16 0
BBX 13 20 2 0
BITMAP
E000
E000
E000
E000
E000
E000
E000
E000
E000
FFF8
FFF8
E000
E000
E000
E000
E000
E000
E000
E000
E000
ENDCHAR
STARTCHAR GREEK SMALL LETTER HETA
ENCODING 881
SWIDTH 406 0
DWIDTH 13 0
BBX 10 14 2 0
BITMAP
E000
E000
E000
E000
E000
E000
FFC0
FFC0
E000
E000
E000
E000
E000
E000
ENDCHAR
STARTCHAR GREEK CAPITAL LETTER ARCHAIC SAMPI
ENCODING 882
SWIDTH 656 0
DWIDTH 21 0
BBX 17 20 2 0
BITMAP
FFFF80
FFFF80
E1C380
E1C380
E1C380
E1C380
01C000
01C000
01C000
01C000
01C000
01C000
01C000
01C000
01C000
01C000
01C000
01C000
01C000
01C000
ENDCHAR
STARTCHAR GREEK SMALL LETTER ARCHAIC SAMPI
ENCODING 883
SWIDTH 531 0
DWIDTH 17 0
BBX 15 20 1 0
BITMAP
FFFE
FFFE
E38E
E38E
E38E
E38E
0380
0380
0380
0380
0380
0380
0380
0380
0380
0380
0380
0380
0380
0380
ENDCHAR
STARTCHAR GREEK NUMERAL SIGN
ENCODING 884
SWIDTH 250 0
DWIDTH 8 0
BBX 6 9 2 16
BITMAP
08
1C
38
70
70
E0
E0
E0
E0
ENDCHAR
STARTCHAR GREEK LOWER NUMERAL SIGN
ENCODING 885
SWIDTH 250 0
DWIDTH 8 0
BBX 6 9 0 -5
BITMAP
1C
1C
1C
1C
38
38
70
E0
40
ENDCHAR
STARTCHAR GREEK CAPITAL LETTER PAMPHYLIAN DIGAMMA
ENCODING 886
SWIDTH 625 0
DWIDTH 20 0
BBX 16 20 2 0
BITMAP
E007
E007
E007
E007
E00F
E01F
E03F
E07F
E0F7
E1E7
E3C7
E787
EF07
FE07
FC07
F807
F007
E007
E007
E007
ENDCHAR
STARTCHAR GREEK SMALL LETTER PAMPHYLIAN DIGAMMA
ENCODING 887
SWIDTH 531 0
DWIDTH 17 0
BBX 13 14 2 0
BITMAP
E038
E038
E078
E0F8
E1F8
E3F8
E7B8
EF38
FE38
FC38
F838
F038
E038
E038
ENDCHAR
STARTCHAR GREEK YPOGEGRAMMENI
ENCODING 890
SWIDTH 250 0
DWIDTH 8 0
BBX 7 10 0 -6
BITMAP
30
30
30
30
30
30
30
30
3E
1E
ENDCHAR
STARTCHAR GREEK SMALL REVERSED LUNATE SIGMA SYMBOL
ENCODING 891
SWIDTH 468 0
DWIDTH 15 0
BBX 12 14 1 0
BITMAP
3F80
FFE0
E0E0
0070
0070
0070
0070
0070
0070
0070
0070
E0E0
FFE0
3F80
ENDCHAR
STARTCHAR GREEK SMALL DOTTED LUNATE SIGMA SYMBOL
ENCODING 892
SWIDTH 468 0
DWIDTH 15 0
BBX 12 14 2 0
BITMAP
1FC0
7FF0
7070
E000
E000
E700
E700
E700
E000
E000
E000
7070
7FF0
1FC0
ENDCHAR
STARTCHAR GREEK SMALL REVERSED DOTTED LUNATE SIGMA SYMBOL
ENCODING 893
SWIDTH 468 0
DWIDTH 15 0
BBX 12 14 1 0
BITMAP
3F80
FFE0
E0E0
0070
0070
0E70
0E70
0E70
0070
0070
0070
E0E0
FFE0
3F80
ENDCHAR
STARTCHAR GREEK QUESTION MARK
ENCODING 894
SWIDTH 250 0
DWIDTH 8 0
BBX 6 18 0 -5
BITMAP
3C
3C
3C
3C
00
00
00
00
00
1C
1C
1C
1C
38
38
70
E0
40
ENDCHAR
STARTCHAR LATIN CAPITAL LETTER J
ENCODING 895
SWIDTH 406 0
DWIDTH 13 0
BBX 10 20 1 0
BITMAP
0FC0
0FC0
01C0
01C0
01C0
01C0
01C0
01C0
01C0
01C0
01C0
01C0
01C0
01C0
01C0
01C0
01C0
E380
FF80
3E00
ENDCHAR
STARTCHAR GREEK TONOS
ENCODING 900
SWIDTH 250 0
DWIDTH 8 0
BBX 5 4 2 16
BITMAP
38
70
E0
C0
ENDCHAR
STARTCHAR GREEK DIALYTIKA TONOS
ENCODING 901
SWIDTH 375 0
DWIDTH 12 0
BBX 9 9 2 16
BITMAP
0700
0E00
1C00
1800
0000
0000
E380
E380
E380
ENDCHAR
STARTCHAR GREEK CAPITAL LETTER ALPHA WITH TONOS
ENCODING 902
SWIDTH 687 0
DWIDTH 22 0
BBX 20 20 1 0
BITMAP
387C00
707C00
E07C00
C0EE00
00EE00
00EE00
01C700
01C700
01C700
038380
038380
038380
0701C0
07FFC0
07FFC0
0E00E0
0E00E0
0E00E0
1C0070
1C0070
ENDCHAR
STARTCHAR GREEK ANO TELEIA
ENCODING 903
SWIDTH 250 0
DWIDTH 8 0
BBX 3 3 3 6
BITMAP
E0
E0
E0
ENDCHAR
STARTCHAR GREEK CAPITAL LETTER EPSILON WITH TONOS
ENCODING 904
SWIDTH 718 0
DWIDTH 23 0
BBX 21 20 1 0
BITMAP
39FFF8
71FFF8
E1C000
C1C000
01C000
01C000
01C000
01C000
01FF80
01FF80
01C000
01C000
01C000
01C000
01C000
01C000
01C000
01C000
01FFF8
01FFF8
ENDCHAR
STARTCHAR GREEK CAPITAL LETTER ETA WITH TONOS
ENCODING 905
SWIDTH 781 0
DWIDTH 25 0
BBX 22 20 1 0
BITMAP
39C01C
71C01C
E1C01C
C1C01C
01C01C
01C01C
01C01C
01C01C
01FFFC
01FFFC
01C01C
01C01C
01C01C
01C01C
01C01C
01C01C
01C01C
01C01C
01C01C
01C01C
ENDCHAR
STARTCHAR GREEK CAPITAL LETTER IOTA WITH TONOS
ENCODING 906
SWIDTH 531 0
DWIDTH 17 0
BBX 15 20 1 0
BITMAP
3BFE
73FE
E070
C070
0070
0070
0070
0070
0070
0070
0070
0070
0070
0070
0070
0070
0070
0070
03FE
03FE
ENDCHAR
STARTCHAR GREEK CAPITAL LETTER OMICRON WITH TONOS
ENCODING 908
SWIDTH 750 0
DWIDTH 24 0
BBX 21 20 1 0
BITMAP
383F00
70FFC0
E1E1E0
C38070
038070
070038
070038
070038
070038
070038
070038
070038
070038
070038
070038
038070
038070
01E1E0
00FFC0
003F00
ENDCHAR
STARTCHAR GREEK CAPITAL LETTER UPSILON WITH TONOS
ENCODING 910
SWIDTH 781 0
DWIDTH 25 0
BBX 23 20 1 0
BITMAP
3BC01E
71C01C
E1E03C
C0E038
00F078
007070
0078F0
0038E0
003DE0
001DC0
001FC0
000F80
000F80
000700
000700
000700
000700
000700
000700
000700
ENDCHAR
STARTCHAR GREEK CAPITAL LETTER OMEGA WITH TONOS
ENCODING 911
SWIDTH 781 0
DWIDTH 25 0
BBX 22 20 1 0
BITMAP
387FC0
71FFF0
E3C078
C38038
07001C
07001C
07001C
07001C
07001C
07001C
07001C
038038
03C078
01F1F0
0071C0
0071C0
0071C0
0071C0
07F1FC
07F1FC
ENDCHAR
STARTCHAR GREEK SMALL LETTER IOTA WITH DIALYTIKA AND TONOS
ENCODING 912
SWIDTH 343 0
DWIDTH 11 0
BBX 10 25 0 0
BITMAP
0700
0E00
1C00
1800
0000
0000
E380
E380
E380
0000
0000
1C00
1C00
1C00
1C00
1C00
1C00
1C00
1C00
1C00
1C00
1C00
1E00
0FC0
07C0
ENDCHAR
STARTCHAR GREEK CAPITAL LETTER ALPHA
ENCODING 913
SWIDTH 593 0
DWIDTH 19 0
BBX 17 20 1 0
BITMAP
03E000
03E000
03E000
077000
077000
077000
0E3800
0E3800
0E3800
1C1C00
1C1C00
1C1C00
380E00
3FFE00
3FFE00
700700
700700
700700
E00380
E00380
ENDCHAR
STARTCHAR GREEK CAPITAL LETTER BETA
ENCODING 914
SWIDTH 562 0
DWIDTH 18 0
BBX 14 20 2 0
BITMAP
FFC0
FFF0
E070
E038
E038
E038
E038
E070
FFE0
FFF0
E038
E01C
E01C
E01C
E01C
E01C
E01C
E038
FFF8
FFE0
ENDCHAR
STARTCHAR GREEK CAPITAL LETTER GAMMA
ENCODING 915
SWIDTH 500 0
DWIDTH 16 0
BBX 14 20 2 0
BITMAP
FFFC
FFFC
E000
E000
E000
E000
E000
E000
E000
E000
E000
E000
E000
E000
E000
E000
E000
E000
E000
E000
ENDCHAR
STARTCHAR GREEK CAPITAL LETTER DELTA
ENCODING 916
SWIDTH 593 0
DWIDTH 19 0
BBX 17 20 1 0
BITMAP
03E000
03E000
03E000
077000
077000
077000
0E3800
0E3800
0E3800
1C1C00
1C1C00
1C1C00
380E00
380E00
380E00
700700
700700
700700
FFFF80
FFFF80
ENDCHAR
STARTCHAR GREEK CAPITAL LETTER EPSILON
ENCODING 917
SWIDTH 531 0
DWIDTH 17 0
BBX 14 20 2 0
BITMAP
FFFC
FFFC
E000
E000
E000
E000
E000
E000
FFC0
FFC0
E000
E000
E000
E000
E000
E000
E000
E000
FFFC
FFFC
ENDCHAR
STARTCHAR GREEK CAPITAL LETTER ZETA
ENCODING 918
SWIDTH 625 0
DWIDTH 20 0
BBX 16 20 2 0
BITMAP
FFFF
FFFF
0007
000F
001E
003C
0078
00F0
01E0
03C0
0780
0F00
1E00
3C00
7800
F000
E000
E000
FFFF
FFFF
ENDCHAR
STARTCHAR GREEK CAPITAL LETTER ETA
ENCODING 919
SWIDTH 593 0
DWIDTH 19 0
BBX 15 20 2 0
BITMAP
E00E
E00E
E00E
E00E
E00E
E00E
E00E
E00E
FFFE
FFFE
E00E
E00E
E00E
E00E
E00E
E00E
E00E
E00E
E00E
E00E
ENDCHAR
STARTCHAR GREEK CAPITAL LETTER THETA
ENCODING 920
SWIDTH 593 0
DWIDTH 19 0
BBX 16 20 2 0
BITMAP
07E0
1FF8
3C3C
700E
700E
E007
E007
E007
E007
E7E7
E7E7
E007
E007
E007
E007
700E
700E
3C3C
1FF8
07E0
ENDCHAR
STARTCHAR GREEK CAPITAL LETTER IOTA
ENCODING 921
SWIDTH 343 0
DWIDTH 11 0
BBX 9 20 1 0
BITMAP
FF80
FF80
1C00
1C00
1C00
1C00
1C00
1C00
1C00
1C00
1C00
1C00
1C00
1C00
1C00
1C00
1C00
1C00
FF80
FF80
ENDCHAR
STARTCHAR GREEK CAPITAL LETTER KAPPA
ENCODING 922
SWIDTH 625 0
DWIDTH 20 0
BBX 17 20 2 0
BITMAP
E00780
E00F80
E01E00
E03C00
E07800
E0F000
E1E000
E3C000
E78000
FF0000
FF0000
E78000
E3C000
E1E000
E0F000
E07800
E03C00
E01E00
E00F00
E00780
ENDCHAR
STARTCHAR GREEK CAPITAL LETTER LAMDA
ENCODING 923
SWIDTH 593 0
DWIDTH 19 0
BBX 17 20 1 0
BITMAP
03E000
03E000
03E000
077000
077000
077000
0E3800
0E3800
0E3800
1C1C00
1C1C00
1C1C00
380E00
380E00
380E00
700700
700700
700700
E00380
E00380
ENDCHAR
STARTCHAR GREEK CAPITAL LETTER MU
ENCODING 924
SWIDTH 781 0
DWIDTH 25 0
BBX 21 20 2 0
BITMAP
F00078
F00078
F800F8
F800F8
FC01F8
FC01F8
FE03F8
EE03B8
EF07B8
E70738
E78F38
E38E38
E3DE38
E1DC38
E1FC38
E0F838
E0F838
E07038
E07038
E00038
ENDCHAR
STARTCHAR GREEK CAPITAL LETTER NU
ENCODING 925
SWIDTH 625 0
DWIDTH 20 0
BBX 16 20 2 0
BITMAP
E007
E007
E007
F007
F807
FC07
FE07
EF07
E787
E3C7
E1E7
E0F7
E07F
E03F
E01F
E00F
E007
E007
E007
E007
ENDCHAR
STARTCHAR GREEK CAPITAL LETTER XI
ENCODING 926
SWIDTH 562 0
DWIDTH 18 0
BBX 16 20 1 0
BITMAP
FFFF
FFFF
0000
0000
0000
0000
0000
0000
0000
3FFC
3FFC
0000
0000
0000
0000
0000
0000
0000
FFFF
FFFF
ENDCHAR
STARTCHAR GREEK CAPITAL LETTER OMICRON
ENCODING 927
SWIDTH 625 0
DWIDTH 20 0
BBX 16 20 2 0
BITMAP
07E0
1FF8
3C3C
700E
700E
E007
E007
E007
E007
E007
E007
E007
E007
E007
E007
700E
700E
3C3C
1FF8
07E0
ENDCHAR
STARTCHAR GREEK CAPITAL LETTER PI
ENCODING 928
SWIDTH 625 0
DWIDTH 20 0
BBX 16 20 2 0
BITMAP
FFFF
FFFF
E007
E007
E007
E007
E007
E007
E007
E007
E007
E007
E007
E007
E007
E007
E007
E007
E007
E007
ENDCHAR
STARTCHAR GREEK CAPITAL LETTER RHO
ENCODING 929
SWIDTH 562 0
DWIDTH 18 0
BBX 15 20 2 0
BITMAP
FFF0
FFFC
E01C
E00E
E00E
E00E
E00E
E00E
E00E
E01C
FFFC
FFF0
E000
E000
E000
E000
E000
E000
E000
E000
ENDCHAR
STARTCHAR GREEK CAPITAL LETTER SIGMA
ENCODING 931
SWIDTH 625 0
DWIDTH 20 0
BBX 18 20 1 0
BITMAP
FFFFC0
FFFFC0
780000
3C0000
1E0000
0F0000
078000
03C000
01E000
00F000
00F000
01E000
03C000
078000
0F0000
1E0000
3C0000
780000
FFFFC0
FFFFC0
ENDCHAR
STARTCHAR GREEK CAPITAL LETTER TAU
ENCODING 932
SWIDTH 625 0
DWIDTH 20 0
BBX 19 20 1 0
BITMAP
FFFFE0
FFFFE0
00E000
00E000
00E000
00E000
00E000
00E000
00E000
00E000
00E000
00E000
00E000
00E000
00E000
00E000
00E000
00E000
00E000
00E000
ENDCHAR
STARTCHAR GREEK CAPITAL LETTER UPSILON
ENCODING 933
SWIDTH 593 0
DWIDTH 19 0
BBX 17 20 1 0
BITMAP
F00780
700700
780F00
380E00
3C1E00
1C1C00
1E3C00
0E3800
0F7800
077000
07F000
03E000
03E000
01C000
01C000
01C000
01C000
01C000
01C000
01C000
ENDCHAR
STARTCHAR GREEK CAPITAL LETTER PHI
ENCODING 934
SWIDTH 718 0
DWIDTH 23 0
BBX 21 20 1 0
BITMAP
007000
007000
007000
0FFF80
3FFFE0
7870F0
707070
E07038
E07038
E07038
E07038
E07038
E07038
707070
7870F0
3FFFE0
0FFF80
007000
007000
007000
ENDCHAR
STARTCHAR GREEK CAPITAL LETTER CHI
ENCODING 935
SWIDTH 593 0
DWIDTH 19 0
BBX 17 20 1 0
BITMAP
F00780
700700
780F00
3C1E00
1C1C00
1E3C00
0F7800
077000
07F000
03E000
03E000
07F000
077000
0F7800
1E3C00
1C1C00
3C1E00
780F00
700700
F00780
ENDCHAR
STARTCHAR GREEK CAPITAL LETTER PSI
ENCODING 936
SWIDTH 718 0
DWIDTH 23 0
BBX 21 20 1 0
BITMAP
E07038
E07038
E07038
E07038
E07038
E07038
E07038
E07038
E07038
707070
7870F0
3FFFE0
0FFF80
007000
007000
007000
007000
007000
007000
007000
ENDCHAR
STARTCHAR GREEK CAPITAL LETTER OMEGA
ENCODING 937
SWIDTH 656 0
DWIDTH 21 0
BBX 17 20 2 0
BITMAP
0FF800
3FFE00
780F00
700700
E00380
E00380
E00380
E00380
E00380
E00380
E00380
700700
780F00
3E3E00
0E3800
0E3800
0E3800
0E3800
FE3F80
FE3F80
ENDCHAR
STARTCHAR GREEK CAPITAL LETTER IOTA WITH DIALYTIKA
ENCODING 938
SWIDTH 343 0
DWIDTH 11 0
BBX 9 25 1 0
BITMAP
E380
E380
E380
0000
0000
FF80
FF80
1C00
1C00
1C00
1C00
1C00
1C00
1C00
1C00
1C00
1C00
1C00
1C00
1C00
1C00
1C00
1C00
FF80
FF80
ENDCHAR
STARTCHAR GREEK CAPITAL LETTER UPSILON WITH DIALYTIKA
ENCODING 939
SWIDTH 625 0
DWIDTH 20 0
BBX 19 26 1 0
BITMAP
071C00
071C00
071C00
000000
000000
000000
E000E0
F001E0
7803C0
3C0780
1E0F00
0F1E00
07BC00
03F800
01F000
00E000
00E000
00E000
00E000
00E000
00E000
00E000
00E000
00E000
00E000
00E000
ENDCHAR
STARTCHAR GREEK SMALL LETTER ALPHA WITH TONOS
ENCODING 940
SWIDTH 500 0
DWIDTH 16 0
BBX 12 20 2 0
BITMAP
01C0
0380
0700
0600
0000
0000
1F70
7FF0
70F0
E070
E070
E070
E070
E070
E070
E070
E070
70F0
7FF0
1F70
ENDCHAR
STARTCHAR GREEK SMALL LETTER EPSILON WITH TONOS
ENCODING 941
SWIDTH 437 0
DWIDTH 14 0
BBX 11 20 2 0
BITMAP
0380
0700
0E00
0C00
0000
0000
3F80
7FE0
F0E0
E000
E000
7000
3F00
7F00
F000
E000
E000
F0E0
7FE0
3F80
ENDCHAR
STARTCHAR GREEK SMALL LETTER ETA WITH TONOS
ENCODING 942
SWIDTH 500 0
DWIDTH 16 0
BBX 12 26 2 -6
BITMAP
01C0
0380
0700
0600
0000
0000
EF80
FFE0
F0E0
E070
E070
E070
E070
E070
E070
E070
E070
E070
E070
E070
0070
0070
0070
0070
0070
0070
ENDCHAR
STARTCHAR GREEK SMALL LETTER IOTA WITH TONOS
ENCODING 943
SWIDTH 312 0
DWIDTH 10 0
BBX 7 20 2 0
BITMAP
38
70
E0
C0
00
00
E0
E0
E0
E0
E0
E0
E0
E0
E0
E0
E0
F0
7E
3E
ENDCHAR
STARTCHAR GREEK SMALL LETTER UPSILON WITH DIALYTIKA AND TONOS
ENCODING 944
SWIDTH 500 0
DWIDTH 16 0
BBX 12 25 2 0
BITMAP
0380
0700
0E00
0C00
0000
0000
71C0
71C0
71C0
0000
0000
E1C0
E1E0
E0E0
E0F0
E070
E070
E070
E070
E070
E070
E0E0
71E0
7FC0
1F00
ENDCHAR
STARTCHAR GREEK SMALL LETTER ALPHA
ENCODING 945
SWIDTH 500 0
DWIDTH 16 0
BBX 12 14 2 0
BITMAP
1F70
7FF0
70F0
E070
E070
E070
E070
E070
E070
E070
E070
70F0
7FF0
1F70
ENDCHAR
STARTCHAR GREEK SMALL LETTER BETA
ENCODING 946
SWIDTH 500 0
DWIDTH 16 0
BBX 12 26 2 -6
BITMAP
1F00
7FC0
71C0
E0E0
E0E0
E0E0
E1C0
E780
E7E0
E0E0
E070
E070
E070
E070
E070
E070
E070
E0E0
FFE0
FF80
E000
E000
E000
E000
E000
E000
ENDCHAR
STARTCHAR GREEK SMALL LETTER GAMMA
ENCODING 947
SWIDTH 531 0
DWIDTH 17 0
BBX 15 20 1 -6
BITMAP
E00E
E00E
F01E
701C
783C
3838
3C78
1C70
1EF0
0EE0
0FE0
07C0
07C0
0380
0380
0380
0380
0380
0380
0380
ENDCHAR
STARTCHAR GREEK SMALL LETTER DELTA
ENCODING 948
SWIDTH 500 0
DWIDTH 16 0
BBX 12 20 2 0
BITMAP
1FE0
7FE0
7000
E000
E000
7000
3F80
7FE0
70E0
E070
E070
E070
E070
E070
E070
E070
E070
70E0
7FE0
1F80
ENDCHAR
STARTCHAR GREEK SMALL LETTER EPSILON
ENCODING 949
SWIDTH 437 0
DWIDTH 14 0
BBX 11 14 2 0
BITMAP
3F80
7FE0
F0E0
E000
E000
7000
3F00
7F00
F000
E000
E000
F0E0
7FE0
3F80
ENDCHAR
STARTCHAR GREEK SMALL LETTER ZETA
ENCODING 950
SWIDTH 437 0
DWIDTH 14 0
BBX 11 26 2 -6
BITMAP
FFE0
FFE0
0780
0F00
1E00
3C00
7800
7000
F000
E000
E000
E000
E000
E000
E000
E000
E000
F000
7F80
3FC0
01E0
00E0
00E0
01E0
07C0
0780
ENDCHAR
STARTCHAR GREEK SMALL LETTER ETA
ENCODING 951
SWIDTH 500 0
DWIDTH 16 0
BBX 12 20 2 -6
BITMAP
EF80
FFE0
F0E0
E070
E070
E070
E070
E070
E070
E070
E070
E070
E070
E070
0070
0070
0070
0070
0070
0070
ENDCHAR
STARTCHAR GREEK SMALL LETTER THETA
ENCODING 952
SWIDTH 500 0
DWIDTH 16 0
BBX 12 20 2 0
BITMAP
0F00
3FC0
39C0
70E0
70E0
F0F0
E070
E070
E070
FFF0
FFF0
E070
E070
E070
F0F0
70E0
70E0
39C0
3FC0
0F00
ENDCHAR
STARTCHAR GREEK SMALL LETTER IOTA
ENCODING 953
SWIDTH 312 0
DWIDTH 10 0
BBX 7 14 2 0
BITMAP
E0
E0
E0
E0
E0
E0
E0
E0
E0
E0
E0
F0
7E
3E
ENDCHAR
STARTCHAR GREEK SMALL LETTER KAPPA
ENCODING 954
SWIDTH 500 0
DWIDTH 16 0
BBX 13 14 2 0
BITMAP
E078
E0F8
E1E0
E3C0
E780
EF00
FE00
FF00
E780
E3C0
E1E0
E0F0
E078
E038
ENDCHAR
STARTCHAR GREEK SMALL LETTER LAMDA
ENCODING 955
SWIDTH 531 0
DWIDTH 17 0
BBX 15 20 1 0
BITMAP
7800
7C00
1E00
0F00
0700
0780
0380
07C0
07C0
0FE0
0EE0
1EF0
1C70
3C78
3838
783C
701C
F01E
E00E
E00E
ENDCHAR
STARTCHAR GREEK SMALL LETTER MU
ENCODING 956
SWIDTH 531 0
DWIDTH 17 0
BBX 14 20 2 -6
BITMAP
E070
E070
E070
E070
E070
E070
E070
E070
E070
E070
E070
F0F8
FFFC
EF8C
E000
E000
E000
E000
E000
E000
ENDCHAR
STARTCHAR GREEK SMALL LETTER NU
ENCODING 957
SWIDTH 531 0
DWIDTH 17 0
BBX 14 14 1 0
BITMAP
E01C
F01C
701C
783C
3838
3C38
1C78
1E70
0EF0
0FE0
07E0
07C0
03C0
0380
ENDCHAR
STARTCHAR GREEK SMALL LETTER XI
ENCODING 958
SWIDTH 437 0
DWIDTH 14 0
BBX 11 26 2 -6
BITMAP
1FE0
7FE0
7000
E000
E000
E000
E000
F000
7F00
3F00
7000
E000
E000
E000
E000
E000
E000
F000
7F80
3FC0
01E0
00E0
00E0
01E0
07C0
0780
ENDCHAR
STARTCHAR GREEK SMALL LETTER OMICRON
ENCODING 959
SWIDTH 500 0
DWIDTH 16 0
BBX 12 14 2 0
BITMAP
1F80
7FE0
70E0
E070
E070
E070
E070
E070
E070
E070
E070
70E0
7FE0
1F80
ENDCHAR
STARTCHAR GREEK SMALL LETTER PI
ENCODING 960
SWIDTH 500 0
DWIDTH 16 0
BBX 12 14 2 0
BITMAP
FFF0
FFF0
E070
E070
E070
E070
E070
E070
E070
E070
E070
E070
E070
E070
ENDCHAR
STARTCHAR GREEK SMALL LETTER RHO
ENCODING 961
SWIDTH 500 0
DWIDTH 16 0
BBX 12 20 2 -6
BITMAP
1F80
7FE0
70E0
E070
E070
E070
E070
E070
E070
E070
E070
F0E0
FFE0
EF80
E000
E000
E000
E000
E000
E000
ENDCHAR
STARTCHAR GREEK SMALL LETTER FINAL SIGMA
ENCODING 962
SWIDTH 437 0
DWIDTH 14 0
BBX 11 20 2 -6
BITMAP
1F80
7FE0
70E0
E000
E000
E000
E000
E000
E000
E000
E000
F000
7F80
3FC0
01E0
00E0
00E0
01E0
0FC0
0F80
ENDCHAR
STARTCHAR GREEK SMALL LETTER SIGMA
ENCODING 963
SWIDTH 500 0
DWIDTH 16 0
BBX 13 14 2 0
BITMAP
0FF8
7FF8
70E0
E070
E070
E070
E070
E070
E070
E070
E070
70E0
7FE0
1F80
ENDCHAR
STARTCHAR GREEK SMALL LETTER TAU
ENCODING 964
SWIDTH 468 0
DWIDTH 15 0
BBX 14 14 1 0
BITMAP
FFFC
FFFC
0700
0700
0700
0700
0700
0700
0700
0700
0700
0700
07C0
03C0
ENDCHAR
STARTCHAR GREEK SMALL LETTER UPSILON
ENCODING 965
SWIDTH 500 0
DWIDTH 16 0
BBX 12 14 2 0
BITMAP
E1C0
E1E0
E0E0
E0F0
E070
E070
E070
E070
E070
E070
E0E0
71E0
7FC0
1F00
ENDCHAR
STARTCHAR GREEK SMALL LETTER PHI
ENCODING 966
SWIDTH 656 0
DWIDTH 21 0
BBX 17 20 2 -6
BITMAP
187C00
78FF00
71C700
E1C380
E1C380
E1C380
E1C380
E1C380
E1C380
E1C380
71C700
79CF00
3FFE00
0FF800
01C000
01C000
01C000
01C000
01C000
01C000
ENDCHAR
STARTCHAR GREEK SMALL LETTER CHI
ENCODING 967
SWIDTH 500 0
DWIDTH 16 0
BBX 13 20 1 -6
BITMAP
E038
F078
7070
38F0
38E0
1DE0
1DC0
0FC0
0F80
0780
0F00
0F80
1F80
1DC0
3DC0
38E0
78E0
7070
F078
E038
ENDCHAR
STARTCHAR GREEK SMALL LETTER PSI
ENCODING 968
SWIDTH 656 0
DWIDTH 21 0
BBX 17 26 2 -6
BITMAP
01C000
01C000
01C000
01C000
01C000
01C000
E1C600
E1C700
E1C700
E1C380
E1C380
E1C380
E1C380
E1C380
E1C380
E1C380
71C700
79CF00
3FFE00
0FF800
01C000
01C000
01C000
01C000
01C000
01C000
ENDCHAR
STARTCHAR GREEK SMALL LETTER OMEGA
ENCODING 969
SWIDTH 656 0
DWIDTH 21 0
BBX 17 14 2 0
BITMAP
380E00
780F00
700700
E00380
E00380
E1C380
E1C380
E1C380
E1C380
E1C380
E1C380
73E700
7F7F00
1E3C00
ENDCHAR
STARTCHAR GREEK SMALL LETTER IOTA WITH DIALYTIKA
ENCODING 970
SWIDTH 343 0
DWIDTH 11 0
BBX 10 19 0 0
BITMAP
E380
E380
E380
0000
0000
1C00
1C00
1C00
1C00
1C00
1C00
1C00
1C00
1C00
1C00
1C00
1E00
0FC0
07C0
ENDCHAR
STARTCHAR GREEK SMALL LETTER UPSILON WITH DIALYTIKA
ENCODING 971
SWIDTH 500 0
DWIDTH 16 0
BBX 12 19 2 0
BITMAP
71C0
71C0
71C0
0000
0000
E1C0
E1E0
E0E0
E0F0
E070
E070
E070
E070
E070
E070
E0E0
71E0
7FC0
1F00
ENDCHAR
STARTCHAR GREEK SMALL LETTER OMICRON WITH TONOS
ENCODING 972
SWIDTH 500 0
DWIDTH 16 0
BBX 12 20 2 0
BITMAP
01C0
0380
0700
0600
0000
0000
1F80
7FE0
70E0
E070
E070
E070
E070
E070
E070
E070
E070
70E0
7FE0
1F80
ENDCHAR
STARTCHAR GREEK SMALL LETTER UPSILON WITH TONOS
ENCODING 973
SWIDTH 500 0
DWIDTH 16 0
BBX 12 20 2 0
BITMAP
0380
0700
0E00
0C00
0000
0000
E1C0
E1E0
E0E0
E0F0
E070
E070
E070
E070
E070
E070
E0E0
71E0
7FC0
1F00
ENDCHAR
STARTCHAR GREEK SMALL LETTER OMEGA WITH TONOS
ENCODING 974
SWIDTH 656 0
DWIDTH 21 0
BBX 17 20 2 0
BITMAP
007000
00E000
01C000
018000
000000
000000
380E00
780F00
700700
E00380
E00380
E1C380
E1C380
E1C380
E1C380
E1C380
F1C380
73E700
7F7F00
1E3C00
ENDCHAR
STARTCHAR GREEK CAPITAL KAI SYMBOL
ENCODING 975
SWIDTH 625 0
DWIDTH 20 0
BBX 17 26 2 -6
BITMAP
E00780
E00F80
E01E00
E03C00
E07800
E0F000
E1E000
E3C000
E78000
FF0000
FF0000
E78000
E3C000
E1E000
E0F000
E07800
E03C00
E01E00
E00F00
E00780
000F00
001E00
003C00
007800
00F000
006000
ENDCHAR
STARTCHAR GREEK BETA SYMBOL
ENCODING 976
SWIDTH 500 0
DWIDTH 16 0
BBX 12 20 2 0
BITMAP
1F00
7FC0
71C0
E0E0
E0E0
E0E0
E1C0
E780
E7E0
E0E0
E070
E070
E070
E070
E070
E070
E070
70E0
7FE0
1F80
ENDCHAR
STARTCHAR GREEK THETA SYMBOL
ENCODING 977
SWIDTH 500 0
DWIDTH 16 0
BBX 13 20 1 0
BITMAP
0FC0
3FF0
3870
7038
7038
7038
7038
3838
3FF8
0FF8
0038
E038
F038
7038
7038
7038
7038
3870
3FF0
0FC0
ENDCHAR
STARTCHAR GREEK UPSILON WITH HOOK SYMBOL
ENCODING 978
SWIDTH 625 0
DWIDTH 20 0
BBX 19 20 1 0
BITMAP
F01F80
FC7FC0
1EF1E0
06C0E0
07C0E0
0380E0
038000
038000
038000
038000
038000
038000
038000
038000
038000
038000
038000
038000
038000
038000
ENDCHAR
STARTCHAR GREEK UPSILON WITH ACUTE AND HOOK SYMBOL
ENCODING 979
SWIDTH 781 0
DWIDTH 25 0
BBX 24 20 1 0
BITMAP
3B80FC
73E3FE
E0F78F
C03607
003E07
001C07
001C00
001C00
001C00
001C00
001C00
001C00
001C00
001C00
001C00
001C00
001C00
001C00
001C00
001C00
ENDCHAR
STARTCHAR GREEK UPSILON WITH DIAERESIS AND HOOK SYMBOL
ENCODING 980
SWIDTH 625 0
DWIDTH 20 0
BBX 19 26 1 0
BITMAP
1C7000
1C7000
1C7000
000000
000000
000000
F01F80
FC7FC0
1EF1E0
06C0E0
07C0E0
0380E0
038000
038000
038000
038000
038000
038000
038000
038000
038000
038000
038000
038000
038000
038000
ENDCHAR
STARTCHAR GREEK PHI SYMBOL
ENCODING 981
SWIDTH 656 0
DWIDTH 21 0
BBX 17 26 2 -6
BITMAP
01C000
01C000
01C000
01C000
01C000
01C000
1FFC00
7FFF00
71C700
E1C380
E1C380
E1C380
E1C380
E1C380
E1C380
E1C380
E1C380
71C700
7FFF00
1FFC00
01C000
01C000
01C000
01C000
01C000
01C000
ENDCHAR
STARTCHAR GREEK PI SYMBOL
ENCODING 982
SWIDTH 656 0
DWIDTH 21 0
BBX 17 14 2 0
BITMAP
FFFF80
FFFF80
700700
600300
E00380
E1C380
E1C380
E1C380
E1C380
E1C380
E1C380
73E700
7F7F00
1E3C00
ENDCHAR
STARTCHAR GREEK KAI SYMBOL
ENCODING 983
SWIDTH 625 0
DWIDTH 20 0
BBX 17 19 2 -5
BITMAP
F80700
FC0F80
1C1F80
0E1B00
0E3F00
0E3E00
0FF800
0FF800
3E3800
7E3800
6C3800
FC3C00
F81F80
700F80
000380
000380
000700
003F00
003C00
ENDCHAR
STARTCHAR GREEK LETTER ARCHAIC KOPPA
ENCODING 984
SWIDTH 625 0
DWIDTH 20 0
BBX 16 24 2 -4
BITMAP
07E0
1FF8
3C3C
700E
700E
E007
E007
E007
E007
E007
E007
E007
E007
E007
E007
700E
700E
3C3C
1FF8
07E0
01C0
01C0
01C0
01C0
ENDCHAR
STARTCHAR GREEK SMALL LETTER ARCHAIC KOPPA
ENCODING 985
SWIDTH 500 0
DWIDTH 16 0
BBX 12 18 2 -4
BITMAP
1F80
7FE0
70E0
E070
E070
E070
E070
E070
E070
E070
E070
70E0
7FE0
1F80
0700
0700
0700
0700
ENDCHAR
STARTCHAR GREEK LETTER STIGMA
ENCODING 986
SWIDTH 625 0
DWIDTH 20 0
BBX 18 27 2 -6
BITMAP
0001C0
0FFFC0
3FFF00
780000
700000
E00000
E00000
E00000
E00000
E00000
E00000
E00000
E00000
E00000
E00000
E00000
E00000
E00000
F00000
7FF000
3FF800
003C00
001C00
001C00
003C00
01F800
01F000
ENDCHAR
STARTCHAR GREEK SMALL LETTER STIGMA
ENCODING 987
SWIDTH 531 0
DWIDTH 17 0
BBX 14 21 2 -6
BITMAP
001C
1FFC
7FF0
7000
E000
E000
E000
E000
E000
E000
E000
E000
F000
7F80
3FC0
01E0
00E0
00E0
01E0
0FC0
0F80
ENDCHAR
STARTCHAR GREEK LETTER DIGAMMA
ENCODING 988
SWIDTH 500 0
DWIDTH 16 0
BBX 14 20 2 0
BITMAP
FFFC
FFFC
E000
E000
E000
E000
E000
E000
FFC0
FFC0
E000
E000
E000
E000
E000
E000
E000
E000
E000
E000
ENDCHAR
STARTCHAR GREEK SMALL LETTER DIGAMMA
ENCODING 989
SWIDTH 437 0
DWIDTH 14 0
BBX 14 26 0 -6
BITMAP
00FC
03FC
0380
0700
0700
0700
07F8
07F8
0700
0700
0700
0700
0700
0700
0700
0700
0700
0700
0700
0700
0700
0700
0700
0E00
FE00
F800
ENDCHAR
STARTCHAR GREEK LETTER KOPPA
ENCODING 990
SWIDTH 593 0
DWIDTH 19 0
BBX 15 20 2 0
BITMAP
F800
FC00
0E00
0E00
0E00
0E00
1C0E
1C3E
38FC
3BFC
7FB8
7E38
F870
E070
00E0
00E0
00E0
00E0
007E
003E
ENDCHAR
STARTCHAR GREEK SMALL LETTER KOPPA
ENCODING 991
SWIDTH 500 0
DWIDTH 16 0
BBX 12 20 2 0
BITMAP
0E00
0E00
1E00
1C00
3C00
3800
7800
7000
F000
FFF0
FFF0
00F0
00E0
01E0
01C0
03C0
0380
0780
0700
0700
ENDCHAR
STARTCHAR GREEK LETTER SAMPI
ENCODING 992
SWIDTH 625 0
DWIDTH 20 0
BBX 17 26 1 -6
BITMAP
0FF000
3FFC00
F81E00
E01F00
003F00
007780
00E380
01C780
038F80
071F80
0E3B80
1C7380
38E380
71C380
E38780
470700
0E0700
040F00
000E00
001E00
001C00
003C00
003800
007800
00F000
00E000
ENDCHAR
STARTCHAR GREEK SMALL LETTER SAMPI
ENCODING 993
SWIDTH 500 0
DWIDTH 16 0
BBX 15 20 0 -6
BITMAP
7800
7E00
0F80
03C0
01E0
00F0
01F8
03B8
073C
0E7C
1CFC
39DE
738E
E70E
000E
000E
000E
000E
000E
000E
ENDCHAR
STARTCHAR COPTIC CAPITAL LETTER SHEI
ENCODING 994
SWIDTH 781 0
DWIDTH 25 0
BBX 21 25 2 -5
BITMAP
0E0380
1E03C0
3C01E0
7800F0
700070
F00078
E00038
E00038
E00038
E00038
E07038
E07038
E07038
E07038
E07038
E07038
E07038
70F878
7FFFF8
1F8FF8
000070
0000F0
0001E0
000FC0
000F00
ENDCHAR
STARTCHAR COPTIC SMALL LETTER SHEI
ENCODING 995
SWIDTH 656 0
DWIDTH 21 0
BBX 17 19 2 -5
BITMAP
380E00
780F00
700700
E00380
E00380
E1C380
E1C380
E1C380
E1C380
E1C380
E1C380
73E780
7F7F80
1E3F80
000300
000700
000E00
00FC00
00F000
ENDCHAR
STARTCHAR COPTIC CAPITAL LETTER FEI
ENCODING 996
SWIDTH 625 0
DWIDTH 20 0
BBX 16 26 2 -6
BITMAP
0E07
1E07
3C07
3807
7807
7007
F007
E007
E007
E007
E007
E007
E007
E007
E007
E00F
701F
787F
3FF7
0FC7
0007
0007
0007
0007
0007
0007
ENDCHAR
STARTCHAR COPTIC SMALL LETTER FEI
ENCODING 997
SWIDTH 500 0
DWIDTH 16 0
BBX 12 20 2 -6
BITMAP
3870
7870
7070
F070
E070
E070
E070
E070
E070
E070
E070
70F0
7FF0
1F70
0070
0070
0070
0070
0070
0070
ENDCHAR
STARTCHAR COPTIC CAPITAL LETTER KHEI
ENCODING 998
SWIDTH 625 0
DWIDTH 20 0
BBX 16 26 2 -6
BITMAP
E000
E000
E000
E000
E000
E000
EFF0
FFFC
F81E
E00E
E00F
E007
E007
E007
E007
E007
E007
E00F
E00E
E00E
001C
003C
0078
01F0
FFC0
FF00
ENDCHAR
STARTCHAR COPTIC SMALL LETTER KHEI
ENCODING 999
SWIDTH 468 0
DWIDTH 15 0
BBX 11 14 2 0
BITMAP
3EE0
7FE0
F3C0
E1C0
F3C0
7FE0
3EE0
00E0
00E0
00E0
00E0
01C0
FFC0
FF00
ENDCHAR
STARTCHAR COPTIC CAPITAL LETTER HORI
ENCODING 1000
SWIDTH 625 0
DWIDTH 20 0
BBX 17 24 1 -4
BITMAP
1FF800
7FFE00
F00F00
E00700
000380
000380
000380
000380
000380
000380
000780
000700
000F00
001E00
007C00
03F000
1FC000
7E0000
F80000
FC0000
1E0380
0F8780
03FF00
00FE00
ENDCHAR
STARTCHAR COPTIC SMALL LETTER HORI
ENCODING 1001
SWIDTH 468 0
DWIDTH 15 0
BBX 12 18 1 -4
BITMAP
1F80
7FE0
F0E0
E070
0070
0070
0070
00F0
01E0
07E0
1F80
7E00
F800
F000
7870
3CF0
1FE0
07C0
ENDCHAR
STARTCHAR COPTIC CAPITAL LETTER GANGIA
ENCODING 1002
SWIDTH 593 0
DWIDTH 19 0
BBX 17 20 1 0
BITMAP
F00780
F80F80
3C1E00
1E3C00
0E3800
077000
07F000
03E000
03E000
01C000
03E000
03E000
077000
077000
0E3800
1E3C00
1C1C00
380E00
7FFF00
7FFF00
ENDCHAR
STARTCHAR COPTIC SMALL LETTER GANGIA
ENCODING 1003
SWIDTH 468 0
DWIDTH 15 0
BBX 13 14 1 0
BITMAP
F078
F8F8
1DC0
0F80
0F80
0700
0F80
0F80
1DC0
1DC0
38E0
38E0
FFF8
FFF8
ENDCHAR
STARTCHAR COPTIC CAPITAL LETTER SHIMA
ENCODING 1004
SWIDTH 625 0
DWIDTH 20 0
BBX 16 21 2 0
BITMAP
0007
07FF
1FFC
3C00
7000
77E0
FFF8
FC3C
F00E
F00E
E007
E007
E007
E007
E007
E007
700E
700E
3C3C
1FF8
07E0
ENDCHAR
STARTCHAR COPTIC SMALL LETTER SHIMA
ENCODING 1005
SWIDTH 531 0
DWIDTH 17 0
BBX 13 21 2 0
BITMAP
0038
1FF8
7FF0
7000
E000
E000
E000
EFC0
FFF0
F070
E038
E038
E038
E038
E038
E038
E038
E038
7070
7FF0
1FC0
ENDCHAR
STARTCHAR COPTIC CAPITAL LETTER DEI
ENCODING 1006
SWIDTH 593 0
DWIDTH 19 0
BBX 17 20 1 0
BITMAP
01C000
01C000
FFFF80
FFFF80
E1C380
E1C380
01C000
01C000
01C000
01C000
01C000
01C000
01C000
01C000
01C000
01C000
01C000
01C000
01C000
01C000
ENDCHAR
STARTCHAR COPTIC SMALL LETTER DEI
ENCODING 1007
SWIDTH 593 0
DWIDTH 19 0
BBX 15 26 2 -6
BITMAP
0380
0380
0380
0380
0380
0380
FFFE
FFFE
E38E
E38E
E38E
E38E
0380
0380
0380
0380
0380
0380
0380
0380
0380
0380
0380
0380
0380
0380
ENDCHAR
STARTCHAR GREEK KAPPA SYMBOL
ENCODING 1008
SWIDTH 500 0
DWIDTH 16 0
BBX 14 14 1 0
BITMAP
F018
F83C
387C
1C78
1CF0
1DE0
1FE0
1FE0
1EE0
3CE0
78E0
F870
F07C
603C
ENDCHAR
STARTCHAR GREEK RHO SYMBOL
ENCODING 1009
SWIDTH 500 0
DWIDTH 16 0
BBX 12 20 2 -6
BITMAP
1F80
7FE0
70E0
E070
E070
E070
E070
E070
E070
E070
E070
F0E0
FFE0
EF80
E000
E000
E000
7000
7FC0
1FC0
ENDCHAR
STARTCHAR GREEK LUNATE SIGMA SYMBOL
ENCODING 1010
SWIDTH 437 0
DWIDTH 14 0
BBX 11 14 2 0
BITMAP
1F80
7FE0
70E0
E000
E000
E000
E000
E000
E000
E000
E000
70E0
7FE0
1F80
ENDCHAR
STARTCHAR GREEK LETTER YOT
ENCODING 1011
SWIDTH 312 0
DWIDTH 10 0
BBX 8 25 0 -6
BITMAP
07
07
07
00
00
3F
3F
07
07
07
07
07
07
07
07
07
07
07
07
07
07
07
0E
FE
F8
ENDCHAR
STARTCHAR GREEK CAPITAL THETA SYMBOL
ENCODING 1012
SWIDTH 625 0
DWIDTH 20 0
BBX 16 20 2 0
BITMAP
07E0
1FF8
3C3C
700E
700E
E007
E007
E007
E007
FFFF
FFFF
E007
E007
E007
E007
700E
700E
3C3C
1FF8
07E0
ENDCHAR
STARTCHAR GREEK LUNATE EPSILON SYMBOL
ENCODING 1013
SWIDTH 437 0
DWIDTH 14 0
BBX 11 14 2 0
BITMAP
0FE0
3FE0
7800
7000
E000
E000
FF80
FF80
E000
E000
7000
7800
3FE0
0FE0
ENDCHAR
STARTCHAR GREEK REVERSED LUNATE EPSILON SYMBOL
ENCODING 1014
SWIDTH 437 0
DWIDTH 14 0
BBX 11 14 1 0
BITMAP
FE00
FF80
03C0
01C0
00E0
00E0
3FE0
3FE0
00E0
00E0
01C0
03C0
FF80
FE00
ENDCHAR
STARTCHAR GREEK CAPITAL LETTER SHO
ENCODING 1015
SWIDTH 531 0
DWIDTH 17 0
BBX 14 20 2 0
BITMAP
E000
E000
E000
E000
FFE0
FFF8
E038
E01C
E01C
E01C
E01C
E01C
E038
FFF8
FFE0
E000
E000
E000
E000
E000
ENDCHAR
STARTCHAR GREEK SMALL LETTER SHO
ENCODING 1016
SWIDTH 500 0
DWIDTH 16 0
BBX 12 26 2 -6
BITMAP
E000
E000
E000
E000
E000
E000
EF80
FFE0
F0E0
E070
E070
E070
E070
E070
E070
E070
E070
F0E0
FFE0
EF80
E000
E000
E000
E000
E000
E000
ENDCHAR
STARTCHAR GREEK CAPITAL LUNATE SIGMA SYMBOL
ENCODING 1017
SWIDTH 562 0
DWIDTH 18 0
BBX 15 20 2 0
BITMAP
03F8
0FFE
1F0E
3C00
7800
7000
F000
E000
E000
E000
E000
E000
E000
F000
7000
7800
3C00
1F0E
0FFE
03F8
ENDCHAR
STARTCHAR GREEK CAPITAL LETTER SAN
ENCODING 1018
SWIDTH 687 0
DWIDTH 22 0
BBX 18 20 2 0
BITMAP
E001C0
F003C0
F807C0
FC0FC0
FE1FC0
EF3DC0
E7F9C0
E3F1C0
E1E1C0
E0C1C0
E001C0
E001C0
E001C0
E001C0
E001C0
E001C0
E001C0
E001C0
E001C0
E001C0
ENDCHAR
STARTCHAR GREEK SMALL LETTER SAN
ENCODING 1019
SWIDTH 562 0
DWIDTH 18 0
BBX 14 20 2 -6
BITMAP
E01C
F03C
F87C
FCFC
FFFC
EFDC
E79C
E31C
E01C
E01C
E01C
E01C
E01C
E01C
E000
E000
E000
E000
E000
E000
ENDCHAR
STARTCHAR GREEK RHO WITH STROKE SYMBOL
ENCODING 1020
SWIDTH 500 0
DWIDTH 16 0
BBX 14 20 1 -6
BITMAP
0FC0
3FF0
3870
7038
7038
7038
7038
7038
7038
7038
7038
7870
7FF0
77C0
7000
7000
FFFC
FFFC
7000
7000
ENDCHAR
STARTCHAR GREEK CAPITAL REVERSED LUNATE SIGMA SYMBOL
ENCODING 1021
SWIDTH 531 0
DWIDTH 17 0
BBX 15 20 1 0
BITMAP
3F80
FFE0
E1F0
0078
003C
001C
001E
000E
000E
000E
000E
000E
000E
001E
001C
003C
0078
E1F0
FFE0
3F80
ENDCHAR
STARTCHAR GREEK CAPITAL DOTTED LUNATE SIGMA SYMBOL
ENCODING 1022
SWIDTH 531 0
DWIDTH 17 0
BBX 15 20 1 0
BITMAP
03F8
0FFE
1F0E
3C00
7800
7000
F000
E000
E070
E070
E070
E000
E000
F000
7000
7800
3C00
1F0E
0FFE
03F8
ENDCHAR
STARTCHAR GREEK CAPITAL REVERSED DOTTED LUNATE SIGMA SYMBOL
ENCODING 1023
SWIDTH 531 0
DWIDTH 17 0
BBX 15 20 1 0
BITMAP
3F80
FFE0
E1F0
0078
003C
001C
001E
000E
1C0E
1C0E
1C0E
000E
000E
001E
001C
003C
0078
E1F0
FFE0
3F80
ENDCHAR
STARTCHAR CYRILLIC CAPITAL LETTER IE WITH GRAVE
ENCODING 1024
SWIDTH 531 0
DWIDTH 17 0
BBX 14 26 2 0
BITMAP
0E00
0700
0380
0180
0000
0000
FFFC
FFFC
E000
E000
E000
E000
E000
E000
FFE0
FFE0
E000
E000
E000
E000
E000
E000
E000
E000
FFFC
FFFC
ENDCHAR
STARTCHAR CYRILLIC CAPITAL LETTER IO
ENCODING 1025
SWIDTH 531 0
DWIDTH 17 0
BBX 14 25 2 0
BITMAP
38E0
38E0
38E0
0000
0000
FFFC
FFFC
E000
E000
E000
E000
E000
E000
FFE0
FFE0
E000
E000
E000
E000
E000
E000
E000
E000
FFFC
FFFC
ENDCHAR
STARTCHAR CYRILLIC CAPITAL LETTER DJE
ENCODING 1026
SWIDTH 750 0
DWIDTH 24 0
BBX 22 26 0 -6
BITMAP
FFFF80
FFFF80
01C000
01C000
01C000
01C000
01C000
01C000
01FFC0
01FFF0
01C078
01C038
01C01C
01C01C
01C01C
01C01C
01C01C
01C01C
01C01C
01C01C
00001C
00001C
000038
000078
0007F0
0007C0
ENDCHAR
STARTCHAR CYRILLIC CAPITAL LETTER GJE
ENCODING 1027
SWIDTH 500 0
DWIDTH 16 0
BBX 14 26 2 0
BITMAP
01C0
0380
0700
0600
0000
0000
FFFC
FFFC
E000
E000
E000
E000
E000
E000
E000
E000
E000
E000
E000
E000
E000
E000
E000
E000
E000
E000
ENDCHAR
STARTCHAR CYRILLIC CAPITAL LETTER UKRAINIAN IE
ENCODING 1028
SWIDTH 562 0
DWIDTH 18 0
BBX 15 20 2 0
BITMAP
03F8
0FFE
1F0E
3C00
7800
7000
F000
E000
E000
FFE0
FFE0
E000
E000
F000
7000
7800
3C00
1F0E
0FFE
03F8
ENDCHAR
STARTCHAR CYRILLIC CAPITAL LETTER DZE
ENCODING 1029
SWIDTH 531 0
DWIDTH 17 0
BBX 15 20 1 0
BITMAP
1FF0
7FFC
701C
E000
E000
E000
E000
E000
7000
7FF0
1FFC
001C
000E
000E
000E
000E
000E
E01C
FFFC
3FF0
ENDCHAR
STARTCHAR CYRILLIC CAPITAL LETTER BYELORUSSIAN-UKRAINIAN I
ENCODING 1030
SWIDTH 343 0
DWIDTH 11 0
BBX 9 20 1 0
BITMAP
FF80
FF80
1C00
1C00
1C00
1C00
1C00
1C00
1C00
1C00
1C00
1C00
1C00
1C00
1C00
1C00
1C00
1C00
FF80
FF80
ENDCHAR
STARTCHAR CYRILLIC CAPITAL LETTER YI
ENCODING 1031
SWIDTH 343 0
DWIDTH 11 0
BBX 9 25 1 0
BITMAP
E380
E380
E380
0000
0000
FF80
FF80
1C00
1C00
1C00
1C00
1C00
1C00
1C00
1C00
1C00
1C00
1C00
1C00
1C00
1C00
1C00
1C00
FF80
FF80
ENDCHAR
STARTCHAR CYRILLIC CAPITAL LETTER JE
ENCODING 1032
SWIDTH 406 0
DWIDTH 13 0
BBX 10 20 1 0
BITMAP
0FC0
0FC0
01C0
01C0
01C0
01C0
01C0
01C0
01C0
01C0
01C0
01C0
01C0
01C0
01C0
01C0
01C0
E380
FF80
3E00
ENDCHAR
STARTCHAR CYRILLIC CAPITAL LETTER LJE
ENCODING 1033
SWIDTH 1000 0
DWIDTH 32 0
BBX 30 20 1 0
BITMAP
0FFFC000
0FFFC000
0E01C000
0E01C000
0E01C000
0E01C000
0E01C000
0E01C000
0E01FFE0
0E01FFF8
0E01C038
0E01C01C
0E01C01C
0E01C01C
0E01C01C
1E01C01C
1C01C01C
3C01C038
F801FFF8
F001FFE0
ENDCHAR
STARTCHAR CYRILLIC CAPITAL LETTER NJE
ENCODING 1034
SWIDTH 968 0
DWIDTH 31 0
BBX 27 20 3 0
BITMAP
E00E0000
E00E0000
E00E0000
E00E0000
E00E0000
E00E0000
E00E0000
E00E0000
FFFFFF00
FFFFFFC0
E00E01C0
E00E00E0
E00E00E0
E00E00E0
E00E00E0
E00E00E0
E00E00E0
E00E01C0
E00FFFC0
E00FFF00
ENDCHAR
STARTCHAR CYRILLIC CAPITAL LETTER TSHE
ENCODING 1035
SWIDTH 750 0
DWIDTH 24 0
BBX 22 20 0 0
BITMAP
FFFF80
FFFF80
01C000
01C000
01C000
01C000
01C000
01C000
01FFC0
01FFF0
01C078
01C038
01C01C
01C01C
01C01C
01C01C
01C01C
01C01C
01C01C
01C01C
ENDCHAR
STARTCHAR CYRILLIC CAPITAL LETTER KJE
ENCODING 1036
SWIDTH 625 0
DWIDTH 20 0
BBX 17 26 2 0
BITMAP
00E000
01C000
038000
030000
000000
000000
E00380
E00780
E00F00
E01E00
E03C00
E07800
E0F000
E1E000
E3C000
FF8000
FF8000
E3C000
E1E000
E0F000
E07800
E03C00
E01E00
E00F00
E00780
E00380
ENDCHAR
STARTCHAR CYRILLIC CAPITAL LETTER I WITH GRAVE
ENCODING 1037
SWIDTH 625 0
DWIDTH 20 0
BBX 16 26 2 0
BITMAP
0700
0380
01C0
00C0
0000
0000
E007
E007
E007
E007
E00F
E01F
E03F
E07F
E0F7
E1E7
E3C7
E787
EF07
FE07
FC07
F807
F007
E007
E007
E007
ENDCHAR
STARTCHAR CYRILLIC CAPITAL LETTER SHORT U
ENCODING 1038
SWIDTH 625 0
DWIDTH 20 0
BBX 18 26 1 0
BITMAP
0E3800
0E3800
07F000
03E000
000000
000000
E001C0
F003C0
700380
780780
380700
3C0F00
1C0E00
1E1E00
0E1C00
0F3C00
073800
07F800
03F000
03F000
01E000
01E000
01C000
03C000
7F8000
7F0000
ENDCHAR
STARTCHAR CYRILLIC CAPITAL LETTER DZHE
ENCODING 1039
SWIDTH 625 0
DWIDTH 20 0
BBX 15 24 3 -4
BITMAP
E00E
E00E
E00E
E00E
E00E
E00E
E00E
E00E
E00E
E00E
E00E
E00E
E00E
E00E
E00E
E00E
E00E
E00E
FFFE
FFFE
0380
0380
0380
0380
ENDCHAR
STARTCHAR CYRILLIC CAPITAL LETTER A
ENCODING 1040
SWIDTH 593 0
DWIDTH 19 0
BBX 17 20 1 0
BITMAP
03E000
03E000
03E000
077000
077000
077000
0E3800
0E3800
0E3800
1C1C00
1C1C00
1C1C00
380E00
3FFE00
3FFE00
700700
700700
700700
E00380
E00380
ENDCHAR
STARTCHAR CYRILLIC CAPITAL LETTER BE
ENCODING 1041
SWIDTH 562 0
DWIDTH 18 0
BBX 14 20 2 0
BITMAP
FFF8
FFF8
E000
E000
E000
E000
E000
E000
FFE0
FFF8
E038
E01C
E01C
E01C
E01C
E01C
E01C
E038
FFF8
FFE0
ENDCHAR
STARTCHAR CYRILLIC CAPITAL LETTER VE
ENCODING 1042
SWIDTH 562 0
DWIDTH 18 0
BBX 14 20 2 0
BITMAP
FFC0
FFF0
E070
E038
E038
E038
E038
E070
FFE0
FFF0
E038
E01C
E01C
E01C
E01C
E01C
E01C
E038
FFF8
FFE0
ENDCHAR
STARTCHAR CYRILLIC CAPITAL LETTER GHE
ENCODING 1043
SWIDTH 500 0
DWIDTH 16 0
BBX 14 20 2 0
BITMAP
FFFC
FFFC
E000
E000
E000
E000
E000
E000
E000
E000
E000
E000
E000
E000
E000
E000
E000
E000
E000
E000
ENDCHAR
STARTCHAR CYRILLIC CAPITAL LETTER DE
ENCODING 1044
SWIDTH 687 0
DWIDTH 22 0
BBX 20 24 1 -4
BITMAP
0FFF80
0FFF80
0E0380
0E0380
0E0380
0E0380
0E0380
0E0380
0E0380
0E0380
0E0380
0E0380
0E0380
0E0380
1E0380
1C0380
1C0380
380380
FFFFF0
FFFFF0
E00070
E00070
E00070
E00070
ENDCHAR
STARTCHAR CYRILLIC CAPITAL LETTER IE
ENCODING 1045
SWIDTH 531 0
DWIDTH 17 0
BBX 14 20 2 0
BITMAP
FFFC
FFFC
E000
E000
E000
E000
E000
E000
FFC0
FFC0
E000
E000
E000
E000
E000
E000
E000
E000
FFFC
FFFC
ENDCHAR
STARTCHAR CYRILLIC CAPITAL LETTER ZHE
ENCODING 1046
SWIDTH 906 0
DWIDTH 29 0
BBX 29 20 0 0
BITMAP
F0070078
F80700F8
3C0701E0
1E0703C0
0F070780
07870F00
03C71E00
01E73C00
00F77800
007FF000
007FF000
00F77800
01E73C00
03C71E00
07870F00
0F070780
1E0703C0
3C0701E0
780700F0
F0070078
ENDCHAR
STARTCHAR CYRILLIC CAPITAL LETTER ZE
ENCODING 1047
SWIDTH 531 0
DWIDTH 17 0
BBX 13 20 2 0
BITMAP
3FC0
FFF0
E070
0038
0038
0038
0030
0070
07E0
07F0
0070
0038
0038
0038
0038
0038
0038
E070
FFF0
3FC0
ENDCHAR
STARTCHAR CYRILLIC CAPITAL LETTER I
ENCODING 1048
SWIDTH 625 0
DWIDTH 20 0
BBX 16 20 2 0
BITMAP
E007
E007
E007
E007
E00F
E01F
E03F
E07F
E0F7
E1E7
E3C7
E787
EF07
FE07
FC07
F807
F007
E007
E007
E007
ENDCHAR
STARTCHAR CYRILLIC CAPITAL LETTER SHORT I
ENCODING 1049
SWIDTH 625 0
DWIDTH 20 0
BBX 16 26 2 0
BITMAP
0E38
0E38
07F0
03E0
0000
0000
E007
E007
E007
E007
E00F
E01F
E03F
E07F
E0F7
E1E7
E3C7
E787
EF07
FE07
FC07
F807
F007
E007
E007
E007
ENDCHAR
STARTCHAR CYRILLIC CAPITAL LETTER KA
ENCODING 1050
SWIDTH 625 0
DWIDTH 20 0
BBX 17 20 2 0
BITMAP
E00780
E00F80
E01E00
E03C00
E07800
E0F000
E1E000
E3C000
E78000
FF0000
FF0000
E78000
E3C000
E1E000
E0F000
E07800
E03C00
E01E00
E00F00
E00780
ENDCHAR
STARTCHAR CYRILLIC CAPITAL LETTER EL
ENCODING 1051
SWIDTH 625 0
DWIDTH 20 0
BBX 17 20 1 0
BITMAP
0FFF80
0FFF80
0E0380
0E0380
0E0380
0E0380
0E0380
0E0380
0E0380
0E0380
0E0380
0E0380
0E0380
0E0380
0E0380
1E0380
1C0380
3C0380
F80380
F00380
ENDCHAR
STARTCHAR CYRILLIC CAPITAL LETTER EM
ENCODING 1052
SWIDTH 781 0
DWIDTH 25 0
BBX 21 20 2 0
BITMAP
F00078
F00078
F800F8
F800F8
FC01F8
FC01F8
FE03F8
EE03B8
EF07B8
E70738
E78F38
E38E38
E3DE38
E1DC38
E1FC38
E0F838
E0F838
E07038
E07038
E00038
ENDCHAR
STARTCHAR CYRILLIC CAPITAL LETTER EN
ENCODING 1053
SWIDTH 593 0
DWIDTH 19 0
BBX 15 20 2 0
BITMAP
E00E
E00E
E00E
E00E
E00E
E00E
E00E
E00E
FFFE
FFFE
E00E
E00E
E00E
E00E
E00E
E00E
E00E
E00E
E00E
E00E
ENDCHAR
STARTCHAR CYRILLIC CAPITAL LETTER O
ENCODING 1054
SWIDTH 625 0
DWIDTH 20 0
BBX 16 20 2 0
BITMAP
07E0
1FF8
3C3C
700E
700E
E007
E007
E007
E007
E007
E007
E007
E007
E007
E007
700E
700E
3C3C
1FF8
07E0
ENDCHAR
STARTCHAR CYRILLIC CAPITAL LETTER PE
ENCODING 1055
SWIDTH 625 0
DWIDTH 20 0
BBX 15 20 3 0
BITMAP
FFFE
FFFE
E00E
E00E
E00E
E00E
E00E
E00E
E00E
E00E
E00E
E00E
E00E
E00E
E00E
E00E
E00E
E00E
E00E
E00E
ENDCHAR
STARTCHAR CYRILLIC CAPITAL LETTER ER
ENCODING 1056
SWIDTH 562 0
DWIDTH 18 0
BBX 15 20 2 0
BITMAP
FFF0
FFFC
E01C
E00E
E00E
E00E
E00E
E00E
E00E
E01C
FFFC
FFF0
E000
E000
E000
E000
E000
E000
E000
E000
ENDCHAR
STARTCHAR CYRILLIC CAPITAL LETTER ES
ENCODING 1057
SWIDTH 562 0
DWIDTH 18 0
BBX 15 20 2 0
BITMAP
03F8
0FFE
1F0E
3C00
7800
7000
F000
E000
E000
E000
E000
E000
E000
F000
7000
7800
3C00
1F0E
0FFE
03F8
ENDCHAR
STARTCHAR CYRILLIC CAPITAL LETTER TE
ENCODING 1058
SWIDTH 625 0
DWIDTH 20 0
BBX 19 20 1 0
BITMAP
FFFFE0
FFFFE0
00E000
00E000
00E000
00E000
00E000
00E000
00E000
00E000
00E000
00E000
00E000
00E000
00E000
00E000
00E000
00E000
00E000
00E000
ENDCHAR
STARTCHAR CYRILLIC CAPITAL LETTER U
ENCODING 1059
SWIDTH 625 0
DWIDTH 20 0
BBX 18 20 1 0
BITMAP
F003C0
700380
780780
380700
3C0F00
1C0E00
1E1E00
0E1C00
0F3C00
073800
07F800
03F000
03F000
01E000
01E000
01C000
03C000
078000
7F0000
7E0000
ENDCHAR
STARTCHAR CYRILLIC CAPITAL LETTER EF
ENCODING 1060
SWIDTH 718 0
DWIDTH 23 0
BBX 21 20 1 0
BITMAP
007000
007000
007000
0FFF80
3FFFE0
7870F0
707070
E07038
E07038
E07038
E07038
E07038
E07038
707070
7870F0
3FFFE0
0FFF80
007000
007000
007000
ENDCHAR
STARTCHAR CYRILLIC CAPITAL LETTER HA
ENCODING 1061
SWIDTH 625 0
DWIDTH 20 0
BBX 19 20 1 0
BITMAP
F001E0
7803C0
380380
3C0780
1E0F00
0F1E00
071C00
07BC00
03F800
01F000
01F000
03F800
07B800
071C00
0F1E00
1E0F00
3C0780
380380
7803C0
F001E0
ENDCHAR
STARTCHAR CYRILLIC CAPITAL LETTER TSE
ENCODING 1062
SWIDTH 687 0
DWIDTH 22 0
BBX 19 24 2 -4
BITMAP
E00700
E00700
E00700
E00700
E00700
E00700
E00700
E00700
E00700
E00700
E00700
E00700
E00700
E00700
E00700
E00700
E00700
E00700
FFFFE0
FFFFE0
0000E0
0000E0
0000E0
0000E0
ENDCHAR
STARTCHAR CYRILLIC CAPITAL LETTER CHE
ENCODING 1063
SWIDTH 562 0
DWIDTH 18 0
BBX 14 20 2 0
BITMAP
E01C
E01C
E01C
E01C
E01C
E01C
E01C
E01C
E01C
E01C
701C
7FFC
1FFC
001C
001C
001C
001C
001C
001C
001C
ENDCHAR
STARTCHAR CYRILLIC CAPITAL LETTER SHA
ENCODING 1064
SWIDTH 906 0
DWIDTH 29 0
BBX 25 20 2 0
BITMAP
E01C0380
E01C0380
E01C0380
E01C0380
E01C0380
E01C0380
E01C0380
E01C0380
E01C0380
E01C0380
E01C0380
E01C0380
E01C0380
E01C0380
E01C0380
E01C0380
E01C0380
E01C0380
FFFFFF80
FFFFFF80
ENDCHAR
STARTCHAR CYRILLIC CAPITAL LETTER SHCHA
ENCODING 1065
SWIDTH 968 0
DWIDTH 31 0
BBX 28 24 2 -4
BITMAP
E01C0380
E01C0380
E01C0380
E01C0380
E01C0380
E01C0380
E01C0380
E01C0380
E01C0380
E01C0380
E01C0380
E01C0380
E01C0380
E01C0380
E01C0380
E01C0380
E01C0380
E01C0380
FFFFFFF0
FFFFFFF0
00000070
00000070
00000070
00000070
ENDCHAR
STARTCHAR CYRILLIC CAPITAL LETTER HARD SIGN
ENCODING 1066
SWIDTH 625 0
DWIDTH 20 0
BBX 19 20 0 0
BITMAP
FF0000
FF0000
070000
070000
070000
070000
070000
070000
07FF00
07FFC0
0701C0
0700E0
0700E0
0700E0
0700E0
0700E0
0700E0
0701C0
07FFC0
07FF00
ENDCHAR
STARTCHAR CYRILLIC CAPITAL LETTER YERU
ENCODING 1067
SWIDTH 750 0
DWIDTH 24 0
BBX 20 20 2 0
BITMAP
E00070
E00070
E00070
E00070
E00070
E00070
E00070
E00070
FFE070
FFF870
E03870
E01C70
E01C70
E01C70
E01C70
E01C70
E01C70
E03870
FFF870
FFE070
ENDCHAR
STARTCHAR CYRILLIC CAPITAL LETTER SOFT SIGN
ENCODING 1068
SWIDTH 531 0
DWIDTH 17 0
BBX 14 20 2 0
BITMAP
E000
E000
E000
E000
E000
E000
E000
E000
FFE0
FFF8
E038
E01C
E01C
E01C
E01C
E01C
E01C
E038
FFF8
FFE0
ENDCHAR
STARTCHAR CYRILLIC CAPITAL LETTER E
ENCODING 1069
SWIDTH 531 0
DWIDTH 17 0
BBX 15 20 1 0
BITMAP
3F80
FFE0
E1F0
0078
003C
001C
001E
000E
000E
0FFE
0FFE
000E
000E
001E
001C
003C
0078
E1F0
FFE0
3F80
ENDCHAR
STARTCHAR CYRILLIC CAPITAL LETTER YU
ENCODING 1070
SWIDTH 812 0
DWIDTH 26 0
BBX 22 20 2 0
BITMAP
E01F80
E07FE0
E0F0F0
E1C038
E1C038
E3801C
E3801C
E3801C
E3801C
FF801C
FF801C
E3801C
E3801C
E3801C
E3801C
E1C038
E1C038
E0F0F0
E07FE0
E01F80
ENDCHAR
STARTCHAR CYRILLIC CAPITAL LETTER YA
ENCODING 1071
SWIDTH 593 0
DWIDTH 19 0
BBX 16 20 1 0
BITMAP
0FFF
3FFF
3807
7007
7007
7007
7007
7007
7007
3807
3FFF
0FFF
01E7
03C7
0787
0F07
1E07
3C07
7807
F007
ENDCHAR
STARTCHAR CYRILLIC SMALL LETTER A
ENCODING 1072
SWIDTH 468 0
DWIDTH 15 0
BBX 12 14 1 0
BITMAP
1F80
7FE0
60E0
0070
0070
1FF0
7FF0
7070
E070
E070
E070
F0F0
7FF0
3F70
ENDCHAR
STARTCHAR CYRILLIC SMALL LETTER BE
ENCODING 1073
SWIDTH 531 0
DWIDTH 17 0
BBX 13 21 2 0
BITMAP
0038
1FF8
7FF0
7000
E000
E000
E000
EFC0
FFF0
F070
E038
E038
E038
E038
E038
E038
E038
E038
7070
7FF0
1FC0
ENDCHAR
STARTCHAR CYRILLIC SMALL LETTER VE
ENCODING 1074
SWIDTH 500 0
DWIDTH 16 0
BBX 12 14 2 0
BITMAP
FF80
FFC0
E0E0
E0E0
E0E0
FFC0
FFE0
E0F0
E070
E070
E070
E0F0
FFE0
FFC0
ENDCHAR
STARTCHAR CYRILLIC SMALL LETTER GHE
ENCODING 1075
SWIDTH 437 0
DWIDTH 14 0
BBX 11 14 2 0
BITMAP
FFE0
FFE0
E000
E000
E000
E000
E000
E000
E000
E000
E000
E000
E000
E000
ENDCHAR
STARTCHAR CYRILLIC SMALL LETTER DE
ENCODING 1076
SWIDTH 562 0
DWIDTH 18 0
BBX 16 17 1 -3
BITMAP
1FFC
1FFC
1C1C
1C1C
1C1C
1C1C
1C1C
1C1C
1C1C
1C1C
381C
381C
FFFF
FFFF
E007
E007
E007
ENDCHAR
STARTCHAR CYRILLIC SMALL LETTER IE
ENCODING 1077
SWIDTH 500 0
DWIDTH 16 0
BBX 12 14 2 0
BITMAP
1F80
7FE0
70E0
E070
E070
FFF0
FFF0
E000
E000
E000
E000
7070
7FF0
1FC0
ENDCHAR
STARTCHAR CYRILLIC SMALL LETTER ZHE
ENCODING 1078
SWIDTH 718 0
DWIDTH 23 0
BBX 23 14 0 0
BITMAP
78383C
7C387C
1E38F0
0F39E0
07BBC0
03FF80
01FF00
03FF80
07BBC0
0F39E0
1E38F0
3C3878
78383C
F0381E
ENDCHAR
STARTCHAR CYRILLIC SMALL LETTER ZE
ENCODING 1079
SWIDTH 437 0
DWIDTH 14 0
BBX 11 14 1 0
BITMAP
7F80
FFC0
C1E0
00E0
01E0
0FC0
0FC0
01E0
00E0
00E0
00E0
C1E0
FFC0
7F80
ENDCHAR
STARTCHAR CYRILLIC SMALL LETTER I
ENCODING 1080
SWIDTH 531 0
DWIDTH 17 0
BBX 13 14 2 0
BITMAP
E038
E038
E078
E0F8
E1F8
E3F8
E7B8
EF38
FE38
FC38
F838
F038
E038
E038
ENDCHAR
STARTCHAR CYRILLIC SMALL LETTER SHORT I
ENCODING 1081
SWIDTH 531 0
DWIDTH 17 0
BBX 13 20 2 0
BITMAP
38E0
38E0
1FC0
0F80
0000
0000
E038
E038
E078
E0F8
E1F8
E3F8
E7B8
EF38
FE38
FC38
F838
F038
E038
E038
ENDCHAR
STARTCHAR GREEK SMALL LETTER KAPPA
ENCODING 1082
SWIDTH 500 0
DWIDTH 16 0
BBX 14 14 2 0
BITMAP
E078
E0F8
E1E0
E3C0
E780
EF00
FE00
FF00
E780
E3C0
E1E0
E0F0
E078
E03C
ENDCHAR
STARTCHAR CYRILLIC SMALL LETTER EL
ENCODING 1083
SWIDTH 531 0
DWIDTH 17 0
BBX 14 14 1 0
BITMAP
1FFC
1FFC
1C1C
1C1C
1C1C
1C1C
1C1C
1C1C
1C1C
1C1C
1C1C
381C
F81C
E01C
ENDCHAR
STARTCHAR CYRILLIC SMALL LETTER EM
ENCODING 1084
SWIDTH 593 0
DWIDTH 19 0
BBX 15 14 2 0
BITMAP
E00E
F01E
F01E
F83E
F83E
FC7E
FC7E
EEEE
EEEE
E7CE
E7CE
E38E
E38E
E00E
ENDCHAR
STARTCHAR CYRILLIC SMALL LETTER EN
ENCODING 1085
SWIDTH 500 0
DWIDTH 16 0
BBX 12 14 2 0
BITMAP
E070
E070
E070
E070
E070
FFF0
FFF0
E070
E070
E070
E070
E070
E070
E070
ENDCHAR
STARTCHAR CYRILLIC SMALL LETTER O
ENCODING 1086
SWIDTH 500 0
DWIDTH 16 0
BBX 12 14 2 0
BITMAP
1F80
7FE0
70E0
E070
E070
E070
E070
E070
E070
E070
E070
70E0
7FE0
1F80
ENDCHAR
STARTCHAR CYRILLIC SMALL LETTER PE
ENCODING 1087
SWIDTH 500 0
DWIDTH 16 0
BBX 12 14 2 0
BITMAP
FFF0
FFF0
E070
E070
E070
E070
E070
E070
E070
E070
E070
E070
E070
E070
ENDCHAR
STARTCHAR CYRILLIC SMALL LETTER ER
ENCODING 1088
SWIDTH 500 0
DWIDTH 16 0
BBX 12 20 2 -6
BITMAP
EF80
FFE0
F0E0
E070
E070
E070
E070
E070
E070
E070
E070
F0E0
FFE0
EF80
E000
E000
E000
E000
E000
E000
ENDCHAR
STARTCHAR CYRILLIC SMALL LETTER ES
ENCODING 1089
SWIDTH 437 0
DWIDTH 14 0
BBX 11 14 2 0
BITMAP
1F80
7FE0
70E0
E000
E000
E000
E000
E000
E000
E000
E000
70E0
7FE0
1F80
ENDCHAR
STARTCHAR CYRILLIC SMALL LETTER TE
ENCODING 1090
SWIDTH 468 0
DWIDTH 15 0
BBX 13 14 1 0
BITMAP
FFF8
FFF8
0700
0700
0700
0700
0700
0700
0700
0700
0700
0700
0700
0700
ENDCHAR
STARTCHAR CYRILLIC SMALL LETTER U
ENCODING 1091
SWIDTH 531 0
DWIDTH 17 0
BBX 15 20 1 -6
BITMAP
E00E
E00E
F01E
701C
783C
3838
3C78
1C70
1EF0
0EE0
0FE0
07C0
07C0
0380
0780
0700
0F00
1E00
7C00
7800
ENDCHAR
STARTCHAR CYRILLIC SMALL LETTER EF
ENCODING 1092
SWIDTH 656 0
DWIDTH 21 0
BBX 17 26 2 -6
BITMAP
01C000
01C000
01C000
01C000
01C000
01C000
1FFC00
7FFF00
71C700
E1C380
E1C380
E1C380
E1C380
E1C380
E1C380
E1C380
E1C380
71C700
7FFF00
1FFC00
01C000
01C000
01C000
01C000
01C000
01C000
ENDCHAR
STARTCHAR CYRILLIC SMALL LETTER HA
ENCODING 1093
SWIDTH 500 0
DWIDTH 16 0
BBX 13 14 1 0
BITMAP
E038
E038
F078
78F0
3DE0
1FC0
0F80
0F80
1FC0
3DE0
78F0
F078
E038
E038
ENDCHAR
STARTCHAR CYRILLIC SMALL LETTER TSE
ENCODING 1094
SWIDTH 562 0
DWIDTH 18 0
BBX 15 18 2 -4
BITMAP
E070
E070
E070
E070
E070
E070
E070
E070
E070
E070
E070
E070
FFFE
FFFE
000E
000E
000E
000E
ENDCHAR
STARTCHAR CYRILLIC SMALL LETTER CHE
ENCODING 1095
SWIDTH 500 0
DWIDTH 16 0
BBX 12 14 2 0
BITMAP
E070
E070
E070
E070
E070
E070
E070
7070
7FF0
1FF0
0070
0070
0070
0070
ENDCHAR
STARTCHAR CYRILLIC SMALL LETTER SHA
ENCODING 1096
SWIDTH 718 0
DWIDTH 23 0
BBX 19 14 2 0
BITMAP
E0E0E0
E0E0E0
E0E0E0
E0E0E0
E0E0E0
E0E0E0
E0E0E0
E0E0E0
E0E0E0
E0E0E0
E0E0E0
E0E0E0
FFFFE0
FFFFE0
ENDCHAR
STARTCHAR CYRILLIC SMALL LETTER SHCHA
ENCODING 1097
SWIDTH 781 0
DWIDTH 25 0
BBX 22 18 2 -4
BITMAP
E0E0E0
E0E0E0
E0E0E0
E0E0E0
E0E0E0
E0E0E0
E0E0E0
E0E0E0
E0E0E0
E0E0E0
E0E0E0
E0E0E0
FFFFFC
FFFFFC
00001C
00001C
00001C
00001C
ENDCHAR
STARTCHAR CYRILLIC SMALL LETTER HARD SIGN
ENCODING 1098
SWIDTH 562 0
DWIDTH 18 0
BBX 17 14 0 0
BITMAP
FF0000
FF0000
070000
070000
070000
07FC00
07FF00
070700
070380
070380
070380
070700
07FF00
07FC00
ENDCHAR
STARTCHAR CYRILLIC SMALL LETTER YERU
ENCODING 1099
SWIDTH 656 0
DWIDTH 21 0
BBX 17 14 2 0
BITMAP
E00380
E00380
E00380
E00380
E00380
FF8380
FFE380
E0E380
E07380
E07380
E07380
E0E380
FFE380
FF8380
ENDCHAR
STARTCHAR CYRILLIC SMALL LETTER SOFT SIGN
ENCODING 1100
SWIDTH 468 0
DWIDTH 15 0
BBX 12 14 2 0
BITMAP
E000
E000
E000
E000
E000
FF80
FFE0
E0E0
E070
E070
E070
E0E0
FFE0
FF80
ENDCHAR
STARTCHAR CYRILLIC SMALL LETTER E
ENCODING 1101
SWIDTH 468 0
DWIDTH 15 0
BBX 12 14 1 0
BITMAP
3F80
FFE0
E0E0
0070
0070
0070
07F0
07F0
0070
0070
0070
E0E0
FFE0
3F80
ENDCHAR
STARTCHAR CYRILLIC SMALL LETTER YU
ENCODING 1102
SWIDTH 687 0
DWIDTH 22 0
BBX 18 14 2 0
BITMAP
E07E00
E1FF80
E1C380
E381C0
E381C0
FF81C0
FF81C0
E381C0
E381C0
E381C0
E381C0
E1C380
E1FF80
E07E00
ENDCHAR
STARTCHAR CYRILLIC SMALL LETTER YA
ENCODING 1103
SWIDTH 500 0
DWIDTH 16 0
BBX 12 14 2 0
BITMAP
1FF0
7FF0
7070
E070
E070
E070
7070
7FF0
3FF0
0E70
1C70
3870
F070
E070
ENDCHAR
STARTCHAR CYRILLIC SMALL LETTER IE WITH GRAVE
ENCODING 1104
SWIDTH 500 0
DWIDTH 16 0
BBX 12 20 2 0
BITMAP
1C00
0E00
0700
0300
0000
0000
1F80
7FE0
70E0
E070
E070
FFF0
FFF0
E000
E000
E000
E000
7070
7FF0
1FC0
ENDCHAR
STARTCHAR CYRILLIC SMALL LETTER IO
ENCODING 1105
SWIDTH 500 0
DWIDTH 16 0
BBX 12 20 2 0
BITMAP
38E0
38E0
38E0
0000
0000
0000
1F80
7FE0
70E0
E070
E070
FFF0
FFF0
E000
E000
E000
E000
7070
7FF0
1FC0
ENDCHAR
STARTCHAR CYRILLIC SMALL LETTER DJE
ENCODING 1106
SWIDTH 562 0
DWIDTH 18 0
BBX 15 26 1 -6
BITMAP
1C00
1C00
1C00
1C00
FFC0
FFC0
1C00
1C00
1DF0
1FFC
1E1C
1C0E
1C0E
1C0E
1C0E
1C0E
1C0E
1C0E
1C0E
1C0E
001C
001C
0038
0038
0070
0060
ENDCHAR
STARTCHAR CYRILLIC SMALL LETTER GJE
ENCODING 1107
SWIDTH 437 0
DWIDTH 14 0
BBX 11 20 2 0
BITMAP
0380
0700
0E00
0C00
0000
0000
FFE0
FFE0
E000
E000
E000
E000
E000
E000
E000
E000
E000
E000
E000
E000
ENDCHAR
STARTCHAR CYRILLIC SMALL LETTER UKRAINIAN IE
ENCODING 1108
SWIDTH 468 0
DWIDTH 15 0
BBX 12 14 2 0
BITMAP
1FC0
7FF0
7070
E000
E000
E000
FE00
FE00
E000
E000
E000
7070
7FF0
1FC0
ENDCHAR
STARTCHAR CYRILLIC SMALL LETTER DZE
ENCODING 1109
SWIDTH 468 0
DWIDTH 15 0
BBX 12 14 2 0
BITMAP
1F80
7FE0
70E0
E000
E000
7000
7F80
1FE0
00E0
0070
0070
E0E0
FFE0
3F80
ENDCHAR
STARTCHAR CYRILLIC SMALL LETTER BYELORUSSIAN-UKRAINIAN I
ENCODING 1110
SWIDTH 250 0
DWIDTH 8 0
BBX 6 19 0 0
BITMAP
1C
1C
1C
00
00
FC
FC
1C
1C
1C
1C
1C
1C
1C
1C
1C
1C
1C
1C
ENDCHAR
STARTCHAR CYRILLIC SMALL LETTER YI
ENCODING 1111
SWIDTH 312 0
DWIDTH 10 0
BBX 9 19 1 0
BITMAP
E380
E380
E380
0000
0000
FC00
FC00
1C00
1C00
1C00
1C00
1C00
1C00
1C00
1C00
1C00
1C00
1C00
1C00
ENDCHAR
STARTCHAR CYRILLIC SMALL LETTER JE
ENCODING 1112
SWIDTH 375 0
DWIDTH 12 0
BBX 8 25 0 -6
BITMAP
07
07
07
00
00
3F
3F
07
07
07
07
07
07
07
07
07
07
07
07
07
07
07
0E
FE
F8
ENDCHAR
STARTCHAR CYRILLIC SMALL LETTER LJE
ENCODING 1113
SWIDTH 781 0
DWIDTH 25 0
BBX 23 14 1 0
BITMAP
1FFC00
1FFC00
1C1C00
1C1C00
1C1C00
1C1FF0
1C1FFC
1C1C1C
1C1C0E
1C1C0E
1C1C0E
381C1C
F81FFC
F01FF0
ENDCHAR
STARTCHAR CYRILLIC SMALL LETTER NJE
ENCODING 1114
SWIDTH 750 0
DWIDTH 24 0
BBX 21 14 2 0
BITMAP
E07000
E07000
E07000
E07000
E07000
FFFFC0
FFFFF0
E07070
E07038
E07038
E07038
E07070
E07FF0
E07FC0
ENDCHAR
STARTCHAR CYRILLIC SMALL LETTER TSHE
ENCODING 1115
SWIDTH 562 0
DWIDTH 18 0
BBX 15 20 1 0
BITMAP
1C00
1C00
1C00
1C00
FFC0
FFC0
1C00
1C00
1DF0
1FFC
1E1C
1C0E
1C0E
1C0E
1C0E
1C0E
1C0E
1C0E
1C0E
1C0E
ENDCHAR
STARTCHAR CYRILLIC SMALL LETTER KJE
ENCODING 1116
SWIDTH 500 0
DWIDTH 16 0
BBX 13 20 2 0
BITMAP
0380
0700
0E00
0C00
0000
0000
E038
E078
E0F0
E1E0
E3C0
E780
FF00
FF00
E780
E3C0
E1E0
E0F0
E078
E038
ENDCHAR
STARTCHAR CYRILLIC SMALL LETTER I WITH GRAVE
ENCODING 1117
SWIDTH 531 0
DWIDTH 17 0
BBX 13 20 2 0
BITMAP
0E00
0700
0380
0180
0000
0000
E038
E038
E078
E0F8
E1F8
E3F8
E7B8
EF38
FE38
FC38
F838
F038
E038
E038
ENDCHAR
STARTCHAR CYRILLIC SMALL LETTER SHORT U
ENCODING 1118
SWIDTH 531 0
DWIDTH 17 0
BBX 15 26 1 -6
BITMAP
1C70
1C70
0FE0
07C0
0000
0000
E00E
E00E
F01E
701C
783C
3838
3C78
1C70
1EF0
0EE0
0FE0
07C0
07C0
0380
0780
0700
0F00
1E00
7C00
7800
ENDCHAR
STARTCHAR CYRILLIC SMALL LETTER DZHE
ENCODING 1119
SWIDTH 531 0
DWIDTH 17 0
BBX 13 18 2 -4
BITMAP
E038
E038
E038
E038
E038
E038
E038
E038
E038
E038
E038
E038
FFF8
FFF8
0700
0700
0700
0700
ENDCHAR
STARTCHAR EN QUAD
ENCODING 8192
SWIDTH 312 0
DWIDTH 10 0
BBX 0 0 0 0
BITMAP
ENDCHAR
STARTCHAR EM QUAD
ENCODING 8193
SWIDTH 625 0
DWIDTH 20 0
BBX 0 0 0 0
BITMAP
ENDCHAR
STARTCHAR EN SPACE
ENCODING 8194
SWIDTH 312 0
DWIDTH 10 0
BBX 0 0 0 0
BITMAP
ENDCHAR
STARTCHAR EM SPACE
ENCODING 8195
SWIDTH 625 0
DWIDTH 20 0
BBX 0 0 0 0
BITMAP
ENDCHAR
STARTCHAR THREE-PER-EM SPACE
ENCODING 8196
SWIDTH 218 0
DWIDTH 7 0
BBX 0 0 0 0
BITMAP
ENDCHAR
STARTCHAR FOUR-PER-EM SPACE
ENCODING 8197
SWIDTH 156 0
DWIDTH 5 0
BBX 0 0 0 0
BITMAP
ENDCHAR
STARTCHAR SIX-PER-EM SPACE
ENCODING 8198
SWIDTH 125 0
DWIDTH 4 0
BBX 0 0 0 0
BITMAP
ENDCHAR
STARTCHAR FIGURE SPACE
ENCODING 8199
SWIDTH 500 0
DWIDTH 16 0
BBX 0 0 0 0
BITMAP
ENDCHAR
STARTCHAR PUNCTUATION SPACE
ENCODING 8200
SWIDTH 250 0
DWIDTH 8 0
BBX 0 0 0 0
BITMAP
ENDCHAR
STARTCHAR THIN SPACE
ENCODING 8201
SWIDTH 125 0
DWIDTH 4 0
BBX 0 0 0 0
BITMAP
ENDCHAR
STARTCHAR HAIR SPACE
ENCODING 8202
SWIDTH 31 0
DWIDTH 1 0
BBX 0 0 0 0
BITMAP
ENDCHAR
STARTCHAR HYPHEN
ENCODING 8208
SWIDTH 312 0
DWIDTH 10 0
BBX 7 3 2 6
BITMAP
FE
FE
FE
ENDCHAR
STARTCHAR NON-BREAKING HYPHEN
ENCODING 8209
SWIDTH 312 0
DWIDTH 10 0
BBX 7 3 2 6
BITMAP
FE
FE
FE
ENDCHAR
STARTCHAR FIGURE DASH
ENCODING 8210
SWIDTH 500 0
DWIDTH 16 0
BBX 14 2 1 8
BITMAP
FFFC
FFFC
ENDCHAR
STARTCHAR EN DASH
ENCODING 8211
SWIDTH 312 0
DWIDTH 10 0
BBX 10 2 0 7
BITMAP
FFC0
FFC0
ENDCHAR
STARTCHAR EM DASH
ENCODING 8212
SWIDTH 625 0
DWIDTH 20 0
BBX 20 2 0 7
BITMAP
FFFFF0
FFFFF0
ENDCHAR
STARTCHAR HORIZONTAL BAR
ENCODING 8213
SWIDTH 625 0
DWIDTH 20 0
BBX 20 2 0 7
BITMAP
FFFFF0
FFFFF0
ENDCHAR
STARTCHAR LEFT SINGLE QUOTATION MARK
ENCODING 8216
SWIDTH 250 0
DWIDTH 8 0
BBX 6 9 2 10
BITMAP
08
1C
38
70
70
E0
E0
E0
E0
ENDCHAR
STARTCHAR RIGHT SINGLE QUOTATION MARK
ENCODING 8217
SWIDTH 250 0
DWIDTH 8 0
BBX 6 9 0 9
BITMAP
1C
1C
1C
1C
38
38
70
E0
40
ENDCHAR
STARTCHAR SINGLE LOW-9 QUOTATION MARK
ENCODING 8218
SWIDTH 250 0
DWIDTH 8 0
BBX 6 9 0 -5
BITMAP
1C
1C
1C
1C
38
38
70
E0
40
ENDCHAR
STARTCHAR SINGLE HIGH-REVERSED-9 QUOTATION MARK
ENCODING 8219
SWIDTH 250 0
DWIDTH 8 0
BBX 6 9 2 9
BITMAP
E0
E0
E0
E0
70
70
38
1C
08
ENDCHAR
STARTCHAR LEFT DOUBLE QUOTATION MARK
ENCODING 8220
SWIDTH 437 0
DWIDTH 14 0
BBX 12 9 2 10
BITMAP
0820
1C70
38E0
71C0
71C0
E380
E380
E380
E380
ENDCHAR
STARTCHAR RIGHT DOUBLE QUOTATION MARK
ENCODING 8221
SWIDTH 437 0
DWIDTH 14 0
BBX 12 9 0 9
BITMAP
1C70
1C70
1C70
1C70
38E0
38E0
71C0
E380
4100
ENDCHAR
STARTCHAR DOUBLE LOW-9 QUOTATION MARK
ENCODING 8222
SWIDTH 437 0
DWIDTH 14 0
BBX 12 9 0 -5
BITMAP
1C70
1C70
1C70
1C70
38E0
38E0
71C0
E380
4100
ENDCHAR
STARTCHAR DOUBLE HIGH-REVERSED-9 QUOTATION MARK
ENCODING 8223
SWIDTH 437 0
DWIDTH 14 0
BBX 12 9 2 9
BITMAP
E380
E380
E380
E380
71C0
71C0
38E0
1C70
0820
ENDCHAR
STARTCHAR DAGGER
ENCODING 8224
SWIDTH 531 0
DWIDTH 17 0
BBX 14 26 2 -6
BITMAP
0300
0300
0300
0300
0300
0300
FFFC
FFFC
0300
0300
0300
0300
0300
0300
0300
0300
0300
0300
0300
0300
0300
0300
0300
0300
0300
0300
ENDCHAR
STARTCHAR DOUBLE DAGGER
ENCODING 8225
SWIDTH 531 0
DWIDTH 17 0
BBX 14 26 2 -6
BITMAP
0300
0300
0300
0300
0300
0300
FFFC
FFFC
0300
0300
0300
0300
0300
0300
0300
0300
0300
0300
FFFC
FFFC
0300
0300
0300
0300
0300
0300
ENDCHAR
STARTCHAR BULLET
ENCODING 8226
SWIDTH 500 0
DWIDTH 16 0
BBX 7 7 5 6
BITMAP
38
7C
FE
FE
FE
7C
38
ENDCHAR
STARTCHAR TRIANGULAR BULLET
ENCODING 8227
SWIDTH 500 0
DWIDTH 16 0
BBX 9 9 4 5
BITMAP
8000
E000
F800
FE00
FF80
FE00
F800
E000
8000
ENDCHAR
STARTCHAR ONE DOT LEADER
ENCODING 8228
SWIDTH 250 0
DWIDTH 8 0
BBX 4 4 2 0
BITMAP
F0
F0
F0
F0
ENDCHAR
STARTCHAR TWO DOT LEADER
ENCODING 8229
SWIDTH 500 0
DWIDTH 16 0
BBX 12 4 2 0
BITMAP
F0F0
F0F0
F0F0
F0F0
ENDCHAR
STARTCHAR HORIZONTAL ELLIPSIS
ENCODING 8230
SWIDTH 750 0
DWIDTH 24 0
BBX 20 4 2 0
BITMAP
F0F0F0
F0F0F0
F0F0F0
F0F0F0
ENDCHAR
STARTCHAR HYPHENATION POINT
ENCODING 8231
SWIDTH 250 0
DWIDTH 8 0
BBX 4 4 2 6
BITMAP
F0
F0
F0
F0
ENDCHAR
STARTCHAR PER MILLE SIGN
ENCODING 8240
SWIDTH 937 0
DWIDTH 30 0
BBX 26 20 2 0
BITMAP
3C000000
7E000000
E7020000
C3070000
C30E0000
E71C0000
7E380000
3C700000
00E00000
01C00000
03800000
07000000
0E3C0F00
1C7E1F80
38E739C0
70C330C0
E0C330C0
40E739C0
007E1F80
003C0F00
ENDCHAR
STARTCHAR PER TEN THOUSAND SIGN
ENCODING 8241
SWIDTH 1250 0
DWIDTH 40 0
BBX 36 20 2 0
BITMAP
3C00000000
7E00000000
E702000000
C307000000
C30E000000
E71C000000
7E38000000
3C70000000
00E0000000
01C0000000
0380000000
0700000000
0E3C0F03C0
1C7E1F87E0
38E739CE70
70C330CC30
E0C330CC30
40E739CE70
007E1F87E0
003C0F03C0
ENDCHAR
STARTCHAR PRIME
ENCODING 8242
SWIDTH 187 0
DWIDTH 6 0
BBX 4 6 1 14
BITMAP
70
70
60
E0
C0
C0
ENDCHAR
STARTCHAR DOUBLE PRIME
ENCODING 8243
SWIDTH 343 0
DWIDTH 11 0
BBX 9 6 1 14
BITMAP
7380
7380
6300
E700
C600
C600
ENDCHAR
STARTCHAR TRIPLE PRIME
ENCODING 8244
SWIDTH 531 0
DWIDTH 17 0
BBX 14 6 1 14
BITMAP
739C
739C
6318
E738
C630
C630
ENDCHAR
STARTCHAR REVERSED PRIME
ENCODING 8245
SWIDTH 187 0
DWIDTH 6 0
BBX 4 6 1 14
BITMAP
E0
E0
60
70
30
30
ENDCHAR
STARTCHAR REVERSED DOUBLE PRIME
ENCODING 8246
SWIDTH 343 0
DWIDTH 11 0
BBX 9 6 1 14
BITMAP
E700
E700
6300
7380
3180
3180
ENDCHAR
STARTCHAR REVERSED TRIPLE PRIME
ENCODING 8247
SWIDTH 531 0
DWIDTH 17 0
BBX 14 6 2 14
BITMAP
E738
E738
6318
739C
318C
318C
ENDCHAR
STARTCHAR HYPHEN BULLET
ENCODING 8259
SWIDTH 312 0
DWIDTH 10 0
BBX 7 3 2 6
BITMAP
FE
FE
FE
ENDCHAR
STARTCHAR QUADRUPLE PRIME
ENCODING 8279
SWIDTH 687 0
DWIDTH 22 0
BBX 19 6 1 14
BITMAP
739CE0
739CE0
6318C0
E739C0
C63180
C63180
ENDCHAR
STARTCHAR SUPERSCRIPT ZERO
ENCODING 8304
SWIDTH 343 0
DWIDTH 11 0
BBX 8 14 2 12
BITMAP
3C
7E
66
E7
C3
C3
C3
C3
C3
C3
E7
66
7E
3C
ENDCHAR
STARTCHAR SUPERSCRIPT LATIN SMALL LETTER I
ENCODING 8305
SWIDTH 187 0
DWIDTH 6 0
BBX 2 14 2 12
BITMAP
C0
C0
00
00
C0
C0
C0
C0
C0
C0
C0
C0
C0
C0
ENDCHAR
STARTCHAR SUPERSCRIPT FOUR
ENCODING 8308
SWIDTH 343 0
DWIDTH 11 0
BBX 9 14 2 12
BITMAP
C000
C000
C600
C600
C600
C600
C600
C600
FF80
FF80
0600
0600
0600
0600
ENDCHAR
STARTCHAR SUPERSCRIPT FIVE
ENCODING 8309
SWIDTH 343 0
DWIDTH 11 0
BBX 8 14 2 12
BITMAP
FF
FF
C0
C0
C0
FC
FE
07
03
03
03
07
FE
FC
ENDCHAR
STARTCHAR SUPERSCRIPT SIX
ENCODING 8310
SWIDTH 343 0
DWIDTH 11 0
BBX 8 14 2 12
BITMAP
1F
3F
70
E0
C0
FC
FE
E7
C3
C3
C3
E7
7E
3C
ENDCHAR
STARTCHAR SUPERSCRIPT SEVEN
ENCODING 8311
SWIDTH 343 0
DWIDTH 11 0
BBX 8 14 2 12
BITMAP
FF
FF
07
06
06
0E
0C
0C
1C
18
18
38
30
30
ENDCHAR
STARTCHAR SUPERSCRIPT EIGHT
ENCODING 8312
SWIDTH 343 0
DWIDTH 11 0
BBX 8 14 2 12
BITMAP
3C
7E
E7
C3
C3
E7
7E
7E
E7
C3
C3
E7
7E
3C
ENDCHAR
STARTCHAR SUPERSCRIPT NINE
ENCODING 8313
SWIDTH 343 0
DWIDTH 11 0
BBX 8 14 2 12
BITMAP
3C
7E
E7
C3
C3
C3
E7
7F
3F
03
07
0E
FC
F8
ENDCHAR
STARTCHAR SUPERSCRIPT PLUS SIGN
ENCODING 8314
SWIDTH 406 0
DWIDTH 13 0
BBX 10 10 2 14
BITMAP
0C00
0C00
0C00
0C00
FFC0
FFC0
0C00
0C00
0C00
0C00
ENDCHAR
STARTCHAR SUPERSCRIPT MINUS
ENCODING 8315
SWIDTH 406 0
DWIDTH 13 0
BBX 10 2 2 18
BITMAP
FFC0
FFC0
ENDCHAR
STARTCHAR SUPERSCRIPT EQUALS SIGN
ENCODING 8316
SWIDTH 468 0
DWIDTH 15 0
BBX 10 6 3 16
BITMAP
FFC0
FFC0
0000
0000
FFC0
FFC0
ENDCHAR
STARTCHAR SUPERSCRIPT LEFT PARENTHESIS
ENCODING 8317
SWIDTH 250 0
DWIDTH 8 0
BBX 5 16 2 10
BITMAP
18
38
70
60
E0
C0
C0
C0
C0
C0
C0
E0
60
70
38
18
ENDCHAR
STARTCHAR SUPERSCRIPT RIGHT PARENTHESIS
ENCODING 8318
SWIDTH 250 0
DWIDTH 8 0
BBX 5 16 1 10
BITMAP
C0
E0
70
30
38
18
18
18
18
18
18
38
30
70
E0
C0
ENDCHAR
STARTCHAR SUBSCRIPT ZERO
ENCODING 8320
SWIDTH 343 0
DWIDTH 11 0
BBX 8 14 2 -6
BITMAP
3C
7E
66
E7
C3
C3
C3
C3
C3
C3
E7
66
7E
3C
ENDCHAR
STARTCHAR SUBSCRIPT ONE
ENCODING 8321
SWIDTH 343 0
DWIDTH 11 0
BBX 6 14 2 -6
BITMAP
0C
1C
3C
7C
EC
4C
0C
0C
0C
0C
0C
0C
0C
0C
ENDCHAR
STARTCHAR SUBSCRIPT TWO
ENCODING 8322
SWIDTH 343 0
DWIDTH 11 0
BBX 8 14 2 -6
BITMAP
FC
FE
07
03
03
03
07
0E
1C
38
70
E0
FF
FF
ENDCHAR
STARTCHAR SUBSCRIPT THREE
ENCODING 8323
SWIDTH 343 0
DWIDTH 11 0
BBX 8 14 2 -6
BITMAP
FF
FF
07
0E
1C
3C
3E
07
03
03
03
07
FE
FC
ENDCHAR
STARTCHAR SUBSCRIPT FOUR
ENCODING 8324
SWIDTH 343 0
DWIDTH 11 0
BBX 9 14 2 -6
BITMAP
C000
C000
C600
C600
C600
C600
C600
C600
FF80
FF80
0600
0600
0600
0600
ENDCHAR
STARTCHAR SUBSCRIPT FIVE
ENCODING 8325
SWIDTH 343 0
DWIDTH 11 0
BBX 8 14 2 -6
BITMAP
FF
FF
C0
C0
C0
FC
FE
07
03
03
03
07
FE
FC
ENDCHAR
STARTCHAR SUBSCRIPT SIX
ENCODING 8326
SWIDTH 343 0
DWIDTH 11 0
BBX 8 14 2 -6
BITMAP
1F
3F
70
E0
C0
FC
FE
E7
C3
C3
C3
E7
7E
3C
ENDCHAR
STARTCHAR SUBSCRIPT SEVEN
ENCODING 8327
SWIDTH 343 0
DWIDTH 11 0
BBX 8 14 2 -6
BITMAP
FF
FF
07
06
06
0E
0C
0C
1C
18
18
38
30
30
ENDCHAR
STARTCHAR SUBSCRIPT EIGHT
ENCODING 8328
SWIDTH 343 0
DWIDTH 11 0
BBX 8 14 2 -6
BITMAP
3C
7E
E7
C3
C3
E7
7E
7E
E7
C3
C3
E7
7E
3C
ENDCHAR
STARTCHAR SUBSCRIPT NINE
ENCODING 8329
SWIDTH 343 0
DWIDTH 11 0
BBX 8 14 2 -6
BITMAP
3C
7E
E7
C3
C3
C3
E7
7F
3F
03
07
0E
FC
F8
ENDCHAR
STARTCHAR SUBSCRIPT PLUS SIGN
ENCODING 8330
SWIDTH 406 0
DWIDTH 13 0
BBX 10 10 2 -4
BITMAP
0C00
0C00
0C00
0C00
FFC0
FFC0
0C00
0C00
0C00
0C00
ENDCHAR
STARTCHAR SUBSCRIPT MINUS
ENCODING 8331
SWIDTH 406 0
DWIDTH 13 0
BBX 10 2 2 0
BITMAP
FFC0
FFC0
ENDCHAR
STARTCHAR SUBSCRIPT EQUALS SIGN
ENCODING 8332
SWIDTH 468 0
DWIDTH 15 0
BBX 10 6 3 -2
BITMAP
FFC0
FFC0
0000
0000
FFC0
FFC0
ENDCHAR
STARTCHAR SUBSCRIPT LEFT PARENTHESIS
ENCODING 8333
SWIDTH 250 0
DWIDTH 8 0
BBX 5 15 2 -6
BITMAP
18
38
70
60
E0
C0
C0
C0
C0
C0
E0
60
70
38
18
ENDCHAR
STARTCHAR SUBSCRIPT RIGHT PARENTHESIS
ENCODING 8334
SWIDTH 250 0
DWIDTH 8 0
BBX 5 15 1 -6
BITMAP
C0
E0
70
30
38
18
18
18
18
18
38
30
70
E0
C0
ENDCHAR
STARTCHAR NUMERO SIGN
ENCODING 8470
SWIDTH 968 0
DWIDTH 31 0
BBX 27 20 2 0
BITMAP
E0070780
E0070FC0
E0071CE0
E0071860
F0071860
F8071860
FC071CE0
FE070FC0
EF070780
E7870000
E3C70000
E1E71FE0
E0F71FE0
E07F0000
E03F0000
E01F0000
E00F0000
E0070000
E0070000
E0070000
ENDCHAR
STARTCHAR LEFTWARDS ARROW
ENCODING 8592
SWIDTH 687 0
DWIDTH 22 0
BBX 22 12 0 4
BITMAP
040000
0E0000
1C0000
380000
700000
FFFFFC
FFFFFC
700000
380000
1C0000
0E0000
040000
ENDCHAR
STARTCHAR UPWARDS ARROW
ENCODING 8593
SWIDTH 687 0
DWIDTH 22 0
BBX 12 22 6 -1
BITMAP
0600
0F00
1F80
3FC0
76E0
E670
4620
0600
0600
0600
0600
0600
0600
0600
0600
0600
0600
0600
0600
0600
0600
0600
ENDCHAR
STARTCHAR RIGHTWARDS ARROW
ENCODING 8594
SWIDTH 687 0
DWIDTH 22 0
BBX 22 12 0 4
BITMAP
000080
0001C0
0000E0
000070
000038
FFFFFC
FFFFFC
000038
000070
0000E0
0001C0
000080
ENDCHAR
STARTCHAR DOWNWARDS ARROW
ENCODING 8595
SWIDTH 687 0
DWIDTH 22 0
BBX 12 22 5 -2
BITMAP
0600
0600
0600
0600
0600
0600
0600
0600
0600
0600
0600
0600
0600
0600
0600
4620
E670
76E0
3FC0
1F80
0F00
0600
ENDCHAR
STARTCHAR LEFT RIGHT ARROW
ENCODING 8596
SWIDTH 687 0
DWIDTH 22 0
BBX 22 12 0 4
BITMAP
040080
0E01C0
1C00E0
380070
700038
FFFFFC
FFFFFC
700038
380070
1C00E0
0E01C0
040080
ENDCHAR
STARTCHAR UP DOWN ARROW
ENCODING 8597
SWIDTH 687 0
DWIDTH 22 0
BBX 12 22 6 -1
BITMAP
0600
0F00
1F80
3FC0
76E0
E670
4620
0600
0600
0600
0600
0600
0600
0600
0600
4620
E670
76E0
3FC0
1F80
0F00
0600
ENDCHAR
STARTCHAR NORTH WEST ARROW
ENCODING 8598
SWIDTH 687 0
DWIDTH 22 0
BBX 14 14 4 3
BITMAP
FF80
FF80
F000
F800
DC00
CE00
C700
C380
C1C0
00E0
0070
0038
001C
000C
ENDCHAR
STARTCHAR NORTH EAST ARROW
ENCODING 8599
SWIDTH 687 0
DWIDTH 22 0
BBX 14 14 4 3
BITMAP
07FC
07FC
003C
007C
00EC
01CC
038C
070C
0E0C
1C00
3800
7000
E000
C000
ENDCHAR
STARTCHAR SOUTH EAST ARROW
ENCODING 8600
SWIDTH 687 0
DWIDTH 22 0
BBX 14 14 4 3
BITMAP
C000
E000
7000
3800
1C00
0E0C
070C
038C
01CC
00EC
007C
003C
07FC
07FC
ENDCHAR
STARTCHAR SOUTH WEST ARROW
ENCODING 8601
SWIDTH 687 0
DWIDTH 22 0
BBX 14 14 4 3
BITMAP
000C
001C
0038
0070
00E0
C1C0
C380
C700
CE00
DC00
F800
F000
FF80
FF80
ENDCHAR
STARTCHAR MINUS SIGN
ENCODING 8722
SWIDTH 562 0
DWIDTH 18 0
BBX 14 2 2 9
BITMAP
FFFC
FFFC
ENDCHAR
STARTCHAR MINUS-OR-PLUS SIGN
ENCODING 8723
SWIDTH 562 0
DWIDTH 18 0
BBX 14 18 2 0
BITMAP
FFFC
FFFC
0000
0000
0300
0300
0300
0300
0300
0300
FFFC
FFFC
0300
0300
0300
0300
0300
0300
ENDCHAR
STARTCHAR SQUARE ROOT
ENCODING 8730
SWIDTH 500 0
DWIDTH 16 0
BBX 16 28 0 -4
BITMAP
0003
0007
0006
0006
000E
000C
000C
001C
0018
0018
0038
0030
0030
0070
F060
F060
38E0
38C0
18C0
1DC0
1D80
0F80
0F80
0700
0700
0700
0200
0200
ENDCHAR
STARTCHAR INFINITY
ENCODING 8734
SWIDTH 625 0
DWIDTH 20 0
BBX 16 9 2 5
BITMAP
3C3C
7E7E
E7E7
C3C3
C183
C3C3
E7E7
7E7E
3C3C
ENDCHAR
STARTCHAR PARALLEL TO
ENCODING 8741
SWIDTH 500 0
DWIDTH 16 0
BBX 8 20 4 0
BITMAP
C3
C3
C3
C3
C3
C3
C3
C3
C3
C3
C3
C3
C3
C3
C3
C3
C3
C3
C3
C3
ENDCHAR
STARTCHAR INTEGRAL
ENCODING 8747
SWIDTH 437 0
DWIDTH 14 0
BBX 13 26 0 -6
BITMAP
01F0
03F8
0718
0718
0700
0700
0700
0700
0700
0700
0700
0700
0700
0700
0700
0700
0700
0700
0700
0700
0700
0700
C700
C700
FE00
7C00
ENDCHAR
STARTCHAR RATIO
ENCODING 8758
SWIDTH 312 0
DWIDTH 10 0
BBX 4 14 3 3
BITMAP
F0
F0
F0
F0
00
00
00
00
00
00
F0
F0
F0
F0
ENDCHAR
STARTCHAR TILDE OPERATOR
ENCODING 8764
SWIDTH 562 0
DWIDTH 18 0
BBX 14 5 2 7
BITMAP
3800
7E04
C78C
81F8
0070
ENDCHAR
STARTCHAR INVERTED LAZY S
ENCODING 8766
SWIDTH 656 0
DWIDTH 21 0
BBX 15 7 3 6
BITMAP
3C18
7E1C
E70E
C386
E1CE
70FC
3078
ENDCHAR
STARTCHAR ALMOST EQUAL TO
ENCODING 8776
SWIDTH 656 0
DWIDTH 21 0
BBX 14 10 4 4
BITMAP
3800
7E04
C78C
81F8
0070
3800
7E04
C78C
81F8
0070
ENDCHAR
STARTCHAR APPROACHES THE LIMIT
ENCODING 8784
SWIDTH 656 0
DWIDTH 21 0
BBX 14 14 4 6
BITMAP
0780
0780
0780
0780
0000
0000
0000
FFFC
FFFC
0000
0000
0000
FFFC
FFFC
ENDCHAR
STARTCHAR ESTIMATES
ENCODING 8793
SWIDTH 656 0
DWIDTH 21 0
BBX 14 15 4 6
BITMAP
0300
0780
0FC0
1CE0
3870
3030
0000
0000
FFFC
FFFC
0000
0000
0000
FFFC
FFFC
ENDCHAR
STARTCHAR LESS-THAN OVER EQUAL TO
ENCODING 8806
SWIDTH 656 0
DWIDTH 21 0
BBX 14 19 4 0
BITMAP
001C
00FC
07F0
3F80
FC00
FC00
3F80
07F0
00FC
001C
0000
0000
FFFC
FFFC
0000
0000
0000
FFFC
FFFC
ENDCHAR
STARTCHAR GREATER-THAN OVER EQUAL TO
ENCODING 8807
SWIDTH 656 0
DWIDTH 21 0
BBX 14 19 4 0
BITMAP
E000
FC00
3F80
07F0
00FC
00FC
07F0
3F80
FC00
E000
0000
0000
FFFC
FFFC
0000
0000
0000
FFFC
FFFC
ENDCHAR
STARTCHAR DOT OPERATOR
ENCODING 8901
SWIDTH 312 0
DWIDTH 10 0
BBX 4 4 3 9
BITMAP
F0
F0
F0
F0
ENDCHAR
STARTCHAR DIAMETER SIGN
ENCODING 8960
SWIDTH 562 0
DWIDTH 18 0
BBX 14 20 2 0
BITMAP
0018
0030
0030
0FE0
3FF0
78F8
60D8
E19C
C18C
C30C
C30C
C60C
E61C
6C18
7C78
3FF0
1FC0
3000
3000
6000
ENDCHAR
STARTCHAR BLACK SQUARE
ENCODING 9632
SWIDTH 687 0
DWIDTH 22 0
BBX 18 18 2 0
BITMAP
FFFFC0
FFFFC0
FFFFC0
FFFFC0
FFFFC0
FFFFC0
FFFFC0
FFFFC0
FFFFC0
FFFFC0
FFFFC0
FFFFC0
FFFFC0
FFFFC0
FFFFC0
FFFFC0
FFFFC0
FFFFC0
ENDCHAR
STARTCHAR WHITE SQUARE
ENCODING 9633
SWIDTH 687 0
DWIDTH 22 0
BBX 18 18 2 0
BITMAP
FFFFC0
FFFFC0
C000C0
C000C0
C000C0
C000C0
C000C0
C000C0
C000C0
C000C0
C000C0
C000C0
C000C0
C000C0
C000C0
C000C0
FFFFC0
FFFFC0
ENDCHAR
STARTCHAR WHITE SQUARE WITH ROUNDED CORNERS
ENCODING 9634
SWIDTH 687 0
DWIDTH 22 0
BBX 18 18 2 0
BITMAP
1FFE00
7FFF80
700380
E001C0
C000C0
C000C0
C000C0
C000C0
C000C0
C000C0
C000C0
C000C0
C000C0
C000C0
E001C0
700380
7FFF80
1FFE00
ENDCHAR
STARTCHAR WHITE SQUARE CONTAINING BLACK SMALL SQUARE
ENCODING 9635
SWIDTH 687 0
DWIDTH 22 0
BBX 18 18 2 0
BITMAP
FFFFC0
FFFFC0
C000C0
C000C0
CFFCC0
CFFCC0
CFFCC0
CFFCC0
CFFCC0
CFFCC0
CFFCC0
CFFCC0
CFFCC0
CFFCC0
C000C0
C000C0
FFFFC0
FFFFC0
ENDCHAR
STARTCHAR SQUARE WITH HORIZONTAL FILL
ENCODING 9636
SWIDTH 687 0
DWIDTH 22 0
BBX 18 18 2 0
BITMAP
FFFFC0
FFFFC0
C000C0
C000C0
FFFFC0
FFFFC0
C000C0
C000C0
FFFFC0
FFFFC0
C000C0
C000C0
FFFFC0
FFFFC0
C000C0
C000C0
FFFFC0
FFFFC0
ENDCHAR
STARTCHAR SQUARE WITH VERTICAL FILL
ENCODING 9637
SWIDTH 687 0
DWIDTH 22 0
BBX 18 18 2 0
BITMAP
FFFFC0
FFFFC0
CCCCC0
CCCCC0
CCCCC0
CCCCC0
CCCCC0
CCCCC0
CCCCC0
CCCCC0
CCCCC0
CCCCC0
CCCCC0
CCCCC0
CCCCC0
CCCCC0
FFFFC0
FFFFC0
ENDCHAR
STARTCHAR SQUARE WITH ORTHOGONAL CROSSHATCH FILL
ENCODING 9638
SWIDTH 687 0
DWIDTH 22 0
BBX 18 18 2 0
BITMAP
FFFFC0
FFFFC0
CCCCC0
CCCCC0
FFFFC0
FFFFC0
CCCCC0
CCCCC0
FFFFC0
FFFFC0
CCCCC0
CCCCC0
FFFFC0
FFFFC0
CCCCC0
CCCCC0
FFFFC0
FFFFC0
ENDCHAR
STARTCHAR SQUARE WITH UPPER LEFT TO LOWER RIGHT FILL
ENCODING 9639
SWIDTH 687 0
DWIDTH 22 0
BBX 18 18 2 0
BITMAP
FFFFC0
FFFFC0
CE38C0
C71CC0
E38EC0
F1C7C0
F8E3C0
DC71C0
CE38C0
C71CC0
E38EC0
F1C7C0
F8E3C0
DC71C0
CE38C0
C71CC0
FFFFC0
FFFFC0
ENDCHAR
STARTCHAR SQUARE WITH UPPER RIGHT TO LOWER LEFT FILL
ENCODING 9640
SWIDTH 687 0
DWIDTH 22 0
BBX 18 18 2 0
BITMAP
FFFFC0
FFFFC0
C71CC0
CE38C0
DC71C0
F8E3C0
F1C7C0
E38EC0
C71CC0
CE38C0
DC71C0
F8E3C0
F1C7C0
E38EC0
C71CC0
CE38C0
FFFFC0
FFFFC0
ENDCHAR
STARTCHAR SQUARE WITH DIAGONAL CROSSHATCH FILL
ENCODING 9641
SWIDTH 687 0
DWIDTH 22 0
BBX 18 18 2 0
BITMAP
FFFFC0
FFFFC0
F7DFC0
FEFBC0
DC71C0
FEFBC0
F7DFC0
E38EC0
F7DFC0
FEFBC0
DC71C0
FEFBC0
F7DFC0
E38EC0
F7DFC0
FEFBC0
FFFFC0
FFFFC0
ENDCHAR
STARTCHAR BLACK SMALL SQUARE
ENCODING 9642
SWIDTH 437 0
DWIDTH 14 0
BBX 10 10 2 4
BITMAP
FFC0
FFC0
FFC0
FFC0
FFC0
FFC0
FFC0
FFC0
FFC0
FFC0
ENDCHAR
STARTCHAR WHITE SMALL SQUARE
ENCODING 9643
SWIDTH 437 0
DWIDTH 14 0
BBX 10 10 2 4
BITMAP
FFC0
FFC0
C0C0
C0C0
C0C0
C0C0
C0C0
C0C0
FFC0
FFC0
ENDCHAR
STARTCHAR BLACK RECTANGLE
ENCODING 9644
SWIDTH 687 0
DWIDTH 22 0
BBX 18 10 2 4
BITMAP
FFFFC0
FFFFC0
FFFFC0
FFFFC0
FFFFC0
FFFFC0
FFFFC0
FFFFC0
FFFFC0
FFFFC0
ENDCHAR
STARTCHAR WHITE RECTANGLE
ENCODING 9645
SWIDTH 687 0
DWIDTH 22 0
BBX 18 10 2 4
BITMAP
FFFFC0
FFFFC0
C000C0
C000C0
C000C0
C000C0
C000C0
C000C0
FFFFC0
FFFFC0
ENDCHAR
STARTCHAR BLACK VERTICAL RECTANGLE
ENCODING 9646
SWIDTH 437 0
DWIDTH 14 0
BBX 10 18 2 0
BITMAP
FFC0
FFC0
FFC0
FFC0
FFC0
FFC0
FFC0
FFC0
FFC0
FFC0
FFC0
FFC0
FFC0
FFC0
FFC0
FFC0
FFC0
FFC0
ENDCHAR
STARTCHAR WHITE VERTICAL RECTANGLE
ENCODING 9647
SWIDTH 437 0
DWIDTH 14 0
BBX 10 18 2 0
BITMAP
FFC0
FFC0
C0C0
C0C0
C0C0
C0C0
C0C0
C0C0
C0C0
C0C0
C0C0
C0C0
C0C0
C0C0
C0C0
C0C0
FFC0
FFC0
ENDCHAR
STARTCHAR BLACK PARALLELOGRAM
ENCODING 9648
SWIDTH 687 0
DWIDTH 22 0
BBX 20 12 1 3
BITMAP
07FFF0
07FFF0
0FFFE0
0FFFE0
1FFFC0
1FFFC0
3FFF80
3FFF80
7FFF00
7FFF00
FFFE00
FFFE00
ENDCHAR
STARTCHAR WHITE PARALLELOGRAM
ENCODING 9649
SWIDTH 687 0
DWIDTH 22 0
BBX 20 12 1 3
BITMAP
07FFF0
07FFF0
0E0060
0C00E0
1C00C0
1801C0
380180
300380
700300
600700
FFFE00
FFFE00
ENDCHAR
STARTCHAR BLACK UP-POINTING TRIANGLE
ENCODING 9650
SWIDTH 687 0
DWIDTH 22 0
BBX 19 19 2 0
BITMAP
004000
004000
00E000
00E000
01F000
01F000
03F800
03F800
07FC00
07FC00
0FFE00
0FFE00
1FFF00
1FFF00
3FFF80
3FFF80
7FFFC0
7FFFC0
FFFFE0
ENDCHAR
STARTCHAR WHITE UP-POINTING TRIANGLE
ENCODING 9651
SWIDTH 687 0
DWIDTH 22 0
BBX 19 19 2 0
BITMAP
004000
004000
00E000
00E000
01F000
01B000
03B800
031800
071C00
060C00
0E0E00
0C0600
1C0700
180300
380380
300180
7001C0
7FFFC0
FFFFE0
ENDCHAR
STARTCHAR BLACK UP-POINTING SMALL TRIANGLE
ENCODING 9652
SWIDTH 437 0
DWIDTH 14 0
BBX 11 11 2 4
BITMAP
0400
0400
0E00
0E00
1F00
1F00
3F80
3F80
7FC0
7FC0
FFE0
ENDCHAR
STARTCHAR WHITE UP-POINTING SMALL TRIANGLE
ENCODING 9653
SWIDTH 437 0
DWIDTH 14 0
BBX 11 11 2 4
BITMAP
0400
0400
0E00
0E00
1F00
1B00
3B80
3180
71C0
7FC0
FFE0
ENDCHAR
STARTCHAR BLACK RIGHT-POINTING TRIANGLE
ENCODING 9654
SWIDTH 687 0
DWIDTH 22 0
BBX 19 19 2 0
BITMAP
800000
E00000
F80000
FE0000
FF8000
FFE000
FFF800
FFFE00
FFFF80
FFFFE0
FFFF80
FFFE00
FFF800
FFE000
FF8000
FE0000
F80000
E00000
800000
ENDCHAR
STARTCHAR WHITE RIGHT-POINTING TRIANGLE
ENCODING 9655
SWIDTH 687 0
DWIDTH 22 0
BBX 19 19 2 0
BITMAP
800000
E00000
F80000
FE0000
CF8000
C3E000
C0F800
C03E00
C00F80
C003E0
C00F80
C03E00
C0F800
C3E000
CF8000
FE0000
F80000
E00000
800000
ENDCHAR
STARTCHAR BLACK RIGHT-POINTING SMALL TRIANGLE
ENCODING 9656
SWIDTH 437 0
DWIDTH 14 0
BBX 11 11 2 4
BITMAP
8000
E000
F800
FE00
FF80
FFE0
FF80
FE00
F800
E000
8000
ENDCHAR
STARTCHAR WHITE RIGHT-POINTING SMALL TRIANGLE
ENCODING 9657
SWIDTH 437 0
DWIDTH 14 0
BBX 11 11 2 4
BITMAP
8000
E000
F800
FE00
CF80
C3E0
CF80
FE00
F800
E000
8000
ENDCHAR
STARTCHAR BLACK RIGHT-POINTING POINTER
ENCODING 9658
SWIDTH 687 0
DWIDTH 22 0
BBX 19 10 2 4
BITMAP
F00000
FF0000
FFF000
FFFF00
FFFFE0
FFFFE0
FFFF00
FFF000
FF0000
F00000
ENDCHAR
STARTCHAR WHITE RIGHT-POINTING POINTER
ENCODING 9659
SWIDTH 687 0
DWIDTH 22 0
BBX 19 10 2 4
BITMAP
F00000
FF0000
DFF000
C1FF00
C01FE0
C01FE0
C1FF00
DFF000
FF0000
F00000
ENDCHAR
STARTCHAR BLACK DOWN-POINTING TRIANGLE
ENCODING 9660
SWIDTH 687 0
DWIDTH 22 0
BBX 19 19 2 -1
BITMAP
FFFFE0
7FFFC0
7FFFC0
3FFF80
3FFF80
1FFF00
1FFF00
0FFE00
0FFE00
07FC00
07FC00
03F800
03F800
01F000
01F000
00E000
00E000
004000
004000
ENDCHAR
STARTCHAR WHITE DOWN-POINTING TRIANGLE
ENCODING 9661
SWIDTH 687 0
DWIDTH 22 0
BBX 19 19 2 -1
BITMAP
FFFFE0
7FFFC0
7001C0
300180
380380
180300
1C0700
0C0600
0E0E00
060C00
071C00
031800
03B800
01B000
01F000
00E000
00E000
004000
004000
ENDCHAR
STARTCHAR BLACK DOWN-POINTING SMALL TRIANGLE
ENCODING 9662
SWIDTH 437 0
DWIDTH 14 0
BBX 11 11 2 3
BITMAP
FFE0
7FC0
7FC0
3F80
3F80
1F00
1F00
0E00
0E00
0400
0400
ENDCHAR
STARTCHAR WHITE DOWN-POINTING SMALL TRIANGLE
ENCODING 9663
SWIDTH 437 0
DWIDTH 14 0
BBX 11 11 2 3
BITMAP
FFE0
7FC0
71C0
3180
3B80
1B00
1F00
0E00
0E00
0400
0400
ENDCHAR
STARTCHAR BLACK LEFT-POINTING TRIANGLE
ENCODING 9664
SWIDTH 687 0
DWIDTH 22 0
BBX 19 19 1 0
BITMAP
000020
0000E0
0003E0
000FE0
003FE0
00FFE0
03FFE0
0FFFE0
3FFFE0
FFFFE0
3FFFE0
0FFFE0
03FFE0
00FFE0
003FE0
000FE0
0003E0
0000E0
000020
ENDCHAR
STARTCHAR WHITE LEFT-POINTING TRIANGLE
ENCODING 9665
SWIDTH 687 0
DWIDTH 22 0
BBX 19 19 1 0
BITMAP
000020
0000E0
0003E0
000FE0
003E60
00F860
03E060
0F8060
3E0060
F80060
3E0060
0F8060
03E060
00F860
003E60
000FE0
0003E0
0000E0
000020
ENDCHAR
STARTCHAR BLACK LEFT-POINTING SMALL TRIANGLE
ENCODING 9666
SWIDTH 437 0
DWIDTH 14 0
BBX 11 11 1 4
BITMAP
0020
00E0
03E0
0FE0
3FE0
FFE0
3FE0
0FE0
03E0
00E0
0020
ENDCHAR
STARTCHAR WHITE LEFT-POINTING SMALL TRIANGLE
ENCODING 9667
SWIDTH 437 0
DWIDTH 14 0
BBX 11 11 1 4
BITMAP
0020
00E0
03E0
0FE0
3E60
F860
3E60
0FE0
03E0
00E0
0020
ENDCHAR
STARTCHAR BLACK LEFT-POINTING POINTER
ENCODING 9668
SWIDTH 687 0
DWIDTH 22 0
BBX 19 10 1 4
BITMAP
0001E0
001FE0
01FFE0
1FFFE0
FFFFE0
FFFFE0
1FFFE0
01FFE0
001FE0
0001E0
ENDCHAR
STARTCHAR WHITE LEFT-POINTING POINTER
ENCODING 9669
SWIDTH 687 0
DWIDTH 22 0
BBX 19 10 1 4
BITMAP
0001E0
001FE0
01FF60
1FF060
FF0060
FF0060
1FF060
01FF60
001FE0
0001E0
ENDCHAR
STARTCHAR BLACK DIAMOND
ENCODING 9670
SWIDTH 687 0
DWIDTH 22 0
BBX 21 21 1 -1
BITMAP
002000
007000
00F800
01FC00
03FE00
07FF00
0FFF80
1FFFC0
3FFFE0
7FFFF0
FFFFF8
7FFFF0
3FFFE0
1FFFC0
0FFF80
07FF00
03FE00
01FC00
00F800
007000
002000
ENDCHAR
STARTCHAR WHITE DIAMOND
ENCODING 9671
SWIDTH 687 0
DWIDTH 22 0
BBX 21 21 1 -1
BITMAP
002000
007000
00F800
01DC00
038E00
070700
0E0380
1C01C0
3800E0
700070
E00038
700070
3800E0
1C01C0
0E0380
070700
038E00
01DC00
00F800
007000
002000
ENDCHAR
STARTCHAR WHITE DIAMOND CONTAINING BLACK SMALL DIAMOND
ENCODING 9672
SWIDTH 687 0
DWIDTH 22 0
BBX 21 21 1 -1
BITMAP
002000
007000
00F800
01DC00
038E00
070700
0E2380
1C71C0
38F8E0
71FC70
E3FE38
71FC70
38F8E0
1C71C0
0E2380
070700
038E00
01DC00
00F800
007000
002000
ENDCHAR
STARTCHAR FISHEYE
ENCODING 9673
SWIDTH 687 0
DWIDTH 22 0
BBX 18 18 2 0
BITMAP
03F000
0FFC00
1E1E00
380700
70C380
63F180
E7F9C0
C7F8C0
CFFCC0
CFFCC0
C7F8C0
E7F9C0
63F180
70C380
380700
1E1E00
0FFC00
03F000
ENDCHAR
STARTCHAR LOZENGE
ENCODING 9674
SWIDTH 500 0
DWIDTH 16 0
BBX 13 26 1 -3
BITMAP
0200
0200
0700
0700
0D80
0D80
18C0
18C0
3060
3060
6030
6030
C018
C018
6030
6030
3060
3060
18C0
18C0
0D80
0D80
0700
0700
0200
0200
ENDCHAR
STARTCHAR WHITE CIRCLE
ENCODING 9675
SWIDTH 687 0
DWIDTH 22 0
BBX 18 18 2 0
BITMAP
03F000
0FFC00
1E1E00
380700
700380
600180
E001C0
C000C0
C000C0
C000C0
C000C0
E001C0
600180
700380
380700
1E1E00
0FFC00
03F000
ENDCHAR
STARTCHAR DOTTED CIRCLE
ENCODING 9676
SWIDTH 687 0
DWIDTH 22 0
BBX 18 18 2 0
BITMAP
033000
0F3C00
0E1C00
000000
600180
600180
E001C0
C000C0
000000
000000
C000C0
E001C0
600180
600180
000000
0E1C00
0F3C00
033000
ENDCHAR
STARTCHAR CIRCLE WITH VERTICAL FILL
ENCODING 9677
SWIDTH 687 0
DWIDTH 22 0
BBX 18 18 2 0
BITMAP
03F000
0FFC00
1EDE00
3CCF00
7CCF80
6CCD80
ECCDC0
CCCCC0
CCCCC0
CCCCC0
CCCCC0
ECCDC0
6CCD80
7CCF80
3CCF00
1EDE00
0FFC00
03F000
ENDCHAR
STARTCHAR BULLSEYE
ENCODING 9678
SWIDTH 687 0
DWIDTH 22 0
BBX 18 18 2 0
BITMAP
03F000
0FFC00
1E1E00
380700
700380
61E180
E3F1C0
C738C0
C618C0
C618C0
C738C0
E3F1C0
61E180
700380
380700
1E1E00
0FFC00
03F000
ENDCHAR
STARTCHAR BLACK CIRCLE
ENCODING 9679
SWIDTH 687 0
DWIDTH 22 0
BBX 18 18 2 0
BITMAP
03F000
0FFC00
1FFE00
3FFF00
7FFF80
7FFF80
FFFFC0
FFFFC0
FFFFC0
FFFFC0
FFFFC0
FFFFC0
7FFF80
7FFF80
3FFF00
1FFE00
0FFC00
03F000
ENDCHAR
STARTCHAR BLACK LOWER RIGHT TRIANGLE
ENCODING 9698
SWIDTH 687 0
DWIDTH 22 0
BBX 18 18 2 0
BITMAP
000040
0000C0
0001C0
0003C0
0007C0
000FC0
001FC0
003FC0
007FC0
00FFC0
01FFC0
03FFC0
07FFC0
0FFFC0
1FFFC0
3FFFC0
7FFFC0
FFFFC0
ENDCHAR
STARTCHAR BLACK LOWER LEFT TRIANGLE
ENCODING 9699
SWIDTH 687 0
DWIDTH 22 0
BBX 18 18 2 0
BITMAP
800000
C00000
E00000
F00000
F80000
FC0000
FE0000
FF0000
FF8000
FFC000
FFE000
FFF000
FFF800
FFFC00
FFFE00
FFFF00
FFFF80
FFFFC0
ENDCHAR
STARTCHAR BLACK UPPER LEFT TRIANGLE
ENCODING 9700
SWIDTH 687 0
DWIDTH 22 0
BBX 18 18 2 0
BITMAP
FFFFC0
FFFF80
FFFF00
FFFE00
FFFC00
FFF800
FFF000
FFE000
FFC000
FF8000
FF0000
FE0000
FC0000
F80000
F00000
E00000
C00000
800000
ENDCHAR
STARTCHAR BLACK UPPER RIGHT TRIANGLE
ENCODING 9701
SWIDTH 687 0
DWIDTH 22 0
BBX 18 18 2 0
BITMAP
FFFFC0
7FFFC0
3FFFC0
1FFFC0
0FFFC0
07FFC0
03FFC0
01FFC0
00FFC0
007FC0
003FC0
001FC0
000FC0
0007C0
0003C0
0001C0
0000C0
000040
ENDCHAR
STARTCHAR WHITE BULLET
ENCODING 9702
SWIDTH 500 0
DWIDTH 16 0
BBX 7 7 5 6
BITMAP
38
7C
C6
C6
C6
7C
38
ENDCHAR
STARTCHAR LARGE CIRCLE
ENCODING 9711
SWIDTH 812 0
DWIDTH 26 0
BBX 24 24 1 -2
BITMAP
007E00
03FFC0
07C3E0
0E0070
1C0038
38001C
70000E
600006
600006
E00007
C00003
C00003
C00003
C00003
E00007
600006
600006
70000E
38001C
1C0038
0E0070
07C3E0
03FFC0
007E00
ENDCHAR
STARTCHAR UPPER LEFT TRIANGLE
ENCODING 9720
SWIDTH 687 0
DWIDTH 22 0
BBX 18 18 2 0
BITMAP
FFFFC0
FFFFC0
C00380
C00700
C00E00
C01C00
C03800
C07000
C0E000
C1C000
C38000
C70000
CE0000
DC0000
F80000
F00000
E00000
C00000
ENDCHAR
STARTCHAR UPPER RIGHT TRIANGLE
ENCODING 9721
SWIDTH 687 0
DWIDTH 22 0
BBX 18 18 2 0
BITMAP
FFFFC0
FFFFC0
7000C0
3800C0
1C00C0
0E00C0
0700C0
0380C0
01C0C0
00E0C0
0070C0
0038C0
001CC0
000EC0
0007C0
0003C0
0001C0
0000C0
ENDCHAR
STARTCHAR LOWER LEFT TRIANGLE
ENCODING 9722
SWIDTH 687 0
DWIDTH 22 0
BBX 18 18 2 0
BITMAP
C00000
E00000
F00000
F80000
DC0000
CE0000
C70000
C38000
C1C000
C0E000
C07000
C03800
C01C00
C00E00
C00700
C00380
FFFFC0
FFFFC0
ENDCHAR
STARTCHAR WHITE MEDIUM SQUARE
ENCODING 9723
SWIDTH 562 0
DWIDTH 18 0
BBX 14 14 2 2
BITMAP
FFFC
FFFC
C00C
C00C
C00C
C00C
C00C
C00C
C00C
C00C
C00C
C00C
FFFC
FFFC
ENDCHAR
STARTCHAR BLACK MEDIUM SQUARE
ENCODING 9724
SWIDTH 562 0
DWIDTH 18 0
BBX 14 14 2 2
BITMAP
FFFC
FFFC
FFFC
FFFC
FFFC
FFFC
FFFC
FFFC
FFFC
FFFC
FFFC
FFFC
FFFC
FFFC
ENDCHAR
STARTCHAR WHITE MEDIUM SMALL SQUARE
ENCODING 9725
SWIDTH 500 0
DWIDTH 16 0
BBX 12 12 2 3
BITMAP
FFF0
FFF0
C030
C030
C030
C030
C030
C030
C030
C030
FFF0
FFF0
ENDCHAR
STARTCHAR BLACK MEDIUM SMALL SQUARE
ENCODING 9726
SWIDTH 500 0
DWIDTH 16 0
BBX 12 12 2 3
BITMAP
FFF0
FFF0
FFF0
FFF0
FFF0
FFF0
FFF0
FFF0
FFF0
FFF0
FFF0
FFF0
ENDCHAR
STARTCHAR LOWER RIGHT TRIANGLE
ENCODING 9727
SWIDTH 687 0
DWIDTH 22 0
BBX 18 18 2 0
BITMAP
0000C0
0001C0
0003C0
0007C0
000EC0
001CC0
0038C0
0070C0
00E0C0
01C0C0
0380C0
0700C0
0E00C0
1C00C0
3800C0
7000C0
FFFFC0
FFFFC0
ENDCHAR
STARTCHAR LESS-THAN OR SLANTED EQUAL TO
ENCODING 10877
SWIDTH 656 0
DWIDTH 21 0
BBX 14 19 4 0
BITMAP
000C
003C
00F0
03C0
0F00
3C00
F000
F000
3C00
0F00
03C0
C0F0
F03C
3C0C
0F00
03C0
00F0
003C
000C
ENDCHAR
STARTCHAR GREATER-THAN OR SLANTED EQUAL TO
ENCODING 10878
SWIDTH 656 0
DWIDTH 21 0
BBX 14 19 4 0
BITMAP
C000
F000
3C00
0F00
03C0
00F0
003C
003C
00F0
03C0
0F00
3C0C
F03C
C0F0
03C0
0F00
3C00
F000
C000
ENDCHAR
STARTCHAR REPLACEMENT CHARACTER
ENCODING 65533
SWIDTH 500 0
DWIDTH 16 0
BBX 13 21 2 -1
BITMAP
AAA8
0000
8008
0000
8008
0000
8F08
0080
8088
0100
8208
0400
8008
0000
8408
0400
8008
0000
8008
0000
AAA8
ENDCHAR
ENDFONT
